<svg xmlns="http://www.w3.org/2000/svg" width="1024" height="1024" viewBox="0 0 1024 1024" version="1.1"><path d="M 411.389 99.980 C 410.228 100.449, 408.964 101.652, 408.580 102.653 C 405.568 110.502, 405.473 235.725, 408.457 265 C 411.386 293.735, 414.203 307.247, 418.176 311.619 C 420.382 314.046, 423.393 314.457, 468 318.423 C 516.819 322.764, 528.009 323.396, 557 323.448 C 590.545 323.509, 597.778 322.450, 604.787 316.451 C 615.746 307.070, 619.032 274.875, 620.951 158.079 C 621.812 105.657, 621.812 105.657, 619.156 102.329 C 616.500 99, 616.500 99, 515 99.063 C 459.175 99.098, 412.550 99.511, 411.389 99.980 M 424.543 116.489 C 423.297 120.917, 422.779 214.056, 423.876 236.500 C 425.340 266.469, 428.620 295.020, 430.856 297.256 C 431.823 298.223, 473.534 302.234, 507 304.578 C 531.416 306.289, 580.600 306.951, 588.247 305.672 C 594.056 304.701, 594.559 303.868, 596.992 291.193 C 599.338 278.972, 600.681 262.473, 602.016 229.500 C 602.925 207.040, 605.021 115.765, 604.636 115.354 C 604.561 115.274, 564.137 115.044, 514.804 114.843 C 425.637 114.479, 425.105 114.489, 424.543 116.489 M 514.682 162.031 C 511.922 164.207, 509.791 167.180, 494.997 189.500 C 489.468 197.841, 484.275 203.888, 473.511 214.519 C 465.704 222.230, 458.796 229.513, 458.159 230.704 C 455.045 236.521, 459.279 243.639, 465.309 242.727 C 467.132 242.451, 469.783 242.899, 471.493 243.773 C 474.112 245.111, 480.116 245.214, 519.415 244.593 C 566.272 243.853, 568.423 243.642, 573.218 239.303 C 576.122 236.675, 577.302 230.654, 575.672 226.787 C 573.141 220.781, 558.841 202.314, 540.609 181.506 C 536.269 176.553, 531.940 170.700, 530.989 168.500 C 528.714 163.240, 526.002 160.943, 521.328 160.320 C 518.369 159.925, 516.860 160.314, 514.682 162.031 M 517.251 194.160 C 515.617 196.547, 513.577 199.850, 512.717 201.500 C 511.856 203.150, 508.915 207.257, 506.180 210.626 C 501.207 216.753, 501.207 216.753, 520.166 217.480 C 530.594 217.881, 539.346 217.987, 539.616 217.718 C 540.199 217.134, 526.252 196.936, 520.932 190.660 C 520.540 190.198, 518.884 191.773, 517.251 194.160 M 109.354 394.629 C 105.453 395.507, 103.614 398.697, 103.192 405.321 C 102.560 415.249, 104.925 550.471, 106.024 567.249 C 108.446 604.213, 112.021 613.631, 125.070 617.413 C 131.809 619.367, 155.999 623.181, 180.745 626.191 C 196.037 628.051, 204.578 628.475, 227 628.486 C 262.296 628.504, 268.705 627.207, 277.151 618.335 C 293.328 601.341, 315.067 547.753, 325.963 498.008 C 337.247 446.493, 334.157 414.474, 316.864 403.732 C 311.859 400.624, 296.722 398.001, 272 395.960 C 258.677 394.860, 113.607 393.673, 109.354 394.629 M 402.810 402.461 C 399.500 405.422, 399.500 405.422, 399.635 478.461 C 399.806 571.149, 401.557 605.641, 406.981 623.205 C 409.245 630.533, 411.808 633.376, 417.500 634.873 C 432.061 638.704, 551.092 641.361, 562.303 638.105 C 568.287 636.367, 574.548 630.845, 584.317 618.686 C 594.854 605.570, 608.022 587.099, 609.756 583 C 611.048 579.947, 611.091 573.816, 610.095 535 C 606.905 410.713, 607.028 413.155, 603.732 408.649 C 601.651 405.802, 592.952 405.248, 515 402.991 C 475.125 401.837, 434.315 400.579, 424.310 400.196 C 406.121 399.500, 406.121 399.500, 402.810 402.461 M 704.684 408.811 C 702.262 411.292, 701.213 413.180, 701.517 414.510 C 701.767 415.605, 702.660 438.775, 703.502 466 C 705.803 540.389, 708.666 598.970, 711.079 621 C 712.254 631.731, 715.119 638.848, 719 640.681 C 721.739 641.974, 809.690 644, 863.097 644 C 892.837 644, 892.837 644, 894.941 640.596 C 896.911 637.409, 897.329 632.396, 901.517 561.846 C 908.142 450.250, 909.629 417.677, 908.241 414.629 C 906.043 409.805, 907.805 409.920, 799.500 407.499 C 763.750 406.700, 728.606 405.834, 721.403 405.574 C 708.306 405.102, 708.306 405.102, 704.684 408.811 M 120.479 454.750 C 121.284 512.257, 122.835 566.753, 124.026 579.371 C 125.507 595.070, 126.743 599.952, 129.501 601 C 132.537 602.155, 159.894 606.400, 181.500 609.069 C 202.605 611.677, 242.045 612.783, 252.998 611.074 C 257.122 610.431, 261.516 609.237, 262.761 608.421 C 274.081 601.004, 296.264 548.503, 307.399 502.774 C 313.857 476.254, 314.386 472.258, 314.445 449.500 C 314.499 429.046, 314.435 428.370, 312 423.500 C 309.767 419.034, 309.014 418.380, 304.945 417.376 C 288.130 413.224, 241.146 411.189, 159.183 411.061 C 119.866 411, 119.866 411, 120.479 454.750 M 416.546 479.176 C 417.456 581.513, 419.558 616.808, 424.840 618.433 C 430.531 620.185, 479.649 622.324, 516.072 622.407 C 556.644 622.500, 556.644 622.500, 560.345 619.681 C 564.782 616.302, 575.910 602.592, 586.463 587.500 C 594.155 576.500, 594.155 576.500, 593.582 557.500 C 593.266 547.050, 592.546 519.375, 591.981 496 C 591.416 472.625, 590.694 446.676, 590.376 438.336 C 589.798 423.173, 589.798 423.173, 584.149 422.574 C 581.042 422.244, 548.575 421.099, 512 420.030 C 475.425 418.960, 438.861 417.807, 430.746 417.468 C 415.991 416.851, 415.991 416.851, 416.546 479.176 M 719.493 434.168 C 719.786 440.951, 720.488 461.575, 721.052 480 C 722.945 541.736, 726.994 620.418, 728.502 624.750 C 728.840 625.720, 738.079 626.027, 769.719 626.119 C 792.148 626.184, 826.025 626.525, 845 626.876 C 863.975 627.226, 879.725 627.360, 880 627.174 C 880.275 626.987, 881.893 603.475, 883.596 574.926 C 886.692 523.017, 886.692 523.017, 890.096 516.295 C 893.402 509.768, 893.498 509.240, 893.430 498.037 C 893.378 489.561, 892.914 485.473, 891.680 482.628 C 889.677 478.012, 889.574 471.465, 891.101 446.187 C 891.710 436.115, 891.969 427.636, 891.677 427.343 C 891.384 427.051, 875.025 426.427, 855.323 425.956 C 835.620 425.485, 799.700 424.634, 775.500 424.065 C 751.300 423.495, 728.678 422.761, 725.230 422.433 C 718.960 421.836, 718.960 421.836, 719.493 434.168 M 760.041 447.450 C 759.015 448.687, 759.401 448.819, 762.669 448.345 C 764.776 448.040, 767.850 447.428, 769.500 446.985 C 772.032 446.306, 771.622 446.166, 766.872 446.090 C 763.085 446.029, 760.851 446.474, 760.041 447.450 M 237.500 454.587 C 235.850 455.453, 229.622 457.961, 223.660 460.160 C 217.698 462.359, 210.679 465.420, 208.063 466.963 C 205.446 468.506, 197.949 472.584, 191.403 476.026 C 175.342 484.469, 169.501 488.456, 166.792 492.823 C 164.029 497.278, 163.798 503.516, 166.256 507.267 C 168.296 510.381, 178.865 517.710, 191 524.425 C 195.675 527.012, 202.297 531.012, 205.715 533.314 C 219.163 542.370, 232.421 550.379, 236.017 551.618 C 242.236 553.760, 249.528 550.747, 252.626 544.756 C 253.917 542.260, 254.448 537.341, 254.972 523.015 C 255.589 506.178, 255.884 503.956, 258.228 498.500 C 268.244 475.191, 265.949 464.195, 249.210 455.295 C 244.135 452.596, 241.586 452.442, 237.500 454.587 M 774.500 464.875 C 771.154 465.921, 769.664 467.263, 765.227 473.230 C 759.865 480.440, 758.997 482.754, 759.011 489.815 C 759.030 500.193, 761.892 522.743, 763.974 528.923 C 767.717 540.033, 770.232 544.370, 774 546.207 C 778.605 548.452, 778.518 548.475, 820.500 533.774 C 854.393 521.904, 858.273 519.566, 858.273 511 C 858.273 505.467, 855.727 502.207, 849.167 499.339 C 846.050 497.976, 839.225 494.375, 834 491.338 C 812.917 479.080, 806.043 475.548, 796.030 471.830 C 790.271 469.691, 784.646 467.351, 783.530 466.629 C 780.798 464.863, 776.937 464.112, 774.500 464.875 M 469.500 470.047 C 462.298 471, 458.710 472.279, 453.833 475.634 C 450.748 477.757, 450.067 478.898, 449.544 482.828 C 448.682 489.301, 453.951 501.937, 460.565 509.259 C 463.169 512.142, 466.031 515.690, 466.925 517.144 C 467.819 518.599, 471.914 523.485, 476.025 528.003 C 480.136 532.521, 483.649 536.616, 483.831 537.102 C 484.250 538.220, 497.980 549.384, 500.778 550.881 C 506.917 554.167, 511.779 550.973, 522.223 536.794 C 531.419 524.308, 534.911 518.907, 540.518 508.500 C 542.592 504.650, 545.959 499.025, 548 496 C 555.360 485.092, 556.193 482.207, 553.490 476.980 C 551.339 472.821, 549.039 471.932, 539.201 471.457 C 534.415 471.227, 524.200 470.583, 516.500 470.028 C 500.494 468.873, 478.310 468.882, 469.500 470.047 M 226 486.554 C 222.425 488.999, 215.997 493.077, 211.717 495.615 C 203.933 500.229, 203.933 500.229, 211.217 504.621 C 215.222 507.037, 220.188 510.142, 222.250 511.521 C 226 514.029, 226 514.029, 226.015 509.765 C 226.039 502.652, 229.822 489.316, 233.678 482.750 C 234.645 481.103, 232.191 482.318, 226 486.554 M 783.394 498.636 C 784.486 512.730, 785.175 519.471, 785.565 519.880 C 786.058 520.398, 817.928 509.925, 818.456 509.072 C 819.042 508.123, 790.119 492.016, 785.103 490.498 C 782.706 489.772, 782.706 489.772, 783.394 498.636 M 493.741 491.748 C 479.981 492.057, 479.981 492.057, 482.491 496.770 C 483.871 499.363, 485 502.165, 485 502.998 C 485 504.507, 503.442 524.038, 504.790 523.957 C 505.952 523.888, 512.202 515.251, 519.839 503.166 C 523.777 496.932, 527 491.645, 527 491.416 C 527 491.187, 522.612 491.099, 517.250 491.219 C 511.887 491.340, 501.308 491.578, 493.741 491.748 M 850.518 563.250 C 848.971 565.038, 846.759 567.622, 845.602 568.993 C 843.500 571.486, 843.500 571.486, 845.860 569.493 C 848.316 567.420, 854.482 560, 853.749 560 C 853.519 560, 852.065 561.462, 850.518 563.250 M 14.362 666.210 C 6.408 671.860, 4.855 679.727, 9.942 688.597 C 16.409 699.872, 28.917 707.689, 55.536 717.090 C 63.766 719.997, 70.690 722.518, 70.922 722.693 C 71.154 722.868, 69.245 729.646, 66.679 737.755 C 55.538 772.968, 50.027 809.155, 51.450 837.750 C 52.459 858.025, 55.987 868.796, 64.655 878.063 C 70.729 884.556, 75.470 887, 81.992 887 C 88.356 887, 92.851 885.154, 96.211 881.161 C 100.858 875.638, 101.313 872.544, 99.875 856.224 C 98.155 836.695, 98.427 796.642, 100.419 776 C 102.670 752.677, 106.020 729.697, 107.361 728.384 C 107.987 727.771, 115.475 726.032, 124 724.521 C 132.525 723.009, 142.425 720.718, 146 719.428 C 158.704 714.847, 163.834 705.229, 158.862 695.314 C 154.517 686.650, 151.158 685.458, 118.500 681.002 C 78.724 675.575, 64.659 673.052, 38 666.560 C 24.750 663.333, 18.540 663.241, 14.362 666.210 M 926.400 719.314 C 898.381 729.994, 876.534 754.889, 867.521 786.407 C 860.483 811.019, 862.693 838.519, 872.900 853.355 C 876.971 859.271, 881.408 862.981, 890.252 867.863 C 897.364 871.789, 898.173 872, 906.123 871.994 C 931.516 871.976, 958.555 862.803, 985 845.235 C 1000.443 834.976, 1004 830.595, 1004 821.836 C 1004 812.550, 998.390 807.005, 989 807.010 C 984.132 807.013, 981.715 807.910, 967.968 814.820 C 944.422 826.653, 927.978 831.178, 917.961 828.580 C 913.574 827.442, 907.995 823.798, 908.003 822.076 C 908.004 821.759, 911.569 820.241, 915.925 818.703 C 935.387 811.830, 959.981 791.976, 970.061 775 C 977.606 762.294, 979.173 746.053, 973.742 736.856 C 969.126 729.038, 964.177 724.213, 957.310 720.832 C 951.568 718.005, 949.512 717.541, 941.602 717.284 C 934.020 717.039, 931.481 717.378, 926.400 719.314 M 348.518 729.260 C 340.662 737.372, 337.581 747.366, 334.572 774.500 C 329.906 816.569, 328.851 842.787, 331.471 851.568 C 334.556 861.907, 342.538 868, 353 868 C 367.210 868, 374.227 859.271, 377.514 837.500 C 383.870 795.411, 395.835 767, 407.206 767 C 412.151 767, 417.769 773.650, 422.895 785.573 C 429.499 800.934, 436.662 815.022, 440.543 820.287 C 445.125 826.501, 449.292 829.001, 455 828.961 C 462.894 828.905, 464.598 827.192, 476.137 807.714 C 484.667 793.314, 496.272 777.739, 502.933 771.750 C 511.886 763.701, 521.039 763.039, 527.941 769.941 C 535.308 777.308, 538.031 788.271, 540.995 822.500 C 542.138 835.700, 543.525 848.191, 544.077 850.257 C 546.723 860.160, 560.781 866.043, 571.298 861.649 C 575.418 859.928, 580.399 854.272, 582.144 849.336 C 584.230 843.434, 583.928 807.637, 581.669 793.142 C 576.525 760.125, 561.864 736.841, 541.243 728.937 C 533.870 726.111, 520.425 725.884, 511 728.425 C 496.773 732.262, 485.199 738.958, 473 750.412 C 456.535 765.871, 458.849 765, 454.409 757.410 C 449.471 748.965, 439.195 739.375, 430.307 734.915 C 423.853 731.677, 422.955 731.500, 413 731.500 C 400.986 731.500, 397.118 732.685, 387.802 739.220 C 384.597 741.468, 381.836 743.126, 381.668 742.904 C 381.499 742.682, 380.842 740.700, 380.209 738.500 C 378.732 733.374, 373.577 727.139, 369.357 725.376 C 367.546 724.619, 363.263 724, 359.839 724 C 353.639 724, 353.592 724.022, 348.518 729.260 M 829.259 732.101 C 822.983 735.207, 815.877 743.647, 810.229 754.702 C 804.904 765.124, 802.096 772.285, 791.487 802.500 C 787.818 812.950, 784.461 822.135, 784.028 822.911 C 782.198 826.189, 775.131 811.540, 762.389 778.060 C 758.320 767.367, 753.980 757.522, 752.745 756.181 C 748.372 751.431, 739.797 749.614, 733.315 752.064 C 729.484 753.511, 725.042 757.826, 723.377 761.718 C 719.077 771.768, 725.692 805.853, 736.579 829.744 C 741.917 841.457, 750.113 852.943, 759.419 861.752 C 770.581 872.318, 775.073 874.508, 785.500 874.473 C 794.913 874.441, 799.376 872.531, 807.270 865.157 C 817.279 855.808, 826.320 838.905, 841.443 801.272 C 846.135 789.596, 852.229 775.043, 854.987 768.932 C 860.686 756.301, 861.263 751.388, 857.919 744 C 852.398 731.802, 840.142 726.714, 829.259 732.101 M 154.436 745.585 C 143.392 751.457, 133.223 762.862, 125.979 777.500 C 120.859 787.847, 118.947 795.225, 118.277 807.235 C 117.314 824.493, 120.409 834.088, 130.375 844.742 C 141.800 856.955, 154.952 860.488, 172.391 856.028 C 192.106 850.986, 209.635 835.876, 218.952 815.893 C 223.686 805.738, 225.288 797.923, 224.762 787.545 C 224.169 775.864, 221.465 768.764, 214.851 761.527 C 207.832 753.847, 200.411 750.412, 186.500 748.402 C 180.450 747.529, 173.530 745.956, 171.123 744.907 C 165.151 742.305, 160.228 742.505, 154.436 745.585 M 634.436 745.585 C 623.392 751.457, 613.223 762.862, 605.979 777.500 C 600.859 787.847, 598.947 795.225, 598.277 807.235 C 597.314 824.493, 600.409 834.088, 610.375 844.742 C 621.800 856.955, 634.952 860.488, 652.391 856.028 C 672.106 850.986, 689.635 835.876, 698.952 815.893 C 703.686 805.738, 705.288 797.923, 704.762 787.545 C 704.169 775.864, 701.465 768.764, 694.851 761.527 C 687.832 753.847, 680.411 750.412, 666.500 748.402 C 660.450 747.529, 653.530 745.956, 651.123 744.907 C 645.151 742.305, 640.228 742.505, 634.436 745.585 M 935.876 764.004 C 930.713 766.732, 921.204 777.517, 916.364 786.135 C 911.580 794.652, 909.904 799.097, 912.106 797.426 C 929.805 783.993, 933.217 780.682, 940.346 770.027 C 942.297 767.112, 942.556 761.980, 940.750 762.044 C 940.063 762.069, 937.869 762.950, 935.876 764.004 M 166.500 785.357 C 158.797 788.920, 154.762 797.497, 154.202 811.500 C 153.834 820.706, 153.982 821.728, 156.068 824.370 C 158.156 827.015, 158.713 827.194, 163.203 826.662 C 175.791 825.171, 188.934 812.266, 190.606 799.753 C 191.350 794.182, 189.948 790.825, 185.442 787.388 C 182.504 785.147, 180.521 784.518, 175.630 784.275 C 171.887 784.089, 168.332 784.510, 166.500 785.357 M 646.500 785.357 C 638.797 788.920, 634.762 797.497, 634.202 811.500 C 633.834 820.706, 633.982 821.728, 636.068 824.370 C 638.156 827.015, 638.713 827.194, 643.203 826.662 C 655.791 825.171, 668.934 812.266, 670.606 799.753 C 671.350 794.182, 669.948 790.825, 665.442 787.388 C 662.504 785.147, 660.521 784.518, 655.630 784.275 C 651.887 784.089, 648.332 784.510, 646.500 785.357" stroke="none" fill="#fffcfc" fill-rule="evenodd"/><path d="" stroke="none" fill="#fcfcfc" fill-rule="evenodd"/></svg>