<svg xmlns="http://www.w3.org/2000/svg" width="1024" height="1024" viewBox="0 0 1024 1024" version="1.1"><path d="M 410.573 100.570 C 408.422 102.721, 408.191 104.330, 407.570 121.500 C 405.372 182.255, 405.929 237.431, 409.040 266.921 C 412.446 299.225, 415.109 310.382, 420.040 313.021 C 422.322 314.243, 490.842 320.489, 523 322.407 C 535.925 323.178, 555.275 323.669, 566 323.499 C 594.483 323.046, 603.651 320.466, 608.686 311.490 C 613.746 302.469, 617.328 275.021, 618.538 236 C 618.870 225.275, 619.326 215.150, 619.550 213.500 C 619.774 211.850, 620.261 186.875, 620.632 158 L 621.307 105.500 618.564 102.250 L 615.822 99 513.983 99 C 422.776 99, 411.979 99.164, 410.573 100.570 M 423.372 136.596 C 422.118 169.943, 422.499 229.871, 424.103 251.500 C 425.198 266.282, 427.936 289.624, 429.116 294.240 C 430.241 298.641, 429.936 298.543, 447 299.992 C 453.875 300.576, 466.250 301.690, 474.500 302.468 C 529.878 307.692, 587.242 308.677, 593.967 304.520 C 595.044 303.855, 597.691 292.366, 598.926 283 C 601.544 263.142, 603.526 216.658, 604.502 152.273 L 605.066 115.046 560.783 115.058 C 536.427 115.064, 495.740 114.759, 470.366 114.381 L 424.233 113.692 423.372 136.596 M 506.833 141.447 C 488.483 145.468, 471.325 157.087, 465.404 169.500 C 459.873 181.098, 465.040 190.231, 477.134 190.231 C 482.294 190.231, 483.822 189.300, 496.500 178.435 C 503.878 172.112, 515.591 165, 518.628 165 C 526.562 165, 522.223 173.492, 495.630 210 C 478.793 233.116, 471.494 243.880, 469.626 248.354 C 468.740 250.473, 467.933 255.281, 467.832 259.039 C 467.673 264.948, 468.010 266.417, 470.325 269.915 C 474.391 276.060, 479.129 278.016, 489.710 277.920 C 494.545 277.877, 502.100 277.480, 506.500 277.040 C 510.900 276.599, 519.900 275.736, 526.500 275.123 C 547.605 273.161, 553.512 271.120, 554.581 265.421 C 555.437 260.857, 553.919 257.549, 549.770 254.936 C 546.174 252.670, 543.989 252.675, 519.264 254.995 C 512.534 255.626, 506.085 255.998, 504.932 255.821 C 502.926 255.514, 502.969 255.318, 505.949 251.216 C 521.352 230.016, 545.742 192.747, 549.860 184.117 C 553.161 177.201, 553.494 175.718, 553.488 168 C 553.482 160.808, 553.098 158.815, 550.991 155.047 C 544.251 142.996, 525.757 137.300, 506.833 141.447 M 108.476 395.364 C 103.320 397.665, 102.952 399.797, 103.490 424.294 C 103.759 436.507, 104.230 469, 104.539 496.500 C 104.847 524, 105.275 548.525, 105.489 551 C 105.704 553.475, 106.144 560.900, 106.466 567.500 C 108.132 601.608, 111.883 612.452, 123.500 616.743 C 130.946 619.494, 174.731 625.650, 203.304 627.963 C 230.750 630.185, 258.654 628.714, 268.382 624.532 C 280.183 619.458, 293.465 597.070, 308.516 556.881 C 320.074 526.019, 330.326 483.175, 331.569 460.540 C 331.872 455.018, 332.267 449.049, 332.447 447.276 C 332.946 442.347, 331.107 427.106, 329.338 421.500 C 325.991 410.899, 319.016 403.381, 310.474 401.168 C 308.288 400.602, 298.850 399.191, 289.500 398.032 C 268.430 395.420, 237.803 394.473, 166 394.212 C 122.074 394.052, 110.913 394.275, 108.476 395.364 M 403.067 402.677 L 399.938 405.500 399.790 468.500 C 399.552 570.066, 402.149 614.523, 409.122 628.229 C 412.314 634.503, 415.571 635.453, 437.500 636.502 C 444.100 636.817, 452.650 637.319, 456.500 637.616 C 475.358 639.073, 500.339 639.757, 528 639.575 C 561.652 639.353, 563.690 639.036, 570.863 632.896 C 577.836 626.927, 589.701 612.166, 604.541 591 C 610.337 582.733, 610.500 582.322, 610.500 576 C 610.500 563.229, 608.900 494.406, 608.489 489.500 C 608.259 486.750, 607.781 468.750, 607.427 449.500 C 606.760 413.279, 606.554 411.584, 602.352 407.848 C 600.389 406.102, 593.721 405.651, 553 404.508 C 520.565 403.598, 499.899 402.990, 485 402.505 C 477.025 402.246, 461.275 401.794, 450 401.500 C 438.725 401.206, 424.257 400.715, 417.848 400.409 L 406.196 399.853 403.067 402.677 M 704.968 408.878 L 701.810 412.036 702.388 422.268 C 702.705 427.896, 703.204 441.725, 703.495 453 C 705.424 527.715, 709.411 608.492, 712.056 626.446 C 713.101 633.542, 715.820 639.298, 718.906 640.950 C 720.650 641.883, 812.871 643.500, 864.336 643.500 L 892.171 643.500 894.460 640.840 C 896.520 638.447, 896.816 636.792, 897.415 624.340 C 897.781 616.728, 898.270 608.475, 898.501 606 C 898.732 603.525, 901.281 560.455, 904.167 510.290 C 907.776 447.559, 909.115 418.241, 908.457 416.392 C 906.309 410.361, 905.581 410.232, 870 409.575 C 852.125 409.246, 830.525 408.763, 822 408.502 C 799.603 407.818, 771.715 407.112, 737.813 406.370 L 708.126 405.720 704.968 408.878 M 120.369 470.750 C 121.457 566.189, 123.541 599.459, 128.550 601.381 C 133.012 603.093, 174.609 609.062, 196 611.059 C 224.635 613.733, 255.180 613.027, 261.931 609.536 C 273.387 603.612, 295.919 551.721, 307.442 504.725 C 314.072 477.687, 315.410 468.274, 315.436 448.500 C 315.457 432.013, 315.265 430.016, 313.156 424.746 C 311.890 421.581, 309.903 418.483, 308.741 417.862 C 305.783 416.279, 281.532 413.216, 262.500 412.022 C 253.700 411.470, 217.967 411.014, 183.094 411.009 L 119.688 411 120.369 470.750 M 416.143 475.619 C 416.328 538.852, 417.145 573.090, 418.945 593 C 420.145 606.270, 421.701 615.898, 422.981 617.970 C 423.743 619.202, 429.125 619.724, 459.500 621.517 C 487.646 623.178, 507.013 623.755, 530.500 623.632 C 554.492 623.505, 555.641 623.410, 559 621.280 C 564.449 617.823, 576.811 602.689, 588.946 584.618 L 594.239 576.736 593.559 541.118 C 593.185 521.528, 592.704 503.475, 592.490 501 C 592.277 498.525, 591.808 480.075, 591.448 460 C 591.088 439.925, 590.502 423.200, 590.146 422.833 C 589.301 421.960, 572.302 421.274, 507.500 419.497 C 497.050 419.211, 482.875 418.763, 476 418.503 C 469.125 418.243, 452.806 417.739, 439.735 417.384 L 415.970 416.738 416.143 475.619 M 719.007 427.139 C 719.018 435.530, 721.873 522.515, 722.448 532 C 722.732 536.675, 723.210 547.475, 723.512 556 C 723.813 564.525, 724.275 574.425, 724.537 578 C 724.800 581.575, 725.464 591.475, 726.011 600 C 726.559 608.525, 727.282 617.862, 727.619 620.750 L 728.230 626 751.365 626.018 C 764.089 626.028, 784.625 626.248, 797 626.508 C 809.375 626.767, 833.285 627.201, 850.132 627.471 L 880.765 627.963 881.409 618.232 C 882.091 607.927, 882.407 602.674, 883.981 575.500 C 885.236 553.848, 887.515 515.062, 890.445 465.500 C 891.713 444.050, 892.694 426.442, 892.625 426.371 C 892.556 426.299, 875.850 425.949, 855.500 425.592 C 835.150 425.236, 815.350 424.744, 811.500 424.500 C 807.650 424.256, 790.325 423.810, 773 423.510 C 755.675 423.209, 736.438 422.697, 730.250 422.371 L 719 421.779 719.007 427.139 M 190.492 425.604 C 184.902 428.521, 171.790 440.879, 166.201 448.500 C 164.184 451.250, 162.189 453.650, 161.767 453.833 C 161.345 454.017, 161 454.622, 161 455.179 C 161 455.736, 160.095 457.462, 158.990 459.014 C 153.404 466.860, 144.763 486.818, 142.979 496 C 142.498 498.475, 141.622 502.075, 141.033 504 C 139.344 509.515, 139.912 531.887, 141.941 539.750 C 146.256 556.477, 155.214 567.154, 169.500 572.596 C 179.063 576.238, 196.506 574.844, 208.515 569.477 C 210.173 568.736, 212.811 567.642, 214.377 567.047 C 215.944 566.451, 219.898 564.397, 223.166 562.482 C 230.072 558.435, 230.874 558.326, 234.255 560.986 C 238.237 564.118, 246.550 568, 249.277 568 C 250.734 568, 253.007 566.727, 254.772 564.922 C 259.851 559.727, 259.832 554.010, 254.708 545.680 L 251.743 540.861 254.680 537.680 C 256.296 535.931, 258.925 532.700, 260.523 530.500 C 262.120 528.300, 264.004 525.908, 264.708 525.184 C 267.116 522.710, 273.671 510.507, 276.087 504 C 278.164 498.406, 278.500 495.753, 278.500 484.968 C 278.500 472.145, 278.132 470.447, 273.124 460.166 C 270.563 454.907, 260.326 445.213, 254.349 442.385 C 245.404 438.153, 234.337 436.443, 224.133 437.715 C 219.385 438.307, 215.162 438.587, 214.750 438.337 C 214.338 438.087, 214 436.695, 214 435.245 C 214 431.903, 209.322 425.073, 206.227 423.896 C 201.854 422.234, 195.665 422.905, 190.492 425.604 M 512 440.883 C 495.434 446.221, 480.081 455.806, 467.055 468.945 C 455.474 480.625, 451 489.025, 451 499.087 C 451 515.594, 460.665 524.953, 496 542.663 C 513.742 551.555, 518.195 554.990, 514.784 557.155 C 511.862 559.008, 508.345 558.365, 488.688 552.379 C 484.392 551.070, 479.396 550, 477.586 550 C 470.504 550, 463.005 558.946, 462.995 567.407 C 462.984 576.189, 468.891 586.393, 476.896 591.424 C 484.142 595.978, 490.659 597.456, 503.500 597.456 C 521.203 597.456, 529.854 594.076, 540.367 583.054 C 547.862 575.196, 550 570.049, 550 559.862 C 550 544.499, 543.609 536.851, 522 526.354 C 514.575 522.748, 505.207 518.187, 501.182 516.220 C 493.988 512.704, 490 509.154, 490 506.266 C 490 502.722, 493.532 497.916, 498.912 494.143 C 504.864 489.968, 520.826 482, 523.239 482 C 523.988 482, 525.027 481.620, 525.550 481.156 C 526.072 480.692, 530.325 479.079, 535 477.571 C 550.013 472.730, 554 468.948, 554 459.546 C 554 441.213, 535.917 433.178, 512 440.883 M 761.238 446.666 C 760.544 446.946, 758.522 449.273, 756.745 451.837 C 746.060 467.257, 741.965 485.865, 741.746 520 C 741.609 541.250, 741.782 542.689, 746.979 563.500 C 748.077 567.900, 748.982 574.733, 748.988 578.685 C 749.002 587.250, 749.795 589.641, 754.022 593.868 C 758.938 598.784, 763.237 600.160, 774 600.260 C 783.983 600.353, 789.648 599.333, 802 595.218 C 826.075 587.199, 844.871 573.868, 856.723 556.404 C 862.130 548.438, 868.455 535.671, 870.579 528.434 C 872.708 521.184, 872.971 503.964, 871.075 496 C 866.616 477.275, 852.857 462.779, 833.885 456.820 C 827.552 454.830, 824.434 454.505, 812 454.532 C 800.007 454.558, 796.376 454.929, 791 456.680 C 787.425 457.844, 783.064 459.097, 781.308 459.465 C 778.234 460.109, 778.090 459.992, 777.434 456.317 C 777.059 454.218, 775.660 451.038, 774.325 449.250 C 772.167 446.359, 771.379 446.009, 767.199 446.079 C 764.615 446.122, 761.932 446.387, 761.238 446.666 M 219.942 474.948 C 211.871 477.397, 211.288 479.778, 216.500 489 C 218.425 492.406, 220 495.434, 220 495.730 C 220 496.710, 231.488 514.990, 232.107 514.995 C 233.130 515.004, 243 501.691, 243 500.302 C 243 499.586, 243.343 499, 243.762 499 C 245.119 499, 248.233 486.314, 247.482 483.844 C 246.472 480.520, 243.038 476.971, 239.282 475.371 C 235.856 473.911, 224.199 473.656, 219.942 474.948 M 178.246 491.013 C 172.442 503.228, 168.322 520.288, 169.230 528.346 C 170.013 535.293, 172.624 539.632, 177.097 541.422 C 179.266 542.290, 182.396 543, 184.052 543 C 189.628 543, 206 536.753, 206 534.626 C 206 534.120, 204.322 531.658, 202.272 529.156 C 197.033 522.762, 194.528 518.928, 190.899 511.746 C 189.163 508.311, 187.267 504.600, 186.684 503.500 C 186.102 502.400, 184.658 497.681, 183.477 493.013 L 181.328 484.526 178.246 491.013 M 795.500 487.462 C 784.121 489.545, 778.092 492.996, 775.939 498.661 C 774.638 502.082, 774.757 545.790, 776.088 553.885 C 778.029 565.680, 777.707 565, 781.354 565 C 783.178 565, 787.547 564.055, 791.063 562.901 C 811.198 556.291, 826.347 543.609, 834.543 526.500 C 837.036 521.297, 837.423 519.305, 837.459 511.500 C 837.496 503.330, 837.252 502.142, 834.814 498.612 C 830.377 492.189, 825.658 489.581, 814.500 487.382 C 806.274 485.761, 804.758 485.767, 795.500 487.462 M 17.405 664.685 C 16.253 664.913, 13.614 666.835, 11.542 668.957 C 4.830 675.831, 5.545 683.247, 13.939 693.825 C 21.137 702.895, 33.285 709.383, 59.500 718.158 C 66.100 720.367, 71.662 722.334, 71.859 722.530 C 72.057 722.725, 71.058 725.949, 69.638 729.693 C 63.252 746.542, 56.877 773.523, 53.380 798.500 C 51.100 814.788, 51.033 842.642, 53.246 853.927 C 56.130 868.626, 63.244 879.515, 73.485 884.903 C 81.280 889.005, 91.593 887.023, 96.597 880.462 C 100.813 874.935, 101.151 871.925, 99.462 855 C 96.312 823.431, 98.086 780.134, 104.116 741.411 L 106.310 727.322 124.465 724.192 C 144.239 720.784, 152.147 717.990, 156.429 712.901 C 162.143 706.111, 161.784 696.851, 155.566 690.633 C 151.048 686.115, 144.893 684.629, 115.500 680.961 C 83.861 677.013, 60.822 672.914, 42.695 668.007 C 29.160 664.343, 23.146 663.554, 17.405 664.685 M 932 717.979 C 906.756 724.512, 882.451 747.524, 871.608 775.158 C 865.246 791.372, 862.810 806.439, 864.024 822.069 C 865.052 835.299, 865.645 838.073, 869.096 845.786 C 873.554 855.755, 879.610 862.043, 889.655 867.136 L 898.261 871.500 909.880 871.462 C 933.309 871.385, 959.317 862.020, 987 843.693 C 996.563 837.363, 999.693 834.453, 1002.211 829.555 C 1006.205 821.788, 1002.799 810.717, 995.601 808.067 C 988.472 805.443, 982.219 807.044, 969.224 814.821 C 956.503 822.434, 934.063 830, 924.202 830 C 917.662 830, 911.546 827.575, 908.973 823.961 L 906.971 821.150 912.516 819.538 C 930.888 814.198, 956.507 795.067, 967.464 778.508 C 974.410 768.009, 976.500 761.763, 976.500 751.500 C 976.500 743.444, 976.197 741.952, 973.607 737.280 C 966.664 724.750, 956.464 718.074, 943.304 717.446 C 939.012 717.241, 933.925 717.481, 932 717.979 M 352.500 725.804 C 345.509 730.302, 341.215 738.225, 337.964 752.626 C 335.666 762.801, 331.245 807.326, 330.330 829.500 C 329.603 847.112, 330.923 853.629, 336.627 860.590 C 340.835 865.725, 346.122 868, 353.849 868 C 358.683 868, 360.450 867.475, 364.383 864.870 C 370.402 860.883, 374.542 853.781, 375.930 845.062 C 376.505 841.453, 377.680 834, 378.543 828.500 C 383.166 799.011, 393.125 773.543, 402.189 768.031 C 409.800 763.402, 417.184 769.890, 424.239 787.405 C 432.925 808.968, 441.279 823.140, 447.618 827.068 C 451.415 829.421, 458.193 829.590, 461.861 827.423 C 464.661 825.769, 471.166 816.644, 474.995 809 C 479.632 799.743, 492.661 781.396, 499.564 774.403 C 505.361 768.530, 507.711 766.866, 512.018 765.587 C 522.027 762.615, 529.387 767.181, 534.445 779.500 C 538.197 788.637, 539.851 799.030, 541.551 824.125 C 542.436 837.188, 543.709 848.758, 544.512 851.035 C 547.285 858.893, 556.007 863.692, 565.700 862.692 C 573.896 861.846, 579.425 856.922, 582.063 848.118 C 585.143 837.842, 584.007 805.200, 579.854 784.674 C 575.087 761.113, 563.554 742.021, 548.500 732.769 C 534.476 724.150, 515.547 724.787, 495.782 734.544 C 485.496 739.621, 480.433 743.423, 468.824 754.787 L 458.149 765.238 455.096 759.189 C 450.503 750.091, 439.807 739.764, 430.249 735.200 C 422.876 731.680, 422.015 731.502, 412.500 731.547 C 403.844 731.587, 401.723 731.951, 396.718 734.256 C 393.539 735.720, 388.992 738.511, 386.615 740.459 C 384.239 742.407, 382.039 744, 381.726 744 C 381.414 744, 380.843 742.538, 380.457 740.750 C 379.305 735.411, 376.239 730.284, 372.488 727.423 C 367.672 723.750, 357.031 722.888, 352.500 725.804 M 830.500 731.683 C 817.582 738.587, 808.994 752.903, 797.318 787 C 793.269 798.825, 788.533 812.274, 786.793 816.887 L 783.631 825.275 781.322 822.387 C 777.792 817.973, 768.405 796.429, 761.764 777.500 C 758.484 768.150, 754.745 759.101, 753.456 757.391 C 748.779 751.185, 739.433 749.207, 732.210 752.894 C 721.765 758.224, 719.969 766.894, 724.467 790.260 C 728.639 811.927, 736.240 831.513, 746.295 846.500 C 751.918 854.882, 765.722 868.319, 771.955 871.477 C 782.239 876.689, 793.385 875.723, 802.754 868.808 C 815.531 859.379, 825.179 842.050, 842.455 797.500 C 846.720 786.500, 852.470 772.908, 855.233 767.294 C 859.826 757.960, 860.216 756.619, 859.799 751.589 C 858.854 740.194, 848.804 729.961, 838.637 730.040 C 835.812 730.062, 832.150 730.802, 830.500 731.683 M 157.251 744.491 C 143.040 750.667, 128.253 768.689, 122.047 787.397 C 116.799 803.215, 116.930 821.614, 122.373 833.504 C 125.630 840.618, 134.857 850.301, 141.404 853.473 C 162.981 863.931, 192.688 853.603, 210.585 829.422 C 230.530 802.476, 229.513 770.458, 208.248 755.827 C 202.316 751.745, 193.944 749.203, 183.731 748.382 C 178.008 747.922, 174.131 747.001, 171.008 745.360 C 165.921 742.687, 161.973 742.438, 157.251 744.491 M 637.251 744.491 C 623.040 750.667, 608.253 768.689, 602.047 787.397 C 596.799 803.215, 596.930 821.614, 602.373 833.504 C 605.630 840.618, 614.857 850.301, 621.404 853.473 C 642.981 863.931, 672.688 853.603, 690.585 829.422 C 710.530 802.476, 709.513 770.458, 688.248 755.827 C 682.316 751.745, 673.944 749.203, 663.731 748.382 C 658.008 747.922, 654.131 747.001, 651.008 745.360 C 645.921 742.687, 641.973 742.438, 637.251 744.491 M 936.491 763.094 C 930.733 766.123, 924.436 772.472, 919.224 780.500 C 915.338 786.486, 910 796.937, 910 798.559 C 910 799.803, 925.421 788.484, 930.096 783.809 C 936.923 776.982, 943.177 767.277, 942.795 764.103 C 942.398 760.805, 941.204 760.614, 936.491 763.094 M 166.311 784.946 C 157.799 788.810, 152.356 801.598, 153.161 815.840 C 153.670 824.858, 155.768 827.514, 162.177 827.258 C 175.688 826.720, 191.109 811.101, 191.310 797.752 C 191.398 791.935, 189.125 788.520, 183.014 785.289 C 177.734 782.497, 171.966 782.378, 166.311 784.946 M 646.311 784.946 C 637.799 788.810, 632.356 801.598, 633.161 815.840 C 633.670 824.858, 635.768 827.514, 642.177 827.258 C 655.688 826.720, 671.109 811.101, 671.310 797.752 C 671.398 791.935, 669.125 788.520, 663.014 785.289 C 657.734 782.497, 651.966 782.378, 646.311 784.946" stroke="none" fill="#fffcfc" fill-rule="evenodd"/><path d="" stroke="none" fill="#fcfcfc" fill-rule="evenodd"/></svg>