<svg xmlns="http://www.w3.org/2000/svg" width="132" height="105" viewBox="0 0 132 105" version="1.1"><path d="M 30.500 14.047 C 23.298 15, 19.710 16.279, 14.833 19.634 C 11.748 21.757, 11.067 22.898, 10.544 26.828 C 9.682 33.301, 14.951 45.937, 21.565 53.259 C 24.169 56.142, 27.031 59.690, 27.925 61.144 C 28.819 62.599, 32.914 67.485, 37.025 72.003 C 41.136 76.521, 44.649 80.616, 44.831 81.102 C 45.250 82.220, 58.980 93.384, 61.778 94.881 C 67.917 98.167, 72.779 94.973, 83.223 80.794 C 92.419 68.308, 95.911 62.907, 101.518 52.500 C 103.592 48.650, 106.959 43.025, 109 40 C 116.360 29.092, 117.193 26.207, 114.490 20.980 C 112.339 16.821, 110.039 15.932, 100.201 15.457 C 95.415 15.227, 85.200 14.583, 77.500 14.028 C 61.494 12.873, 39.310 12.882, 30.500 14.047 M 54.741 35.748 C 40.981 36.057, 40.981 36.057, 43.491 40.770 C 44.871 43.363, 46 46.165, 46 46.998 C 46 48.507, 64.442 68.038, 65.790 67.957 C 66.952 67.888, 73.202 59.251, 80.839 47.166 C 84.777 40.932, 88 35.645, 88 35.416 C 88 35.187, 83.612 35.099, 78.250 35.219 C 72.888 35.340, 62.308 35.578, 54.741 35.748" stroke="none" fill="#fffcfc" fill-rule="evenodd"/><path d="" stroke="none" fill="#fcfcfc" fill-rule="evenodd"/></svg>