<svg xmlns="http://www.w3.org/2000/svg" width="1000" height="1000" viewBox="0 0 1000 1000" version="1.1"><path d="M 365.774 220.116 C 348.935 221.494, 328.050 229.757, 313.325 240.868 C 304.159 247.784, 282.153 268.102, 280.285 271.373 C 278.715 274.124, 278.673 278.273, 280.200 279.800 C 282.079 281.679, 285.130 281.219, 285.719 278.968 C 286.011 277.851, 287.944 275.713, 290.015 274.218 C 292.085 272.723, 300.598 265.991, 308.933 259.258 C 326.093 245.394, 335.025 240.478, 350.628 236.309 C 359.456 233.950, 362.298 233.671, 377.500 233.669 C 392.776 233.666, 395.480 233.934, 404.163 236.307 C 422.112 241.213, 433.034 247.613, 442.962 259.042 C 447.316 264.054, 448.127 265.503, 446.962 266.182 C 437.104 271.928, 428.176 277.577, 422.168 281.871 C 418.135 284.754, 413.860 287.499, 412.668 287.973 C 409.258 289.327, 404.151 294.551, 403.430 297.424 C 402.540 300.969, 404.705 305.796, 407.933 307.466 C 409.392 308.220, 413.314 309.332, 416.650 309.937 C 422.625 311.020, 431.370 313.849, 454 322.019 C 468.707 327.328, 486.310 331.985, 491.703 331.994 C 496.865 332.001, 500.441 330.465, 501.838 327.640 C 503.358 324.566, 508.825 306.833, 510.972 298.017 C 511.978 293.883, 514.053 287.806, 515.582 284.514 C 517.506 280.373, 518.575 276.060, 519.051 270.514 C 519.430 266.106, 520.249 261.233, 520.870 259.685 C 522.778 254.932, 522.291 246.639, 519.927 243.635 C 517.386 240.404, 511.731 240.013, 508.564 242.850 C 507.429 243.867, 503.800 245.436, 500.500 246.336 C 497.200 247.236, 488.225 250.376, 480.557 253.314 C 466.613 258.656, 466.613 258.656, 456.557 248.538 C 447.578 239.504, 445.375 237.866, 436 233.250 C 424.606 227.640, 410.887 222.826, 400.850 220.916 C 393.292 219.478, 377.870 219.126, 365.774 220.116 M 45.882 340.750 C 45.816 341.712, 45.816 342.837, 45.882 343.250 C 45.947 343.663, 45.550 344, 45 344 C 44.450 344, 44 343.325, 44 342.500 C 44 340.781, 40.782 340.511, 38.004 341.998 C 36.433 342.839, 36.288 343.510, 37.087 346.248 C 37.923 349.115, 37.737 349.741, 35.518 351.538 C 32.616 353.886, 32.501 354.358, 34.368 356.225 C 35.121 356.978, 36.072 358.653, 36.483 359.948 C 37.089 361.857, 36.928 362.186, 35.631 361.689 C 33.762 360.971, 31.341 364.474, 32.997 365.498 C 33.549 365.839, 34 367.415, 34 369 C 34 370.585, 34.351 372.099, 34.780 372.364 C 35.209 372.629, 35.660 376.207, 35.782 380.315 C 35.957 386.183, 35.683 387.908, 34.502 388.361 C 32.573 389.101, 32.596 390.453, 34.571 392.429 C 36 393.857, 35.994 394, 34.504 394 C 33.252 394, 33.040 394.531, 33.604 396.250 C 34.010 397.488, 34.293 399.297, 34.232 400.272 C 34.171 401.246, 34.582 401.759, 35.145 401.411 C 35.761 401.030, 36.035 401.717, 35.834 403.139 C 35.607 404.742, 34.938 405.406, 33.750 405.206 C 32.788 405.045, 32 405.457, 32 406.123 C 32 406.789, 32.279 407.055, 32.619 406.714 C 33.507 405.827, 36 408.566, 36 410.429 C 36 411.293, 35.325 412, 34.500 412 C 32.534 412, 32.604 412.624, 35.012 416.519 C 37.160 419.994, 36.763 423.208, 34.240 422.768 C 31.895 422.358, 31.744 424.348, 33.940 426.705 C 35.565 428.449, 35.655 428.918, 34.455 429.379 C 32.525 430.120, 32.619 431.472, 34.750 433.623 C 36.291 435.177, 36.303 435.313, 34.848 434.763 C 32.576 433.903, 31.870 434.888, 33.105 437.195 C 33.803 438.501, 33.810 439.523, 33.127 440.347 C 32.527 441.070, 32.470 442.142, 32.987 442.980 C 33.492 443.797, 33.467 445.127, 32.928 446.135 C 32.334 447.244, 32.359 448.104, 32.997 448.498 C 33.549 448.839, 34 450.246, 34 451.625 C 34 453.003, 34.501 455.068, 35.114 456.212 C 36.006 457.879, 35.906 458.473, 34.614 459.196 C 32.611 460.317, 32.573 461.431, 34.474 463.331 C 35.773 464.631, 35.773 464.873, 34.474 465.371 C 32.551 466.110, 32.608 467.465, 34.650 469.507 C 36.113 470.970, 36.120 471.119, 34.715 470.828 C 32.274 470.322, 32.267 473.124, 34.703 475.561 C 36.308 477.165, 36.279 477.223, 34.203 476.565 C 32.822 476.126, 32 476.286, 32 476.992 C 32 477.611, 32.450 477.840, 33 477.500 C 33.550 477.160, 34 477.385, 34 478 C 34 478.615, 34.488 478.817, 35.084 478.448 C 35.774 478.021, 36.047 478.636, 35.834 480.139 C 35.607 481.742, 34.938 482.406, 33.750 482.206 C 32.787 482.045, 32 482.409, 32 483.015 C 32 483.622, 32.337 483.914, 32.750 483.664 C 33.163 483.414, 34.042 483.797, 34.705 484.515 C 35.653 485.540, 35.599 485.940, 34.455 486.379 C 32.515 487.123, 32.604 489.679, 34.609 490.801 C 36.047 491.606, 36.053 491.766, 34.669 492.297 C 33.420 492.776, 33.201 494.196, 33.541 499.601 C 33.774 503.292, 34.215 507.103, 34.523 508.071 C 34.830 509.040, 34.718 510.057, 34.273 510.331 C 33.828 510.606, 33.514 514.582, 33.575 519.166 C 33.635 523.749, 33.328 528.483, 32.892 529.683 C 32.398 531.045, 32.512 532.004, 33.193 532.231 C 33.975 532.492, 33.960 533.206, 33.141 534.737 C 32.510 535.915, 32.381 537.117, 32.853 537.409 C 33.325 537.701, 33.557 540.653, 33.370 543.970 C 33.133 548.146, 33.393 550, 34.214 550 C 35.121 550, 35.118 550.282, 34.200 551.200 C 32.648 552.752, 32.648 556, 34.200 556 C 35.133 556, 35.133 556.267, 34.200 557.200 C 32.499 558.901, 32.713 561.044, 34.750 562.714 C 35.712 563.503, 35.898 563.839, 35.163 563.461 C 34.177 562.955, 33.886 563.527, 34.056 565.637 C 34.183 567.212, 33.958 569.266, 33.555 570.202 C 33.152 571.138, 33.184 572.488, 33.625 573.202 C 34.066 573.915, 34.296 575.737, 34.138 577.249 C 33.925 579.275, 34.293 580, 35.532 580 C 36.761 580, 37.006 580.471, 36.442 581.750 C 36.018 582.712, 35.779 586.987, 35.912 591.250 C 36.102 597.354, 35.855 599, 34.748 599 C 33.637 599, 33.375 600.830, 33.494 607.750 C 33.577 612.563, 33.274 617.260, 32.820 618.189 C 32.340 619.172, 32.414 620.138, 32.997 620.498 C 33.549 620.839, 34 622.351, 34 623.859 C 34 625.367, 34.562 627.172, 35.250 627.871 C 36.252 628.891, 36.205 629.079, 35.011 628.821 C 33.859 628.573, 33.479 629.686, 33.332 633.750 C 33.164 638.387, 33.373 639, 35.130 639 C 36.223 639, 36.835 639.457, 36.490 640.016 C 36.144 640.575, 35.443 640.774, 34.931 640.457 C 34.419 640.141, 34 641.007, 34 642.382 C 34 643.757, 34.486 645.183, 35.081 645.550 C 35.676 645.918, 35.911 647.220, 35.603 648.444 C 35.296 649.668, 35.483 652.196, 36.018 654.062 C 37.084 657.779, 36.486 661.091, 34.814 660.730 C 33.042 660.347, 32.809 662.666, 34.455 664.313 C 36.278 666.135, 36.444 667.099, 34.875 666.750 C 33.049 666.344, 32.784 668.641, 34.463 670.320 C 35.421 671.278, 35.629 672.111, 35.008 672.495 C 34.453 672.838, 34 672.615, 34 672 C 34 671.385, 33.554 671.157, 33.010 671.494 C 32.387 671.879, 32.479 672.603, 33.260 673.448 C 33.942 674.186, 34.837 674.586, 35.250 674.336 C 35.662 674.086, 36 674.828, 36 675.985 C 36 677.281, 35.450 677.975, 34.566 677.794 C 33.777 677.632, 33.107 677.950, 33.078 678.500 C 32.977 680.382, 34.134 683, 35.067 683 C 35.580 683, 36 684.623, 36 686.607 C 36 689.291, 35.641 690.076, 34.598 689.676 C 33.827 689.380, 32.954 689.380, 32.658 689.675 C 31.855 690.479, 34.331 692.810, 35.507 692.359 C 37.250 691.690, 36.211 713.302, 34.454 714.286 C 32.654 715.293, 32.610 716.462, 34.306 718.179 C 37.522 721.432, 36.880 726.658, 33.427 725.334 C 32.642 725.032, 32 725.065, 32 725.407 C 32 726.415, 34.417 730.439, 35.500 731.235 C 36.065 731.650, 35.738 731.976, 34.750 731.985 C 32.713 732.003, 32.697 732.072, 33.957 735.387 C 34.732 737.427, 34.638 737.798, 33.457 737.345 C 31.610 736.636, 31.641 737.941, 33.532 740.441 C 35.416 742.932, 35.403 744.092, 33.500 743.362 C 32.675 743.045, 32 743.311, 32 743.952 C 32 744.593, 32.450 744.840, 33 744.500 C 33.550 744.160, 34 744.344, 34 744.910 C 34 745.475, 34.675 745.678, 35.500 745.362 C 37.478 744.603, 37.478 747.359, 35.500 749 C 34.382 749.928, 34 749.944, 34 749.063 C 34 748.414, 33.550 748.160, 33 748.500 C 32.450 748.840, 32 749.568, 32 750.118 C 32 750.668, 32.450 750.840, 33 750.500 C 33.550 750.160, 34 750.385, 34 751 C 34 751.615, 34.450 751.840, 35 751.500 C 35.550 751.160, 36 751.760, 36 752.834 C 36 753.908, 35.325 755.045, 34.500 755.362 C 32.601 756.090, 32.592 757.449, 34.474 759.331 C 35.773 760.631, 35.773 760.873, 34.474 761.371 C 32.551 762.110, 32.608 763.465, 34.650 765.507 C 36.113 766.970, 36.120 767.119, 34.715 766.828 C 32.251 766.318, 32.272 769.122, 34.750 771.623 C 36.291 773.177, 36.303 773.313, 34.848 772.763 C 33.939 772.419, 32.954 772.380, 32.658 772.675 C 31.913 773.420, 34.325 775.896, 35.250 775.336 C 35.662 775.086, 36 775.857, 36 777.048 C 36 778.495, 35.535 779.035, 34.598 778.676 C 33.827 778.380, 32.954 778.380, 32.658 778.675 C 31.913 779.420, 34.325 781.896, 35.250 781.336 C 35.662 781.086, 36 784.059, 36 787.941 C 36 793.055, 35.656 794.931, 34.750 794.750 C 33.850 794.570, 33.591 795.897, 33.825 799.487 C 34.004 802.230, 34.498 804.705, 34.924 804.987 C 36.266 805.877, 35.802 815, 34.414 815 C 33.540 815, 33.259 816.437, 33.486 819.750 C 33.665 822.362, 33.321 825.097, 32.720 825.826 C 31.965 826.744, 31.951 827.360, 32.676 827.826 C 34.043 828.705, 34.926 834.928, 33.785 835.633 C 33.300 835.933, 33.413 836.793, 34.038 837.545 C 35.412 839.201, 34.320 841.337, 32.463 840.624 C 30.574 839.899, 30.167 841.915, 31.378 845.994 C 32.582 850.045, 33.796 851.195, 36.250 850.607 C 37.286 850.358, 38 850.761, 38 851.594 C 38 852.483, 36.920 853, 35.060 853 C 32.060 853, 31.965 853.273, 32.886 859.238 C 32.949 859.644, 33.788 859.903, 34.750 859.814 C 37.926 859.520, 43 861.226, 43 862.588 C 43 863.645, 45.216 863.847, 53.546 863.548 C 59.346 863.340, 64.633 862.747, 65.296 862.230 C 65.958 861.714, 73.079 861.198, 81.119 861.084 C 93.576 860.907, 95.827 861.107, 96.338 862.438 C 97.139 864.525, 99.655 864.422, 100.920 862.250 C 101.486 861.279, 101.953 861.056, 101.970 861.750 C 102.002 863.099, 107 863.534, 107 862.188 C 107 861.397, 110.930 861.208, 137.237 860.731 C 148.083 860.534, 149.939 860.723, 149.737 862 C 149.412 864.058, 160.583 864.274, 162.608 862.249 C 163.797 861.060, 164 861.103, 164 862.545 C 164 863.837, 164.528 864.068, 166.250 863.530 C 167.488 863.144, 169.297 862.839, 170.272 862.853 C 171.246 862.867, 171.759 862.418, 171.411 861.855 C 171.030 861.239, 171.717 860.965, 173.139 861.166 C 174.742 861.393, 175.406 862.062, 175.206 863.250 C 175.045 864.212, 175.457 865, 176.123 865 C 176.789 865, 177.055 864.721, 176.714 864.381 C 176.374 864.040, 176.687 863.170, 177.411 862.446 C 178.335 861.522, 182.526 861.063, 191.485 860.906 C 202.303 860.716, 204.379 860.926, 205.140 862.285 C 205.788 863.444, 207.211 863.809, 210.268 863.604 C 212.596 863.448, 215.260 863.699, 216.189 864.163 C 217.187 864.660, 218.132 864.595, 218.498 864.003 C 218.839 863.451, 220.415 863, 222 863 C 223.585 863, 225.102 862.644, 225.371 862.208 C 225.641 861.773, 230.173 861.306, 235.443 861.172 C 242.731 860.986, 244.962 861.229, 244.762 862.190 C 244.618 862.884, 245.512 863.607, 246.750 863.796 C 248.273 864.028, 249 863.632, 249 862.570 C 249 861.706, 249.477 861, 250.059 861 C 250.641 861, 250.840 861.450, 250.500 862 C 250.149 862.567, 250.990 863, 252.441 863 C 254.092 863, 255 862.447, 255 861.441 C 255 860.584, 255.457 860.165, 256.016 860.510 C 256.575 860.856, 256.772 861.560, 256.453 862.076 C 255.663 863.355, 258.592 864.370, 260.202 863.375 C 260.915 862.934, 262.737 862.704, 264.249 862.862 C 266.001 863.046, 267.011 862.669, 267.030 861.825 C 267.052 860.901, 267.342 860.980, 267.989 862.087 C 268.801 863.476, 272.227 863.661, 295.628 863.577 C 316.523 863.502, 322.433 863.200, 322.771 862.188 C 323.092 861.225, 323.517 861.324, 324.430 862.574 C 325.422 863.930, 326.064 864.036, 327.768 863.124 C 329.347 862.279, 330.059 862.286, 330.594 863.152 C 331.038 863.870, 330.871 864.038, 330.155 863.595 C 329.520 863.203, 329 863.350, 329 863.922 C 329 865.167, 331.805 865.887, 338.350 866.320 C 342.045 866.564, 343.342 866.267, 343.794 865.070 C 344.561 863.042, 346.077 861.548, 348.172 860.755 C 349.289 860.332, 349.662 859.424, 349.295 858.019 C 348.923 856.598, 349.173 856.010, 350.063 856.207 C 352.498 856.748, 352.285 853.045, 349.824 852.059 C 347.642 851.184, 347.628 851.123, 349.583 851.063 C 350.729 851.029, 351.951 850.716, 352.298 850.369 C 353.351 849.316, 351.047 846.004, 349.215 845.937 C 347.943 845.890, 348.081 845.640, 349.750 844.969 C 352.052 844.044, 352.763 841.589, 351.038 840.524 C 350.432 840.149, 350.422 839.020, 351.010 837.473 C 352.054 834.727, 351.381 832.016, 349.643 831.970 C 349.014 831.953, 349.288 831.481, 350.250 830.920 C 352.396 829.670, 352.456 828.599, 350.492 826.635 C 349.558 825.701, 349.368 824.891, 349.992 824.505 C 350.547 824.162, 351 824.385, 351 825 C 351 825.615, 351.446 825.843, 351.990 825.506 C 353.326 824.680, 350.882 822.108, 349.328 822.704 C 348.557 823, 348.336 822.430, 348.694 821.063 C 349.298 818.753, 351 817.230, 351 819 C 351 819.615, 351.446 819.843, 351.990 819.506 C 352.613 819.121, 352.521 818.397, 351.740 817.552 C 351.058 816.814, 350.163 816.414, 349.750 816.664 C 349.337 816.914, 349 816.003, 349 814.641 C 349 813.278, 348.744 811.498, 348.432 810.684 C 348.120 809.870, 348.807 808.326, 349.959 807.253 C 351.969 805.380, 351.927 802, 349.893 802 C 349.402 802, 349 800.405, 349 798.456 C 349 795.636, 349.357 794.972, 350.750 795.206 C 351.878 795.396, 352.376 794.967, 352.150 794 C 351.373 790.667, 351.384 785.401, 352.170 783.811 C 352.653 782.834, 352.596 781.868, 352.035 781.522 C 351.502 781.192, 351.332 779.590, 351.658 777.961 C 352.035 776.073, 351.839 775, 351.117 775 C 350.306 775, 350.334 774.438, 351.216 773.025 C 352.176 771.488, 352.184 770.784, 351.249 769.849 C 350.377 768.977, 350.346 768.288, 351.136 767.337 C 351.737 766.612, 351.886 765.237, 351.468 764.263 C 351.053 763.293, 350.807 761.307, 350.921 759.849 C 351.036 758.391, 350.719 756.944, 350.217 756.634 C 349.715 756.324, 349.212 751.217, 349.099 745.285 C 348.986 739.353, 348.847 733.825, 348.789 733 C 348.500 728.844, 349.110 726.022, 350.250 726.250 C 351.931 726.586, 351.648 712.579, 349.909 709.329 C 348.836 707.325, 348.906 706.789, 350.379 705.712 C 352.193 704.386, 351.706 701, 349.702 701 C 349.106 701, 349.436 700.402, 350.435 699.671 C 351.832 698.650, 352.023 697.897, 351.262 696.421 C 350.716 695.364, 350.493 693.875, 350.765 693.111 C 351.084 692.215, 350.828 691.988, 350.046 692.472 C 349.198 692.996, 348.933 692.510, 349.166 690.861 C 349.393 689.258, 350.062 688.594, 351.250 688.794 C 352.213 688.955, 353 688.543, 353 687.877 C 353 687.211, 352.721 686.945, 352.381 687.286 C 351.493 688.173, 349 685.434, 349 683.571 C 349 682.707, 349.675 682, 350.500 682 C 352.393 682, 352.403 680.915, 350.532 678.441 C 348.844 676.210, 348.523 671.413, 350 670.500 C 350.550 670.160, 351 670.385, 351 671 C 351 671.615, 351.450 671.840, 352 671.500 C 352.550 671.160, 353 670.432, 353 669.882 C 353 669.332, 352.550 669.160, 352 669.500 C 351.450 669.840, 351 669.615, 351 669 C 351 668.385, 350.550 668.160, 350 668.500 C 349.369 668.890, 349 666.510, 349 662.059 C 349 656.643, 349.329 655, 350.414 655 C 351.512 655, 351.757 653.634, 351.513 648.870 C 351.340 645.499, 350.816 642.461, 350.349 642.120 C 349.882 641.779, 349.383 640.017, 349.240 638.204 C 349.048 635.772, 349.359 634.985, 350.424 635.204 C 351.219 635.367, 351.893 635.050, 351.922 634.500 C 352.031 632.473, 350.833 630, 349.741 630 C 349.123 630, 349.447 629.393, 350.462 628.652 C 351.476 627.910, 352.041 626.876, 351.719 626.354 C 351.396 625.832, 351.527 624.766, 352.009 623.986 C 352.531 623.141, 352.476 622.073, 351.873 621.347 C 351.188 620.522, 351.207 619.481, 351.933 618.125 C 352.643 616.799, 352.666 615.912, 352.003 615.502 C 351.451 615.161, 351 613.585, 351 612 C 351 610.415, 350.514 608.817, 349.919 608.450 C 349.324 608.082, 349.079 606.818, 349.373 605.641 C 349.667 604.463, 349.513 601.758, 349.032 599.629 C 348.051 595.294, 348.568 593, 350.527 593 C 351.472 593, 351.748 591.670, 351.514 588.250 C 351.335 585.638, 351.622 582.973, 352.151 582.328 C 353.306 580.924, 351.170 577, 349.251 577 C 348.230 577, 348.228 576.569, 349.242 574.789 C 349.934 573.572, 351.078 571.950, 351.785 571.183 C 352.615 570.281, 352.734 569.384, 352.121 568.644 C 351.111 567.425, 351.342 553.873, 352.402 552.158 C 352.749 551.597, 352.575 550.856, 352.016 550.510 C 351.457 550.165, 351 548.634, 351 547.108 C 351 545.582, 350.663 543.996, 350.250 543.584 C 348.862 542.196, 349.167 534.150, 350.629 533.589 C 352.497 532.872, 352.352 531.712, 350.062 529.072 C 347.811 526.476, 348.690 522.304, 351.384 522.794 C 352.273 522.955, 353 522.591, 353 521.985 C 353 521.378, 352.550 521.160, 352 521.500 C 351.450 521.840, 351 521.615, 351 521 C 351 520.385, 350.581 520.141, 350.069 520.457 C 349.557 520.774, 348.881 520.616, 348.566 520.107 C 347.695 518.697, 349.035 516, 350.607 516 C 352.482 516, 352.355 515.056, 350 511.500 C 347.650 507.951, 347.518 507, 349.378 507 C 351.416 507, 353.870 503.799, 352.250 503.254 C 351.563 503.023, 351 501.547, 351 499.976 C 351 498.404, 350.630 496.889, 350.178 496.610 C 349.726 496.331, 349.255 491.017, 349.130 484.801 C 349.006 478.586, 348.855 472.825, 348.794 472 C 348.350 465.915, 349.137 459.027, 350.250 459.250 C 351.150 459.430, 351.409 458.103, 351.175 454.513 C 350.996 451.770, 350.502 449.295, 350.076 449.013 C 349.651 448.731, 349.257 446.475, 349.201 444 C 349.146 441.525, 348.965 438.611, 348.800 437.524 C 348.615 436.308, 349.077 435.539, 350 435.524 C 350.825 435.511, 351.500 434.600, 351.500 433.500 C 351.500 432.209, 350.880 431.549, 349.750 431.639 C 348.787 431.715, 348 431.105, 348 430.282 C 348 429.410, 348.584 429.010, 349.401 429.324 C 350.248 429.649, 351.013 429.058, 351.333 427.834 C 352.041 425.128, 351.133 423, 349.271 423 C 348.059 423, 347.997 422.709, 348.960 421.548 C 349.623 420.749, 349.885 419.212, 349.542 418.132 C 349.199 417.052, 349.387 415.879, 349.959 415.525 C 350.532 415.171, 351 415.385, 351 416 C 351 416.615, 351.450 416.840, 352 416.500 C 352.550 416.160, 353 415.432, 353 414.882 C 353 414.332, 352.550 414.160, 352 414.500 C 351.450 414.840, 351 414.615, 351 414 C 351 413.385, 350.550 413.160, 350 413.500 C 349.450 413.840, 349 413.690, 349 413.166 C 349 412.642, 349.615 411.978, 350.366 411.690 C 352.090 411.028, 351.799 400.112, 350.029 399.018 C 349.162 398.482, 349.269 398.111, 350.416 397.671 C 352.445 396.892, 352.425 395.567, 350.350 393.493 C 348.887 392.030, 348.880 391.881, 350.285 392.172 C 352.699 392.672, 352.738 389.881, 350.350 387.493 C 349.127 386.270, 349.062 385.927, 350.100 386.165 C 352.567 386.731, 352.720 383.863, 350.350 381.493 C 349.085 380.227, 349.033 379.920, 350.130 380.172 C 352.588 380.736, 352.723 377.866, 350.350 375.493 C 348.818 373.960, 348.827 373.867, 350.483 374.172 C 352.026 374.456, 352.305 373.594, 352.564 367.733 C 352.785 362.735, 352.554 361.152, 351.681 361.675 C 350.811 362.197, 350.781 362.004, 351.566 360.942 C 352.153 360.149, 352.447 357.138, 352.220 354.251 C 351.840 349.426, 351.533 348.872, 348.404 347.387 C 346.532 346.499, 345 345.238, 345 344.586 C 345 343.897, 343.533 343.400, 341.500 343.400 C 339.204 343.400, 338 343.871, 338 344.770 C 338 345.618, 337.144 346.017, 335.750 345.820 C 334.248 345.606, 333.598 344.918, 333.794 343.750 C 333.955 342.788, 333.591 342, 332.985 342 C 332.378 342, 332.160 342.450, 332.500 343 C 332.840 343.550, 332.615 344, 332 344 C 331.385 344, 331.160 344.450, 331.500 345 C 331.840 345.550, 331.690 346, 331.166 346 C 330.642 346, 329.981 345.392, 329.695 344.649 C 329.305 343.632, 327.020 343.352, 320.479 343.516 C 315.696 343.637, 311.493 344.132, 311.141 344.618 C 310.245 345.851, 304.192 346.119, 303.474 344.957 C 303.148 344.431, 303.385 344, 304 344 C 304.615 344, 304.843 343.554, 304.506 343.010 C 304.121 342.387, 303.397 342.479, 302.552 343.260 C 301.814 343.942, 301.414 344.837, 301.664 345.250 C 301.914 345.663, 296.241 346, 289.059 346 C 279.277 346, 276.063 345.692, 276.250 344.774 C 276.387 344.099, 275.488 343.393, 274.250 343.204 C 272.623 342.956, 271.992 343.365, 271.970 344.680 C 271.941 346.395, 271.880 346.399, 270.920 344.750 C 269.487 342.289, 266 342.466, 266 345 C 266 346.178, 265.333 347, 264.378 347 C 263.005 347, 262.959 346.754, 264.080 345.403 C 265.247 343.997, 265.053 343.835, 262.453 344.047 C 260.829 344.179, 258.707 343.947, 257.737 343.532 C 256.738 343.103, 255.369 343.279, 254.576 343.937 C 253.619 344.731, 252.974 344.767, 252.530 344.049 C 251.427 342.263, 248.976 342.891, 248.131 345.176 C 247.331 347.336, 247.321 347.337, 246.784 345.283 C 246.274 343.334, 245.655 343.233, 236.051 343.543 C 230.142 343.734, 225.259 344.370, 224.430 345.058 C 223.286 346.007, 223 345.908, 223 344.561 C 223 343.123, 222.308 342.978, 218.250 343.565 C 215.638 343.943, 212.912 344.722, 212.194 345.295 C 211.233 346.063, 210.968 345.963, 211.194 344.919 C 211.632 342.886, 201.931 343.540, 200.317 345.652 C 199.612 346.574, 198.617 346.881, 197.857 346.412 C 197.155 345.978, 190.212 345.744, 182.428 345.892 C 170.288 346.122, 168.189 345.936, 167.669 344.580 C 166.911 342.605, 165.574 342.569, 163.669 344.474 C 162.369 345.773, 162.127 345.773, 161.629 344.474 C 160.890 342.551, 159.535 342.608, 157.493 344.650 C 156.270 345.873, 155.927 345.938, 156.165 344.900 C 156.714 342.511, 153.877 342.266, 151.635 344.508 C 150.701 345.442, 149.891 345.632, 149.505 345.008 C 149.162 344.453, 149.385 344, 150 344 C 150.615 344, 150.843 343.554, 150.506 343.010 C 150.121 342.387, 149.397 342.479, 148.552 343.260 C 147.814 343.942, 147.414 344.837, 147.664 345.250 C 147.914 345.663, 147.641 346, 147.059 346 C 146.477 346, 146 345.373, 146 344.607 C 146 343.098, 143.571 341.762, 142.598 342.736 C 142.269 343.065, 139.475 343.470, 136.389 343.637 C 133.303 343.803, 130.265 344.322, 129.639 344.789 C 129.013 345.256, 124.329 345.745, 119.231 345.876 C 112.121 346.058, 110.025 345.814, 110.231 344.830 C 110.379 344.125, 109.487 343.393, 108.250 343.204 C 106.514 342.939, 106 343.347, 106 344.989 C 106 346.177, 105.551 346.840, 104.984 346.490 C 104.425 346.144, 104.226 345.443, 104.543 344.931 C 104.859 344.419, 103.966 344, 102.559 344 C 100.875 344, 100 344.550, 100 345.607 C 100 346.662, 99.456 347.005, 98.418 346.607 C 97.548 346.273, 96.648 346, 96.418 346 C 96.188 346, 96 345.295, 96 344.433 C 96 343.266, 95.425 343.045, 93.750 343.567 C 92.513 343.954, 91.169 344.771, 90.765 345.385 C 90.315 346.069, 90.025 345.782, 90.015 344.643 C 90.005 343.392, 89.511 342.984, 88.500 343.393 C 87.675 343.727, 86.320 344.275, 85.489 344.611 C 84.401 345.051, 84.151 344.771, 84.596 343.611 C 85.360 341.621, 84.126 341.590, 81.552 343.536 C 80.481 344.347, 78.797 344.753, 77.809 344.439 C 76.476 344.016, 76.168 344.273, 76.613 345.435 C 76.944 346.296, 76.716 347, 76.107 347 C 75.498 347, 75 346.380, 75 345.622 C 75 343.584, 71.799 341.130, 71.254 342.750 C 71.023 343.438, 69.543 344, 67.966 344 C 66.368 344, 64.700 344.714, 64.196 345.614 C 63.459 346.931, 62.895 347.014, 61.126 346.067 C 59.934 345.429, 58.509 345.185, 57.960 345.525 C 55.947 346.769, 50.213 343.984, 49.578 341.454 C 48.874 338.649, 46.060 338.113, 45.882 340.750 M 86.300 365.393 C 85.035 367.597, 78.241 368.988, 68.715 368.994 C 60.239 369, 59.967 368.930, 61 367 C 61.907 365.305, 61.760 365, 60.035 365 C 57.791 365, 57.678 365.819, 58.901 373.250 C 59.761 378.476, 59.113 379.173, 56.576 375.750 C 55.658 374.512, 55.245 374.167, 55.657 374.983 C 56.790 377.226, 56.886 385.337, 55.795 386.702 C 55.255 387.378, 55.184 388.910, 55.633 390.202 C 56.763 393.459, 56.695 398.368, 55.507 399.235 C 54.876 399.695, 54.962 399.975, 55.737 399.985 C 57.960 400.012, 59.658 406.148, 59.061 412 C 58.656 415.973, 58.084 417.500, 57 417.500 C 56.006 417.500, 55.405 418.681, 55.218 421 C 55.032 423.310, 55.239 424.046, 55.829 423.166 C 57.026 421.377, 57.800 423.449, 58.657 430.740 C 59.181 435.196, 59.050 436.149, 58.001 435.501 C 57.080 434.931, 56.930 435.078, 57.498 435.996 C 58.421 437.490, 59.786 461.001, 58.950 461.001 C 58.647 461, 57.936 460.536, 57.369 459.969 C 56.660 459.260, 56.476 459.886, 56.782 461.969 C 57.121 464.275, 56.841 465, 55.613 465 C 54.726 465, 54 465.450, 54 466 C 54 466.550, 54.498 467, 55.107 467 C 55.716 467, 55.946 467.698, 55.618 468.552 C 55.291 469.406, 55.423 469.857, 55.912 469.554 C 57.733 468.429, 59.727 482.802, 59.135 492.785 C 59.026 494.638, 58.669 494.893, 57.250 494.133 C 55.696 493.301, 55.521 493.689, 55.688 497.593 C 55.791 500.012, 56.156 502.443, 56.497 502.995 C 56.839 503.548, 56.694 504, 56.176 504 C 55.657 504, 54.998 504.901, 54.710 506.001 C 54.422 507.102, 54.595 507.751, 55.093 507.442 C 55.592 507.134, 56 507.557, 56 508.382 C 56 509.207, 55.492 510.196, 54.872 510.579 C 54.100 511.056, 54.258 511.565, 55.372 512.188 C 57.415 513.331, 57.496 516.596, 55.500 517.362 C 54.675 517.678, 54.036 518.514, 54.079 519.219 C 54.141 520.222, 54.267 520.229, 54.662 519.250 C 54.940 518.563, 55.627 518, 56.190 518 C 56.753 518, 56.941 518.675, 56.607 519.500 C 56.273 520.325, 55.699 521.749, 55.330 522.664 C 54.877 523.790, 55.039 524.094, 55.830 523.605 C 56.474 523.207, 57 523.359, 57 523.941 C 57 524.523, 56.550 525, 56 525 C 54.553 525, 54.769 528.740, 56.250 529.338 C 57.135 529.695, 57.079 529.865, 56.059 529.921 C 54.954 529.982, 55.031 530.302, 56.389 531.295 C 57.746 532.288, 58.296 534.565, 58.739 541.026 C 59.287 549.022, 59.227 549.370, 57.587 547.730 C 55.200 545.343, 54.968 545.522, 55.609 549.250 C 56.035 551.725, 55.914 552.142, 55.100 551 C 54.213 549.755, 54.028 549.883, 54.015 551.750 C 54.007 552.987, 54.450 554, 55 554 C 55.550 554, 55.993 555.013, 55.985 556.250 C 55.972 558.069, 55.784 558.213, 55 557 C 54.216 555.787, 54.028 555.931, 54.015 557.750 C 54.007 558.987, 54.450 560, 55 560 C 55.550 560, 55.993 561.013, 55.985 562.250 C 55.972 564.077, 55.784 564.218, 54.986 563 C 54.303 561.959, 54.055 563.870, 54.176 569.250 C 54.272 573.513, 54.669 577, 55.058 577 C 55.448 577, 56.011 577.936, 56.310 579.079 C 56.707 580.597, 56.469 581.010, 55.427 580.610 C 54.642 580.309, 54 580.280, 54 580.545 C 54 581.260, 56.255 585.151, 58.250 587.878 C 60.212 590.559, 60.481 592, 59.019 592 C 58.480 592, 57.756 590.875, 57.411 589.500 C 57.066 588.125, 56.382 587, 55.892 587 C 54.599 587, 54.733 587.451, 57.500 592.407 C 60.256 597.343, 60.440 598, 59.067 598 C 58.554 598, 57.849 597.100, 57.500 596 C 57.151 594.900, 56.454 594, 55.952 594 C 55.450 594, 56.156 595.999, 57.520 598.442 C 60.256 603.343, 60.439 604, 59.067 604 C 58.554 604, 57.849 603.100, 57.500 602 C 57.151 600.900, 56.442 600, 55.924 600 C 55.407 600, 55.534 600.883, 56.208 601.962 C 57.128 603.434, 57.167 604.923, 56.365 607.928 C 55.593 610.819, 55.602 612.059, 56.398 612.387 C 57.103 612.678, 57.050 612.871, 56.250 612.921 C 54.506 613.031, 54.682 618.040, 56.477 619.390 C 57.316 620.021, 58.250 623.082, 58.642 626.487 C 59.319 632.368, 59.297 632.440, 57.432 630.575 C 55.567 628.710, 55.517 628.745, 54.620 632.539 C 53.972 635.277, 54.040 636.513, 54.853 636.784 C 55.484 636.995, 55.993 638.142, 55.985 639.333 C 55.972 641.099, 55.790 641.222, 55 640 C 54.348 638.991, 54.026 642.982, 54.015 652.191 C 54.005 661.476, 54.372 666.112, 55.155 666.595 C 55.870 667.038, 56.038 666.870, 55.595 666.155 C 55.203 665.520, 55.311 665, 55.835 665 C 56.359 665, 56.724 666.130, 56.644 667.510 C 56.543 669.270, 56.051 669.867, 55 669.508 C 53.898 669.131, 53.949 669.346, 55.192 670.316 C 58.268 672.715, 59.708 679.009, 58.911 686.569 C 58.509 690.381, 58.440 695.745, 58.758 698.489 C 59.306 703.228, 59.248 703.391, 57.596 701.739 C 56.640 700.783, 55.711 700, 55.533 700 C 55.355 700, 55.420 701.913, 55.677 704.250 C 55.934 706.587, 56.224 709.470, 56.322 710.655 C 56.420 711.839, 56.815 712.614, 57.200 712.377 C 57.585 712.139, 58.388 712.857, 58.985 713.972 C 59.716 715.338, 59.732 716, 59.035 716 C 58.466 716, 58 715.550, 58 715 C 58 714.450, 57.564 714, 57.031 714 C 56.499 714, 56.322 714.675, 56.638 715.500 C 56.955 716.325, 56.869 717.788, 56.446 718.750 C 55.353 721.242, 55.078 726.070, 56.064 725.461 C 57.046 724.853, 58.986 731.335, 58.994 735.250 C 58.997 736.763, 58.581 738, 58.070 738 C 57.518 738, 57.480 739.185, 57.976 740.917 C 58.736 743.568, 59.386 754.299, 59.111 759.662 C 59.036 761.130, 58.439 761.733, 57.250 761.541 C 54.307 761.067, 54.020 761.918, 55.991 765.278 C 58.108 768.887, 59.153 775.267, 59.360 785.860 C 59.502 793.113, 58.948 794.397, 57.036 791.250 C 56.163 789.814, 56.079 789.974, 56.567 792.141 C 56.898 793.610, 56.681 795.079, 56.078 795.452 C 55.358 795.897, 55.315 796.720, 55.950 797.907 C 56.576 799.076, 56.545 800.055, 55.861 800.739 C 55.133 801.467, 55.148 802.408, 55.910 803.832 C 56.600 805.121, 56.648 806.099, 56.040 806.475 C 55.435 806.849, 55.506 808.017, 56.231 809.607 C 57.160 811.646, 57.103 812.338, 55.943 813.137 C 54.848 813.891, 55.013 813.988, 56.626 813.537 C 58.207 813.096, 58.888 813.463, 59.282 814.972 C 59.854 817.159, 58.494 817.812, 57.662 815.750 C 57.385 815.063, 57.122 815.711, 57.079 817.191 C 57.036 818.671, 56.581 820.141, 56.070 820.457 C 54.844 821.215, 55.338 825.497, 56.863 827.335 C 57.526 828.134, 58.348 831.139, 58.688 834.011 C 59.284 839.048, 59.233 839.195, 57.253 838.135 C 55.617 837.260, 55.077 837.356, 54.597 838.609 C 53.581 841.254, 54.594 841.606, 62.183 841.245 C 80.226 840.388, 85 840.364, 85 841.134 C 85 841.587, 86.202 841.410, 87.671 840.740 C 89.721 839.806, 90.433 839.799, 90.737 840.710 C 91.037 841.612, 91.734 841.623, 93.638 840.755 C 95.591 839.865, 96.320 839.900, 96.947 840.914 C 97.512 841.828, 97.953 841.885, 98.434 841.107 C 99.197 839.872, 103 839.575, 102.999 840.750 C 102.999 841.656, 109.765 841.568, 110.684 840.649 C 111.876 839.457, 114.266 839.981, 115.532 841.712 C 116.488 843.021, 117.104 843.158, 118.144 842.295 C 119.093 841.507, 120.993 841.444, 124.421 842.084 C 127.125 842.589, 137.249 842.916, 146.919 842.811 C 156.588 842.706, 163.150 842.445, 161.500 842.233 C 156.457 841.583, 156.809 840.501, 162.070 840.481 C 166.079 840.466, 166.936 840.755, 166.516 841.981 C 166.166 843.002, 166.458 842.904, 167.406 841.683 C 168.183 840.684, 169.196 839.843, 169.659 839.814 C 170.122 839.784, 171.625 839.310, 173 838.760 C 175.327 837.829, 190 837.016, 190 837.818 C 190 838.017, 189.203 838.927, 188.229 839.840 C 187.255 840.753, 186.895 841.163, 187.429 840.750 C 188.841 839.659, 192 839.831, 192 840.999 C 192 841.549, 193.463 841.956, 195.250 841.903 C 197.037 841.850, 202.195 842.075, 206.710 842.404 C 213.950 842.931, 215.132 842.777, 216.710 841.099 C 218.481 839.217, 231 836.536, 231 838.039 C 231 838.433, 229.988 839.507, 228.750 840.424 C 227.513 841.342, 227.167 841.755, 227.983 841.343 C 230.117 840.265, 238.307 840.091, 239.572 841.097 C 240.631 841.939, 244.503 841.666, 248.612 840.459 C 250.034 840.042, 250.922 840.356, 251.331 841.419 C 251.664 842.289, 252.739 842.993, 253.719 842.985 C 255.251 842.972, 255.291 842.821, 254 841.906 C 252.844 841.087, 253.185 840.955, 255.489 841.329 C 257.134 841.596, 259.271 841.390, 260.239 840.872 C 261.292 840.309, 262 840.299, 262 840.848 C 262 841.353, 262.901 842.002, 264.001 842.290 C 265.102 842.578, 265.751 842.405, 265.442 841.907 C 265.134 841.408, 265.809 841, 266.941 841 C 268.073 841, 269.014 841.563, 269.030 842.250 C 269.047 842.944, 269.514 842.721, 270.080 841.750 C 270.641 840.788, 271.815 840, 272.689 840 C 273.564 840, 274.877 840.788, 275.608 841.750 C 276.339 842.712, 276.951 842.975, 276.968 842.333 C 277.006 840.940, 285.705 840.713, 286.552 842.083 C 286.863 842.587, 287.568 843, 288.118 843 C 288.668 843, 288.840 842.550, 288.500 842 C 288.155 841.442, 288.903 841.007, 290.191 841.015 C 292.049 841.028, 292.207 841.220, 291 842 C 289.835 842.753, 290.128 842.973, 292.309 842.985 C 293.930 842.994, 294.857 842.577, 294.500 842 C 294.155 841.442, 294.903 841.007, 296.191 841.015 C 298.049 841.028, 298.207 841.220, 297 842 C 295.835 842.753, 296.128 842.973, 298.309 842.985 C 299.930 842.994, 300.857 842.577, 300.500 842 C 300.155 841.442, 300.903 841.007, 302.191 841.015 C 304.049 841.028, 304.207 841.220, 303 842 C 301.835 842.753, 302.128 842.973, 304.309 842.985 C 305.930 842.994, 306.857 842.577, 306.500 842 C 306.155 841.442, 306.903 841.007, 308.191 841.015 C 310.049 841.028, 310.207 841.220, 309 842 C 307.835 842.753, 308.128 842.973, 310.309 842.985 C 311.930 842.994, 312.857 842.577, 312.500 842 C 312.155 841.442, 312.903 841.007, 314.191 841.015 C 316.049 841.028, 316.207 841.220, 315 842 C 313.948 842.680, 315.477 842.974, 320.120 842.985 C 326.740 843, 326.740 843, 327.420 838.250 C 327.794 835.638, 328.106 832.712, 328.112 831.750 C 328.129 829.352, 328.886 829.556, 329.969 832.250 C 330.757 834.210, 330.881 834.024, 330.937 830.800 C 330.977 828.429, 330.437 826.784, 329.434 826.223 C 327.427 825.100, 326.050 819.129, 326.039 811.500 C 326.033 807.264, 326.316 805.941, 327 807 C 327.533 807.825, 327.983 808.050, 328 807.500 C 328.017 806.950, 328.516 807.175, 329.110 808 C 329.994 809.229, 330.075 809.153, 329.560 807.580 C 329.200 806.479, 329.476 805.324, 330.208 804.872 C 331.228 804.241, 331.206 803.825, 330.095 802.792 C 328.952 801.728, 328.848 801.748, 329.508 802.905 C 330.045 803.846, 329.928 804.074, 329.155 803.595 C 327.472 802.555, 327.743 801, 329.607 801 C 330.662 801, 331.005 800.456, 330.607 799.418 C 330.273 798.548, 330 797.375, 330 796.811 C 330 796.247, 329.332 796.042, 328.515 796.356 C 327.643 796.691, 326.598 796.116, 325.980 794.963 C 325.402 793.883, 325.334 793, 325.829 793 C 326.331 793, 326.567 787.884, 326.363 781.427 C 326.030 770.902, 326.139 769.997, 327.570 771.427 C 329.789 773.646, 330.024 773.430, 329.391 769.750 C 328.965 767.275, 329.086 766.858, 329.900 768 C 330.787 769.245, 330.972 769.117, 330.985 767.250 C 330.993 766.013, 330.550 765, 330 765 C 329.450 765, 329 764.298, 329 763.441 C 329 762.584, 329.450 762.160, 330 762.500 C 330.616 762.881, 331 761.177, 331 758.059 C 331 755.277, 330.598 753, 330.107 753 C 329.616 753, 328.936 752.275, 328.596 751.389 C 328.171 750.283, 328.412 749.944, 329.361 750.308 C 331.175 751.004, 331.070 742.865, 329.250 741.700 C 327.778 740.759, 327.559 737, 328.975 737 C 329.602 737, 329.611 736.107, 329 734.500 C 328.389 732.893, 328.398 732, 329.025 732 C 330.390 732, 330.242 726.625, 328.790 723.438 C 327.763 721.184, 327.839 720.591, 329.290 719.530 C 331.022 718.264, 331.746 716.421, 330.115 717.429 C 329.629 717.729, 329.231 715.725, 329.231 712.975 C 329.231 710.225, 329.629 707.729, 330.115 707.429 C 330.602 707.128, 330.964 705.221, 330.921 703.191 C 330.878 701.161, 330.615 700.063, 330.338 700.750 C 329.486 702.862, 328.203 702.136, 328.356 699.628 C 328.454 698.013, 328.979 697.404, 330 697.722 C 331.333 698.137, 331.333 698.071, 330 697.131 C 329.175 696.549, 328.462 695.719, 328.416 695.286 C 328.370 694.854, 327.774 693.150, 327.092 691.500 C 326.409 689.850, 325.824 686.700, 325.791 684.500 C 325.680 677.064, 325.906 676.027, 327.500 676.638 C 329.664 677.469, 329.344 675.385, 326.774 671.908 C 324.985 669.489, 324.814 668.733, 325.902 668.060 C 326.681 667.579, 326.927 666.690, 326.481 665.969 C 325.666 664.651, 325.041 656, 325.761 656 C 325.991 656, 327.052 657.013, 328.117 658.250 C 329.552 659.915, 329.398 659.280, 327.528 655.808 C 324.738 650.629, 324.565 650, 325.933 650 C 326.446 650, 327.151 650.900, 327.500 652 C 327.849 653.100, 328.558 654, 329.076 654 C 329.593 654, 329.466 653.117, 328.792 652.038 C 327.872 650.566, 327.833 649.077, 328.635 646.072 C 329.407 643.181, 329.398 641.941, 328.602 641.613 C 327.897 641.322, 327.950 641.129, 328.750 641.079 C 329.460 641.034, 330 639.679, 330 637.941 C 330 636.259, 329.597 635.131, 329.105 635.435 C 327.870 636.198, 327.099 633.824, 326.418 627.165 C 325.963 622.718, 326.091 621.822, 327.013 623 C 327.993 624.250, 328.071 624.166, 327.485 622.500 C 326.718 620.321, 325.242 603, 325.822 603 C 326.019 603, 327.046 604.013, 328.106 605.250 C 330.032 607.500, 330.032 607.500, 328.812 604.654 C 327.764 602.211, 327.833 601.673, 329.296 600.854 C 331.397 599.679, 331.459 598.316, 329.500 596.357 C 328.675 595.532, 328.007 594.327, 328.015 593.679 C 328.024 592.988, 328.432 593.121, 329 594 C 329.963 595.491, 330.359 592.944, 330.243 586 C 330.179 582.150, 330.071 581.838, 329.029 582.482 C 327.960 583.143, 327.367 581.244, 326.067 573 C 325.590 569.975, 325.580 567.358, 326.045 567.185 C 326.510 567.012, 326.686 564.537, 326.436 561.685 C 326.187 558.833, 326.240 557.037, 326.556 557.694 C 326.871 558.350, 327.775 558.640, 328.565 558.337 C 330.442 557.616, 330.414 553.032, 328.523 551.610 C 327.684 550.979, 326.750 547.918, 326.358 544.513 C 325.687 538.686, 325.719 538.576, 327.520 540.377 C 329.322 542.179, 329.395 542.165, 330.265 539.864 C 330.757 538.564, 331.003 534.251, 330.812 530.280 C 330.550 524.838, 330.033 522.745, 328.714 521.780 C 327.624 520.982, 326.733 518.545, 326.350 515.309 C 325.778 510.474, 325.872 510.154, 327.730 510.640 C 328.949 510.959, 329.945 510.585, 330.294 509.677 C 331.112 507.544, 329.989 504, 328.494 504 C 327.335 504, 324.654 491.149, 325.596 490.108 C 325.791 489.893, 326.874 490.793, 328.003 492.108 C 329.681 494.063, 329.594 493.643, 327.528 489.808 C 324.773 484.695, 324.572 484, 325.847 484 C 326.313 484, 327.201 485.012, 327.821 486.250 C 328.904 488.414, 328.926 488.399, 328.392 485.859 C 328.082 484.383, 328.336 482.910, 328.968 482.520 C 329.803 482.004, 329.795 481.458, 328.937 480.424 C 328.298 479.655, 328.098 478.232, 328.490 477.263 C 329.842 473.927, 330.047 465.527, 328.848 462.632 C 327.830 460.174, 327.900 459.547, 329.308 458.517 C 330.221 457.849, 330.692 457.025, 330.353 456.686 C 329.223 455.557, 328.935 447, 330.026 447 C 330.695 447, 331 443.556, 330.873 437.456 C 330.725 430.331, 330.360 428.032, 329.434 428.387 C 328.529 428.734, 328.287 427.630, 328.540 424.314 C 328.805 420.842, 328.374 419.072, 326.717 416.832 C 324.995 414.501, 324.822 413.728, 325.877 413.076 C 326.871 412.461, 326.940 411.756, 326.149 410.279 C 324.995 408.123, 325.922 403.005, 327.450 403.093 C 327.973 403.124, 328.746 402.215, 329.168 401.074 C 329.612 399.876, 329.527 399, 328.968 399 C 328.435 399, 328 398.523, 328 397.941 C 328 397.359, 328.450 397.160, 329 397.500 C 329.569 397.852, 330 396.991, 330 395.500 C 330 394.060, 329.588 393.137, 329.084 393.448 C 327.709 394.298, 326 384.883, 326 376.451 C 326 369.142, 325.952 369, 323.465 369 C 321.226 369, 321.057 368.762, 322.017 366.968 C 323.015 365.104, 322.881 364.992, 320.403 365.614 C 318.496 366.092, 317.910 365.955, 318.410 365.146 C 318.834 364.460, 318.449 364, 317.452 364 C 316.441 364, 315.996 364.546, 316.319 365.390 C 316.692 366.360, 316.118 366.737, 314.416 366.640 C 312.914 366.554, 312.163 366.020, 312.458 365.250 C 312.722 364.563, 312.501 364, 311.969 364 C 311.436 364, 311 364.661, 311 365.469 C 311 366.332, 310.410 366.711, 309.569 366.388 C 308.781 366.086, 306.733 366.877, 305.017 368.145 C 302.551 369.969, 301.725 370.174, 301.076 369.123 C 300.461 368.129, 299.756 368.060, 298.279 368.851 C 297.040 369.514, 295.221 369.584, 293.402 369.040 C 291.806 368.563, 291.063 368.133, 291.750 368.086 C 292.438 368.039, 293 367.430, 293 366.733 C 293 365.877, 291.782 365.571, 289.250 365.792 C 280.046 366.593, 269.883 366.619, 269.403 365.843 C 269.115 365.376, 268.033 365.447, 267 366 C 265.967 366.553, 264.885 366.623, 264.596 366.155 C 263.995 365.183, 258.625 365.347, 255.177 366.443 C 253.486 366.980, 252.473 366.680, 251.458 365.341 C 250.691 364.328, 250.049 364.034, 250.032 364.687 C 249.991 366.224, 241.999 366.188, 240.087 364.642 C 239.018 363.777, 238.573 363.803, 238.254 364.750 C 238.023 365.438, 237.169 366, 236.358 366 C 235.546 366, 235.160 365.550, 235.500 365 C 235.840 364.450, 235.191 364, 234.059 364 C 232.927 364, 232 364.450, 232 365 C 232 365.550, 231.298 366, 230.441 366 C 229.584 366, 229.160 365.550, 229.500 365 C 229.877 364.390, 228.371 364, 225.642 364 C 223.099 364, 220.997 364.508, 220.774 365.177 C 220.528 365.915, 219.860 366.032, 218.983 365.490 C 218.214 365.014, 216.445 364.504, 215.052 364.355 C 213.115 364.149, 212.870 364.311, 214.010 365.047 C 215.137 365.775, 214.769 365.988, 212.500 365.919 C 210.850 365.869, 208.493 366.143, 207.262 366.527 C 205.679 367.022, 204.846 366.763, 204.415 365.639 C 203.872 364.224, 203.642 364.215, 202.297 365.560 C 201.380 366.477, 200.339 366.730, 199.644 366.205 C 199.015 365.730, 196.700 365.512, 194.500 365.722 C 184.851 366.644, 175 366.749, 175 365.932 C 175 364.890, 170.097 366.907, 168.179 368.738 C 166.594 370.252, 165 370.383, 165 369 C 165 368.450, 165.450 368, 166 368 C 166.550 368, 167 367.612, 167 367.139 C 167 366.665, 165.827 366.502, 164.394 366.776 C 162.904 367.060, 161.461 366.746, 161.026 366.043 C 160.434 365.085, 159.625 365.142, 157.383 366.300 C 153.222 368.449, 143.443 369.684, 136.500 368.939 C 133.200 368.584, 131.014 368.228, 131.643 368.147 C 132.272 368.066, 133.047 367.319, 133.366 366.488 C 133.822 365.300, 133.412 365.109, 131.460 365.599 C 130.093 365.943, 128.349 365.704, 127.584 365.070 C 126.524 364.190, 126.053 364.223, 125.597 365.208 C 125.125 366.229, 124.878 366.238, 124.417 365.250 C 124.096 364.563, 123.394 364, 122.858 364 C 122.321 364, 122.188 364.495, 122.562 365.100 C 123.051 365.891, 122.660 365.888, 121.167 365.089 C 119.563 364.231, 118.142 364.359, 114.904 365.655 C 111.014 367.212, 110.629 367.214, 109.509 365.681 C 108.845 364.774, 108.025 364.308, 107.686 364.647 C 106.587 365.746, 98 366.068, 98 365.010 C 98 363.405, 87.238 363.758, 86.300 365.393 M 426.500 440.878 C 424.850 441.231, 423.613 441.853, 423.750 442.260 C 424.355 444.052, 423.837 444.370, 422.714 442.896 C 422.029 441.996, 420.177 441.337, 418.496 441.396 C 416.190 441.476, 415.426 442.018, 415.180 443.750 C 415.005 444.988, 414.287 446, 413.585 446 C 412.884 446, 411.508 446.887, 410.527 447.970 C 408.858 449.815, 408.848 450.160, 410.372 453.371 C 411.267 455.258, 412 457.882, 412 459.201 C 412 460.521, 412.563 462.172, 413.250 462.871 C 414.252 463.891, 414.203 464.079, 413 463.821 C 411.812 463.567, 411.556 464.435, 411.769 468 C 411.918 470.475, 412.331 473.175, 412.687 474 C 414.022 477.085, 413.804 484, 412.373 484 C 411.618 484, 411.007 484.563, 411.015 485.250 C 411.040 487.233, 412.686 489.312, 413.724 488.671 C 414.296 488.317, 414.424 489.555, 414.047 491.793 C 413.580 494.559, 412.987 495.425, 411.711 495.206 C 410.770 495.045, 410 495.457, 410 496.123 C 410 496.789, 410.279 497.055, 410.619 496.714 C 411.507 495.827, 414 498.566, 414 500.429 C 414 501.293, 413.325 502, 412.500 502 C 410.607 502, 410.597 503.085, 412.468 505.559 C 414.156 507.790, 414.477 512.587, 413 513.500 C 412.450 513.840, 412 513.615, 412 513 C 412 512.385, 411.550 512.160, 411 512.500 C 410.450 512.840, 410 513.568, 410 514.118 C 410 514.668, 410.450 514.840, 411 514.500 C 411.550 514.160, 412 514.385, 412 515 C 412 515.615, 412.450 515.840, 413 515.500 C 413.550 515.160, 414 515.760, 414 516.834 C 414 517.908, 413.325 519.045, 412.500 519.362 C 410.601 520.090, 410.592 521.449, 412.474 523.331 C 413.773 524.631, 413.773 524.873, 412.474 525.371 C 410.600 526.091, 410.600 527.457, 412.472 529.329 C 413.768 530.625, 413.763 530.952, 412.427 532.061 C 411.592 532.754, 411.135 533.909, 411.411 534.628 C 411.687 535.347, 411.499 536.191, 410.994 536.504 C 409.942 537.154, 411.852 542, 413.161 542 C 413.622 542, 414 542.498, 414 543.107 C 414 543.716, 413.339 543.960, 412.532 543.651 C 411.725 543.341, 410.818 543.485, 410.518 543.972 C 410.217 544.458, 410.877 545.144, 411.985 545.495 C 414.136 546.178, 414.855 549.284, 412.750 548.801 C 412.063 548.643, 411.321 548.736, 411.103 549.007 C 410.366 549.923, 412.126 554, 413.259 554 C 413.877 554, 413.553 554.607, 412.538 555.348 C 411.481 556.121, 411.010 557.207, 411.433 557.892 C 411.840 558.550, 411.571 559.829, 410.836 560.736 C 409.883 561.911, 409.859 562.168, 410.750 561.633 C 411.438 561.220, 412 561.359, 412 561.941 C 412 562.523, 412.506 562.887, 413.125 562.750 C 413.744 562.612, 414.480 563.134, 414.761 563.909 C 415.109 564.866, 414.771 565.126, 413.710 564.719 C 411.902 564.025, 409.518 566.410, 410.473 567.956 C 410.828 568.530, 411.991 569, 413.059 569 C 414.127 569, 415 569.400, 415 569.889 C 415 570.378, 414.230 570.715, 413.288 570.639 C 410.713 570.430, 410.380 574.025, 412.913 574.688 C 414.061 574.988, 415 575.617, 415 576.085 C 415 576.554, 414.329 576.680, 413.508 576.365 C 411.617 575.639, 410.402 578.575, 411.864 580.337 C 412.650 581.283, 412.644 581.956, 411.843 582.757 C 411.216 583.384, 411.061 584.655, 411.487 585.683 C 412.538 588.220, 412.854 590.926, 413.554 603.414 C 414.056 612.370, 413.905 614.474, 412.714 615.140 C 410.856 616.180, 411.165 623.858, 413.114 625.092 C 414.227 625.796, 414.166 625.972, 412.809 625.985 C 410.108 626.009, 409.900 627.515, 412.250 630.038 C 413.900 631.809, 414.021 632.222, 412.748 631.733 C 411.822 631.378, 410.818 631.485, 410.518 631.972 C 410.217 632.458, 410.877 633.144, 411.985 633.495 C 413.137 633.861, 414 635.008, 414 636.174 C 414 637.557, 413.527 638.032, 412.532 637.651 C 411.725 637.341, 410.818 637.485, 410.518 637.972 C 410.217 638.458, 410.877 639.144, 411.985 639.495 C 413.555 639.994, 414 641.004, 414 644.067 C 414 646.642, 413.577 647.914, 412.774 647.750 C 412.099 647.613, 411.393 648.513, 411.204 649.750 C 410.972 651.273, 411.368 652, 412.430 652 C 413.294 652, 414 652.477, 414 653.059 C 414 653.641, 413.550 653.840, 413 653.500 C 412.433 653.149, 412 653.990, 412 655.441 C 412 656.848, 412.536 658, 413.191 658 C 413.846 658, 413.509 658.648, 412.441 659.439 C 410.884 660.593, 410.720 661.239, 411.610 662.701 C 412.303 663.839, 412.398 665.394, 411.865 666.837 C 411.319 668.312, 411.443 669.936, 412.208 671.324 C 413.944 674.474, 413.763 676.261, 411.500 678.314 C 410.077 679.605, 409.861 680.278, 410.750 680.648 C 411.438 680.933, 412 682.453, 412 684.024 C 412 685.596, 412.415 687.139, 412.923 687.453 C 414.291 688.298, 413.713 696.896, 412.250 697.458 C 410.606 698.088, 410.667 699.524, 412.410 701.267 C 414.778 703.636, 414.876 709.550, 412.532 708.651 C 411.725 708.341, 410.872 708.405, 410.637 708.794 C 410.064 709.742, 412.623 712.044, 413.393 711.273 C 413.727 710.940, 414 712.992, 414 715.833 C 414 719.858, 413.654 721, 412.433 721 C 411.266 721, 411.045 721.575, 411.567 723.250 C 411.954 724.487, 412.771 725.831, 413.385 726.235 C 414.081 726.694, 413.843 726.975, 412.750 726.985 C 410.713 727.003, 410.697 727.072, 411.957 730.387 C 412.732 732.427, 412.638 732.798, 411.457 732.345 C 409.899 731.747, 409.408 733.516, 410.879 734.425 C 411.363 734.724, 411.987 735.842, 412.266 736.910 C 412.623 738.275, 412.362 738.693, 411.387 738.318 C 409.879 737.740, 409.446 739.539, 410.879 740.425 C 411.363 740.724, 411.987 741.842, 412.266 742.910 C 412.623 744.275, 412.362 744.693, 411.387 744.318 C 409.739 743.686, 409.550 745.150, 411.082 746.682 C 412.199 747.799, 410.363 752, 408.759 752 C 408.342 752, 408 752.675, 408 753.500 C 408 754.325, 408.414 755, 408.921 755 C 410.182 755, 411.536 760.730, 411.875 767.500 C 411.963 769.260, 412.571 770, 413.930 770 C 415.171 770, 415.975 770.804, 416.180 772.250 C 416.463 774.238, 417.083 774.502, 421.500 774.519 C 424.250 774.529, 427.260 774.190, 428.189 773.766 C 429.125 773.339, 430.155 773.442, 430.498 773.997 C 431.370 775.408, 432.612 775.245, 434.365 773.492 C 435.299 772.558, 436.109 772.368, 436.495 772.992 C 436.838 773.547, 436.615 774, 436 774 C 435.385 774, 435.157 774.446, 435.494 774.990 C 435.879 775.613, 436.603 775.521, 437.448 774.740 C 438.186 774.058, 438.586 773.163, 438.336 772.750 C 438.086 772.337, 438.857 772, 440.048 772 C 441.495 772, 442.035 772.465, 441.676 773.402 C 441.380 774.173, 441.380 775.046, 441.675 775.342 C 442.368 776.035, 444.916 773.709, 444.401 772.855 C 444.186 772.499, 445.805 772.038, 447.998 771.829 C 451.144 771.529, 451.934 771.770, 451.742 772.974 C 451.550 774.184, 452.433 774.444, 456 774.231 C 458.475 774.082, 461.175 773.669, 462 773.313 C 465.013 772.010, 471.870 772.218, 472.411 773.629 C 473.103 775.433, 474.494 775.364, 476.429 773.429 C 477.857 772, 478 772.010, 478 773.536 C 478 774.675, 478.523 775.013, 479.627 774.590 C 480.521 774.246, 481.906 774.507, 482.703 775.168 C 483.847 776.118, 484.345 776.069, 485.066 774.936 C 485.568 774.146, 485.773 772.938, 485.521 772.250 C 485.269 771.563, 485.761 771, 486.615 771 C 487.468 771, 487.981 771.558, 487.753 772.241 C 487.525 772.924, 487.937 774.080, 488.668 774.811 C 489.772 775.915, 490.460 775.814, 492.748 774.212 C 495.679 772.160, 497.402 772.303, 500.311 774.841 C 501.808 776.146, 502.268 776.185, 502.960 775.065 C 503.521 774.157, 504.809 773.912, 506.860 774.322 C 508.888 774.728, 510.410 774.448, 511.364 773.493 C 512.620 772.238, 512.879 772.242, 513.371 773.526 C 514.119 775.475, 515.466 775.387, 517.623 773.250 C 519.177 771.709, 519.313 771.697, 518.763 773.152 C 518.419 774.061, 518.380 775.046, 518.675 775.342 C 519.420 776.087, 521.896 773.675, 521.336 772.750 C 521.086 772.337, 521.359 772, 521.941 772 C 522.523 772, 523 772.627, 523 773.393 C 523 774.906, 525.430 776.236, 526.408 775.259 C 526.740 774.927, 529.346 774.538, 532.199 774.393 C 535.052 774.249, 538.465 773.554, 539.782 772.849 C 541.844 771.746, 542.312 771.806, 543.139 773.283 C 544.375 775.492, 545.181 775.445, 548 773 C 550.731 770.632, 553.472 770.328, 552.644 772.485 C 551.988 774.195, 555.526 776.576, 556.465 775.057 C 556.787 774.535, 558.866 774.180, 561.084 774.269 C 563.680 774.372, 565.446 773.908, 566.043 772.965 C 566.817 771.741, 566.972 771.788, 566.985 773.250 C 567.002 775.279, 567.426 775.378, 570.066 773.965 C 571.588 773.150, 572 773.257, 572 774.465 C 572 776.420, 572.470 776.393, 575.747 774.250 C 577.218 773.288, 578.095 773.031, 577.695 773.681 C 576.638 775.396, 578.832 776.384, 580.544 774.964 C 581.687 774.015, 582.338 774.036, 583.576 775.063 C 584.883 776.147, 585.305 776.126, 586.046 774.936 C 586.811 773.705, 587.259 773.698, 589.174 774.886 C 590.762 775.871, 591.519 775.943, 591.788 775.136 C 591.996 774.511, 593.260 774, 594.597 774 C 595.934 774, 597.910 773.449, 598.989 772.775 C 600.622 771.755, 601.168 771.847, 602.252 773.329 C 603.628 775.211, 606.975 774.730, 607.030 772.643 C 607.047 772.014, 607.519 772.288, 608.080 773.250 C 609.351 775.432, 610.401 775.456, 612.507 773.350 C 613.730 772.127, 614.073 772.062, 613.835 773.100 C 613.269 775.567, 616.137 775.720, 618.507 773.350 C 619.730 772.127, 620.073 772.062, 619.835 773.100 C 619.256 775.620, 622.141 775.710, 624.623 773.250 C 626.264 771.623, 626.342 771.621, 625.738 773.218 C 625.380 774.163, 625.518 775.202, 626.044 775.527 C 626.906 776.060, 627.428 774.712, 627.118 772.750 C 627.053 772.337, 628.173 772, 629.607 772 C 631.488 772, 632.057 772.409, 631.651 773.468 C 631.341 774.275, 631.485 775.182, 631.972 775.482 C 632.458 775.783, 633.144 775.123, 633.495 774.015 C 634.242 771.664, 637.524 771.317, 638.362 773.500 C 639.101 775.426, 640.454 775.404, 642.424 773.433 C 644.566 771.291, 649.601 771.898, 649.206 774.250 C 649.045 775.212, 649.457 776, 650.123 776 C 650.789 776, 651.055 775.721, 650.714 775.381 C 650.374 775.040, 650.756 774.101, 651.563 773.294 C 653.752 771.105, 677.985 771.221, 679.219 773.426 C 679.865 774.582, 681.304 774.861, 685.024 774.552 C 687.744 774.326, 690.241 774.581, 690.574 775.120 C 690.921 775.680, 691.889 775.311, 692.840 774.257 C 694.186 772.762, 696.251 772.364, 703.769 772.150 C 710.889 771.948, 712.975 772.184, 712.769 773.170 C 712.621 773.875, 713.513 774.607, 714.750 774.796 C 716.377 775.044, 717.008 774.635, 717.030 773.320 C 717.059 771.605, 717.120 771.601, 718.080 773.250 C 719.513 775.711, 723 775.534, 723 773 C 723 771.900, 723.498 771, 724.107 771 C 724.716 771, 724.955 771.675, 724.638 772.500 C 723.754 774.804, 730.738 775.012, 732.191 772.725 C 732.727 771.881, 732.974 772.066, 732.985 773.317 C 732.997 774.753, 733.473 774.979, 735.250 774.396 C 736.487 773.990, 738.262 773.704, 739.193 773.762 C 740.278 773.829, 740.687 773.349, 740.333 772.425 C 739.894 771.281, 740.267 771.167, 742.140 771.875 C 743.521 772.397, 744.378 773.438, 744.206 774.384 C 744.045 775.273, 744.409 776, 745.015 776 C 745.622 776, 745.840 775.550, 745.500 775 C 745.160 774.450, 745.344 774, 745.910 774 C 746.475 774, 746.666 773.293, 746.335 772.430 C 745.824 771.100, 746.328 770.968, 749.616 771.570 C 751.752 771.962, 753.835 772.849, 754.245 773.543 C 755.232 775.214, 779.553 774.845, 782.794 773.110 C 784.030 772.449, 785.432 772.149, 785.910 772.444 C 786.387 772.739, 788.860 772.592, 791.404 772.117 C 795.403 771.370, 795.994 771.473, 795.765 772.876 C 795.547 774.214, 796.534 774.512, 801.358 774.570 C 805.112 774.616, 807.716 774.141, 808.608 773.249 C 809.797 772.060, 810 772.096, 810 773.496 C 810 774.748, 810.531 774.960, 812.250 774.396 C 813.487 773.990, 815.297 773.707, 816.272 773.768 C 817.246 773.829, 817.759 773.418, 817.411 772.855 C 817.030 772.239, 817.717 771.965, 819.139 772.166 C 820.742 772.393, 821.406 773.062, 821.206 774.250 C 821.045 775.212, 821.409 776, 822.015 776 C 822.622 776, 822.840 775.550, 822.500 775 C 822.160 774.450, 822.385 774, 823 774 C 823.615 774, 823.870 773.599, 823.567 773.108 C 822.737 771.766, 828.127 771.446, 842.260 772 C 849.773 772.294, 855.017 772.911, 855.013 773.500 C 855.004 774.937, 866.117 774.739, 867.581 773.276 C 868.547 772.310, 868.925 772.363, 869.371 773.526 C 870.110 775.449, 871.465 775.392, 873.507 773.350 C 874.970 771.887, 875.119 771.880, 874.828 773.285 C 874.318 775.749, 877.122 775.728, 879.623 773.250 C 881.177 771.709, 881.313 771.697, 880.763 773.152 C 879.903 775.424, 880.888 776.130, 883.195 774.895 C 884.602 774.143, 885.571 774.220, 886.756 775.181 C 887.943 776.143, 888.180 776.161, 887.633 775.250 C 887.211 774.548, 887.372 774, 888 774 C 888.615 774, 888.859 773.581, 888.543 773.069 C 888.226 772.557, 888.444 771.843, 889.027 771.483 C 890.526 770.557, 892.991 772.861, 892.334 774.573 C 892.032 775.358, 892.311 776, 892.952 776 C 893.593 776, 893.840 775.550, 893.500 775 C 893.160 774.450, 893.385 774, 894 774 C 894.615 774, 894.840 773.550, 894.500 773 C 894.160 772.450, 894.610 772, 895.500 772 C 896.390 772, 896.838 772.453, 896.496 773.007 C 895.383 774.808, 899.210 775.433, 900.505 773.662 C 901.799 771.892, 903.542 771.314, 902.500 773 C 902.149 773.567, 902.990 774, 904.441 774 C 906.049 774, 907 773.443, 907 772.500 C 907 770.357, 908.741 770.647, 910 773 C 911.275 775.382, 912.345 775.512, 914.331 773.526 C 915.631 772.227, 915.873 772.227, 916.371 773.526 C 917.110 775.449, 918.465 775.392, 920.507 773.350 C 921.970 771.887, 922.119 771.880, 921.828 773.285 C 921.343 775.626, 924.105 775.752, 926.365 773.492 C 927.299 772.558, 928.109 772.368, 928.495 772.992 C 928.838 773.547, 928.615 774, 928 774 C 927.385 774, 927.157 774.446, 927.494 774.990 C 927.879 775.613, 928.603 775.521, 929.448 774.740 C 930.186 774.058, 930.586 773.163, 930.336 772.750 C 930.086 772.337, 930.782 772, 931.882 772 C 932.982 772, 934.160 772.450, 934.500 773 C 934.840 773.550, 934.615 774, 934 774 C 933.385 774, 933.157 774.446, 933.494 774.990 C 934.395 776.447, 936.865 773.811, 936.206 772.095 C 935.793 771.019, 936.244 770.834, 938.081 771.326 C 939.412 771.682, 941.287 771.979, 942.250 771.986 C 943.212 771.994, 943.887 772.563, 943.750 773.250 C 943.459 774.706, 958.363 774.698, 960.338 773.242 C 962.154 771.903, 977 771.710, 977 773.026 C 977 773.679, 976.180 773.874, 975.006 773.502 C 973.463 773.012, 973.151 773.230, 973.625 774.464 C 974.028 775.515, 974.905 775.848, 976.192 775.439 C 977.468 775.034, 978.619 775.458, 979.506 776.659 C 980.607 778.151, 981.110 778.259, 982.154 777.229 C 982.862 776.530, 983.455 775.073, 983.471 773.992 C 983.516 770.914, 985.463 771.175, 985.822 774.308 C 986.109 776.807, 986.494 777.082, 989.322 776.808 C 992.850 776.466, 992.832 776.515, 993.679 764.750 C 994.033 759.819, 994.546 758, 995.582 758 C 997.416 758, 997.374 756.979, 995.426 754.198 C 994.416 752.756, 994.282 752.049, 995.051 752.225 C 996.938 752.658, 997.249 750.392, 995.537 748.680 C 994.579 747.722, 994.371 746.889, 994.992 746.505 C 995.547 746.162, 996 746.385, 996 747 C 996 747.615, 996.450 747.840, 997 747.500 C 997.550 747.160, 998 746.432, 998 745.882 C 998 745.332, 997.550 745.160, 997 745.500 C 996.450 745.840, 996 745.656, 996 745.090 C 996 744.525, 995.358 744.309, 994.573 744.610 C 993.529 745.011, 993.293 744.596, 993.694 743.063 C 994.298 740.753, 996 739.230, 996 741 C 996 741.615, 996.450 741.840, 997 741.500 C 997.550 741.160, 998 740.432, 998 739.882 C 998 739.332, 997.550 739.160, 997 739.500 C 996.450 739.840, 996 739.656, 996 739.090 C 996 738.525, 995.325 738.322, 994.500 738.638 C 992.339 739.468, 992.655 737.400, 995.027 735.190 C 997.091 733.266, 996.853 730.028, 994.643 729.970 C 994.014 729.953, 994.288 729.481, 995.250 728.920 C 996.212 728.359, 997 727.505, 997 727.022 C 997 726.538, 996.212 725.348, 995.250 724.377 C 993.709 722.823, 993.697 722.687, 995.152 723.237 C 996.061 723.581, 997.046 723.620, 997.342 723.325 C 998.087 722.580, 995.675 720.104, 994.750 720.664 C 994.337 720.914, 994 720.172, 994 719.015 C 994 717.719, 994.550 717.025, 995.434 717.206 C 996.223 717.368, 996.893 717.050, 996.922 716.500 C 997.023 714.618, 995.866 712, 994.933 712 C 994.420 712, 994 710.377, 994 708.393 C 994 705.633, 994.345 704.918, 995.468 705.349 C 996.275 705.659, 997.182 705.515, 997.482 705.028 C 997.783 704.542, 997.123 703.856, 996.015 703.505 C 994.350 702.976, 993.988 701.965, 993.930 697.683 C 993.891 694.832, 993.780 690.475, 993.684 688 C 993.551 684.594, 993.872 683.500, 995.004 683.500 C 995.833 683.500, 996.500 682.609, 996.500 681.500 C 996.500 680.209, 995.880 679.549, 994.750 679.639 C 993.788 679.715, 993 679.105, 993 678.282 C 993 677.363, 993.579 677.008, 994.500 677.362 C 995.584 677.777, 996 677.252, 996 675.469 C 996 674.111, 995.560 673, 995.023 673 C 993.591 673, 994.274 664.678, 995.804 663.474 C 997.162 662.405, 996.468 659, 994.893 659 C 993.665 659, 993.761 652.266, 995 651.500 C 995.550 651.160, 996 651.385, 996 652 C 996 652.615, 996.446 652.843, 996.990 652.506 C 997.613 652.121, 997.521 651.397, 996.740 650.552 C 996.058 649.814, 995.163 649.414, 994.750 649.664 C 993.890 650.185, 993.945 651.938, 993.693 616.301 C 993.521 592.091, 993.676 589.057, 995.102 588.684 C 996.440 588.334, 996.669 586.821, 996.485 579.523 C 996.364 574.715, 995.868 570.493, 995.382 570.141 C 994.149 569.245, 993.881 563.192, 995.043 562.474 C 995.569 562.148, 996 562.385, 996 563 C 996 563.615, 996.446 563.843, 996.990 563.506 C 998.447 562.605, 995.811 560.135, 994.095 560.794 C 993.019 561.207, 992.834 560.756, 993.326 558.919 C 993.682 557.588, 993.979 555.713, 993.986 554.750 C 993.994 553.788, 994.562 553.113, 995.250 553.250 C 996.128 553.426, 996.502 551.864, 996.506 548 C 996.514 541.060, 996.116 539.742, 994.230 540.465 C 992.983 540.944, 992.938 540.780, 993.970 539.536 C 994.660 538.705, 994.954 537.321, 994.623 536.461 C 994.293 535.600, 994.445 535.157, 994.961 535.476 C 995.477 535.795, 996.373 535.171, 996.953 534.089 C 997.605 532.869, 997.645 531.899, 997.057 531.535 C 996.535 531.213, 996.180 529.134, 996.269 526.916 C 996.372 524.320, 995.908 522.554, 994.965 521.957 C 993.753 521.190, 993.813 521.028, 995.317 521.015 C 996.753 521.003, 996.979 520.527, 996.396 518.750 C 995.990 517.513, 995.707 515.703, 995.768 514.728 C 995.829 513.754, 995.418 513.241, 994.855 513.589 C 994.239 513.970, 993.965 513.283, 994.166 511.861 C 994.393 510.258, 995.062 509.594, 996.250 509.794 C 998.532 510.177, 998.470 508.882, 996.085 506.322 C 993.300 503.332, 992.835 497.339, 995.468 498.349 C 996.275 498.659, 997.191 498.501, 997.502 497.997 C 998.215 496.842, 995.877 493, 994.460 493 C 993.838 493, 993.571 491.549, 993.812 489.482 C 994.040 487.532, 994.730 486.080, 995.362 486.225 C 995.988 486.369, 996.607 486.039, 996.738 485.493 C 997.156 483.750, 995.907 481.001, 994.683 480.970 C 994.032 480.953, 994.288 480.481, 995.250 479.920 C 997.456 478.635, 997.456 477.602, 995.250 475.377 C 993.709 473.823, 993.697 473.687, 995.152 474.237 C 996.061 474.581, 997.046 474.620, 997.342 474.325 C 998.177 473.490, 995.625 471.147, 994.500 471.715 C 993.950 471.992, 994.850 471.056, 996.500 469.633 C 998.877 467.585, 999.213 466.858, 998.120 466.134 C 997.247 465.557, 996.908 464.080, 997.197 462.111 C 997.512 459.963, 997.243 459, 996.327 459 C 995.597 459, 995 458.523, 995 457.941 C 995 457.359, 995.450 457.160, 996 457.500 C 996.550 457.840, 997.056 457.191, 997.125 456.059 C 997.299 453.195, 997.428 452.661, 998.264 451.348 C 999.379 449.596, 992.213 445.730, 989.235 446.477 C 987.901 446.812, 986.196 446.578, 985.448 445.957 C 984.700 445.336, 983.598 445.130, 983 445.500 C 982.402 445.870, 981.257 445.628, 980.456 444.964 C 979.433 444.115, 978.626 444.066, 977.741 444.800 C 977.049 445.375, 973.336 445.959, 969.491 446.098 C 963.987 446.298, 962.500 446.048, 962.500 444.926 C 962.500 444.142, 961.600 443.500, 960.500 443.500 C 959.209 443.500, 958.549 444.120, 958.639 445.250 C 958.715 446.212, 958.105 447, 957.282 447 C 956.410 447, 956.010 446.416, 956.324 445.599 C 956.649 444.752, 956.058 443.987, 954.834 443.667 C 952.653 443.096, 950 443.778, 950 444.909 C 950 445.950, 943.083 445.943, 942.439 444.901 C 942.133 444.405, 942.385 444, 943 444 C 943.615 444, 943.840 443.550, 943.500 443 C 943.160 442.450, 942.432 442, 941.882 442 C 941.332 442, 941.160 442.450, 941.500 443 C 941.840 443.550, 941.615 444, 941 444 C 940.385 444, 940.160 444.450, 940.500 445 C 941.177 446.095, 940.961 446.108, 921.188 446.170 C 909.905 446.206, 907.690 445.959, 906.661 444.552 C 905.378 442.797, 902 443.338, 902 445.298 C 902 445.894, 901.402 445.564, 900.671 444.565 C 899.575 443.065, 898.965 442.948, 897.193 443.897 C 895.396 444.858, 895.140 444.797, 895.629 443.523 C 896.342 441.665, 895.284 441.637, 892.050 443.427 C 890.703 444.174, 888.942 444.531, 888.136 444.222 C 887.147 443.842, 886.923 444.067, 887.447 444.914 C 888.001 445.811, 887.549 446.073, 885.861 445.834 C 884.258 445.607, 883.594 444.938, 883.794 443.750 C 883.955 442.788, 883.591 442, 882.985 442 C 882.378 442, 882.160 442.450, 882.500 443 C 882.840 443.550, 882.615 444, 882 444 C 881.385 444, 881.141 444.419, 881.457 444.931 C 881.774 445.443, 881.626 446.113, 881.130 446.420 C 880.634 446.726, 880.006 446.131, 879.735 445.096 C 879.287 443.381, 878.341 443.243, 869.051 443.543 C 863.446 443.724, 858.329 444.288, 857.680 444.797 C 857.031 445.306, 852.332 445.800, 847.239 445.894 C 840.163 446.026, 838.039 445.764, 838.239 444.783 C 838.440 443.796, 835.749 443.500, 826.572 443.500 C 820.001 443.500, 814.162 443.949, 813.572 444.500 C 812.982 445.050, 811.150 445.500, 809.500 445.500 C 807.198 445.500, 806.568 445.093, 806.794 443.750 C 806.955 442.788, 806.543 442, 805.877 442 C 805.211 442, 804.945 442.279, 805.286 442.619 C 806.173 443.507, 803.434 446, 801.571 446 C 800.707 446, 800 445.390, 800 444.644 C 800 443.725, 798.792 443.322, 796.250 443.394 C 793.328 443.477, 792.531 443.886, 792.639 445.250 C 792.715 446.212, 792.378 447, 791.889 447 C 791.400 447, 791 446.380, 791 445.622 C 791 443.619, 788.022 441.350, 787.174 442.706 C 786.434 443.889, 772.590 443.923, 771.412 442.746 C 771.022 442.356, 769.881 442.984, 768.877 444.142 C 767.716 445.480, 766.322 446.056, 765.050 445.723 C 763.949 445.435, 761.413 445.569, 759.415 446.019 C 755.020 447.010, 749.003 446.182, 749.291 444.626 C 749.521 443.385, 740.285 443.602, 738.512 444.879 C 737.955 445.280, 734.237 445.711, 730.250 445.837 C 724.104 446.031, 723 445.817, 723 444.426 C 723 443.341, 722.464 442.992, 721.418 443.393 C 720.548 443.727, 719.375 444, 718.811 444 C 718.247 444, 718.015 444.597, 718.295 445.327 C 718.685 446.343, 717.951 446.509, 715.152 446.038 C 712.436 445.579, 711.575 444.983, 711.794 443.711 C 711.955 442.770, 711.591 442, 710.985 442 C 710.378 442, 710.160 442.450, 710.500 443 C 710.840 443.550, 710.615 444, 710 444 C 709.385 444, 709.160 444.450, 709.500 445 C 709.899 445.645, 705.572 446.032, 697.309 446.091 C 671.953 446.271, 664.546 445.914, 663.732 444.473 C 663.228 443.581, 661.506 443.210, 658.732 443.396 C 656.404 443.552, 653.740 443.301, 652.811 442.837 C 651.813 442.340, 650.868 442.405, 650.502 442.997 C 650.161 443.549, 648.649 444, 647.141 444 C 645.633 444, 643.828 444.563, 643.129 445.250 C 642.109 446.252, 641.921 446.207, 642.179 445.024 C 642.373 444.130, 641.612 443.412, 640.250 443.204 C 638.983 443.011, 638 443.382, 638 444.053 C 638 444.957, 637.640 444.946, 636.513 444.011 C 634.615 442.435, 632.019 443.404, 631.937 445.719 C 631.883 447.214, 631.738 447.166, 631.030 445.415 C 630.236 443.453, 629.497 443.341, 618.496 443.513 C 612.066 443.614, 606.512 444.102, 606.153 444.598 C 605.249 445.846, 599.198 446.129, 598.474 444.957 C 598.148 444.431, 598.385 444, 599 444 C 599.615 444, 599.843 443.554, 599.506 443.010 C 599.121 442.387, 598.397 442.479, 597.552 443.260 C 596.814 443.942, 596.414 444.837, 596.664 445.250 C 596.914 445.663, 595.854 446.028, 594.309 446.063 C 578.712 446.413, 576.945 446.277, 577.250 444.750 C 577.567 443.167, 560.281 442.898, 558.612 444.459 C 558 445.032, 556.150 445.500, 554.500 445.500 C 552.198 445.500, 551.568 445.093, 551.794 443.750 C 551.955 442.788, 551.591 442, 550.985 442 C 550.378 442, 550.160 442.450, 550.500 443 C 550.840 443.550, 550.615 444, 550 444 C 549.385 444, 549.160 444.450, 549.500 445 C 550.233 446.185, 547.269 446.371, 533 446.031 C 525.290 445.847, 522.288 445.412, 521.700 444.391 C 520.674 442.607, 519.512 442.631, 517.669 444.474 C 516.369 445.773, 516.127 445.773, 515.629 444.474 C 514.881 442.525, 513.534 442.613, 511.377 444.750 C 509.823 446.291, 509.687 446.303, 510.237 444.848 C 510.581 443.939, 510.620 442.954, 510.325 442.658 C 509.457 441.790, 507.208 444.378, 507.704 445.672 C 508.002 446.448, 507.425 446.662, 506.022 446.296 C 504.770 445.968, 504.099 445.185, 504.400 444.401 C 504.682 443.665, 504.595 442.872, 504.206 442.637 C 503.258 442.064, 500.956 444.623, 501.727 445.393 C 502.060 445.727, 499.896 446.025, 496.917 446.055 C 493.937 446.085, 489.475 446.241, 487 446.403 C 481.661 446.752, 480 446.275, 480 444.393 C 480 442.525, 477.517 442.625, 475.571 444.571 C 474.143 446, 474 445.990, 474 444.464 C 474 443.325, 473.477 442.987, 472.373 443.410 C 471.479 443.754, 470.094 443.493, 469.297 442.832 C 468.153 441.882, 467.655 441.931, 466.934 443.064 C 466.432 443.854, 466.242 445.100, 466.511 445.834 C 466.790 446.593, 466.463 446.988, 465.751 446.750 C 465.063 446.521, 464.493 445.921, 464.485 445.417 C 464.460 443.954, 462.972 442, 461.882 442 C 461.332 442, 461.160 442.450, 461.500 443 C 461.840 443.550, 461.641 444, 461.059 444 C 460.477 444, 459.971 444.788, 459.937 445.750 C 459.888 447.083, 459.656 446.959, 458.963 445.234 C 458.150 443.212, 457.593 443.038, 453.776 443.620 C 451.424 443.979, 449.050 444.613, 448.500 445.029 C 446.792 446.319, 439.080 445.652, 438.509 444.164 C 438.200 443.357, 437.299 443.055, 436.322 443.430 C 435.408 443.781, 434.337 443.545, 433.942 442.906 C 433.547 442.267, 432.701 442.066, 432.063 442.461 C 431.184 443.004, 431.187 443.520, 432.074 444.589 C 433.648 446.486, 432.251 446.394, 430.331 444.474 C 429.492 443.635, 429.060 442.285, 429.371 441.474 C 429.683 440.663, 429.839 440.053, 429.719 440.118 C 429.598 440.183, 428.150 440.525, 426.500 440.878 M 470.080 465.750 C 469.328 467.042, 469.053 467.123, 469.030 466.059 C 469.008 464.995, 468.646 465.101, 467.649 466.466 C 466.583 467.923, 464.554 468.414, 458.042 468.791 C 449.887 469.264, 449.799 469.243, 450.916 467.157 C 451.896 465.326, 451.811 465.131, 450.273 465.693 C 449.298 466.049, 447.427 467.164, 446.115 468.170 C 443.467 470.202, 442 470.504, 442 469.019 C 442 468.480, 443.125 467.756, 444.500 467.411 C 445.875 467.066, 447 466.382, 447 465.892 C 447 464.595, 446.553 464.731, 441.449 467.580 C 438.907 469, 436.542 469.875, 436.193 469.526 C 435.844 469.177, 436.220 468.473, 437.029 467.961 C 438.188 467.228, 438.018 467.027, 436.225 467.015 C 433.266 466.995, 432 470.338, 432 478.172 C 432 482.605, 432.334 484.086, 433.254 483.733 C 434.075 483.418, 434.521 484.243, 434.546 486.126 C 434.567 487.707, 434.212 489, 433.757 489 C 433.302 489, 433.374 489.831, 433.918 490.847 C 434.579 492.082, 434.562 493.038, 433.866 493.734 C 433.146 494.454, 433.160 494.981, 433.913 495.446 C 434.511 495.816, 435 495.641, 435 495.059 C 435 494.477, 435.398 494, 435.883 494 C 437.182 494, 437.967 497.844, 436.750 498.250 C 436.045 498.485, 436.064 499.252, 436.811 500.646 C 438.168 503.182, 437.027 507.500, 435 507.500 C 433.408 507.500, 432.729 512.715, 434.203 513.625 C 434.641 513.896, 435 513.641, 435 513.059 C 435 512.477, 435.402 512, 435.893 512 C 437.199 512, 438.292 515.403, 437.112 515.796 C 436.513 515.996, 436.347 518.135, 436.700 521.113 C 437.025 523.857, 436.888 526.022, 436.395 525.930 C 434.112 525.505, 433 526.156, 433 527.917 C 433 528.971, 433.474 529.991, 434.053 530.184 C 436.239 530.913, 437.317 540.333, 437.063 556.500 C 436.992 561.070, 436.712 562.142, 435.890 561 C 435.026 559.798, 434.956 559.898, 435.538 561.500 C 435.938 562.600, 436.492 567.306, 436.769 571.958 C 437.244 579.933, 437.175 580.318, 435.565 578.708 C 433.228 576.371, 432.850 576.555, 433.627 579.649 C 434.095 581.514, 433.952 582.089, 433.146 581.590 C 432.426 581.146, 432 581.648, 432 582.941 C 432 584.073, 432.450 585, 433 585 C 433.550 585, 434 585.702, 434 586.559 C 434 587.416, 433.550 587.840, 433 587.500 C 432.450 587.160, 432 587.584, 432 588.441 C 432 589.298, 432.398 590, 432.883 590 C 433.369 590, 434.011 590.936, 434.310 592.079 C 434.707 593.597, 434.469 594.010, 433.427 593.610 C 432.642 593.309, 432 593.280, 432 593.545 C 432 594.260, 434.255 598.151, 436.250 600.878 C 438.212 603.559, 438.481 605, 437.019 605 C 436.480 605, 435.756 603.875, 435.411 602.500 C 435.066 601.125, 434.382 600, 433.892 600 C 432.599 600, 432.733 600.451, 435.500 605.407 C 438.256 610.343, 438.440 611, 437.067 611 C 436.554 611, 435.849 610.100, 435.500 609 C 435.151 607.900, 434.356 607, 433.733 607 C 432.927 607, 432.946 607.346, 433.800 608.200 C 435.376 609.776, 435.343 612.996, 433.750 613.015 C 432.917 613.026, 433 613.354, 434 614 C 434.825 614.533, 435.050 614.977, 434.500 614.985 C 433.950 614.994, 433.435 616.123, 433.356 617.494 C 433.277 618.865, 433.615 619.738, 434.106 619.434 C 434.598 619.131, 435 619.359, 435 619.941 C 435 620.523, 434.550 621, 434 621 C 433.450 621, 433 621.927, 433 623.059 C 433 624.191, 433.400 624.871, 433.889 624.569 C 435.138 623.796, 437.093 635.027, 437.314 644.251 C 437.416 648.514, 437.347 652.002, 437.160 652.001 C 436.973 652.001, 435.954 650.987, 434.894 649.750 C 432.968 647.500, 432.968 647.500, 434.116 650.189 C 435.061 652.399, 434.975 653.168, 433.633 654.510 C 431.805 656.338, 431.461 657.451, 433.021 656.487 C 433.622 656.116, 434.057 657.018, 434.078 658.678 C 434.097 660.230, 434.200 664.130, 434.306 667.345 C 434.413 670.560, 434.163 673.399, 433.750 673.654 C 432.458 674.453, 432.932 678.862, 434.400 679.700 C 435.657 680.418, 438.315 692.927, 437.415 693.892 C 437.214 694.107, 436.126 693.207, 434.997 691.892 C 433.373 689.999, 433.489 690.509, 435.553 694.336 C 436.987 696.996, 437.838 699.471, 437.443 699.836 C 437.049 700.201, 436.486 699.825, 436.192 699 C 435.899 698.175, 435.104 699.957, 434.425 702.960 C 433.430 707.365, 433.440 708.621, 434.476 709.460 C 435.950 710.653, 437.180 715.028, 437.369 719.751 C 437.507 723.173, 437.064 723.664, 435.369 721.969 C 434.660 721.260, 434.483 721.931, 434.803 724.111 C 435.126 726.312, 434.921 727.069, 434.134 726.583 C 432.608 725.640, 432.731 726.549, 435 733 C 436.064 736.025, 436.949 741.140, 436.967 744.367 C 437 750.233, 437 750.233, 439.750 749.585 C 443.569 748.685, 443.838 748.665, 449.821 748.842 C 454.891 748.993, 455.060 749.083, 453.390 750.750 C 451.720 752.417, 451.846 752.532, 456.068 753.176 C 458.506 753.548, 465.090 753.885, 470.700 753.926 C 479.409 753.989, 481.050 753.744, 481.920 752.250 C 482.672 750.958, 482.947 750.877, 482.970 751.941 C 482.991 752.972, 483.404 752.830, 484.419 751.441 C 485.696 749.694, 487.243 749.483, 499.891 749.335 C 510.122 749.215, 513.883 749.487, 513.722 750.335 C 513.600 750.976, 514.318 751.432, 515.319 751.350 C 516.601 751.244, 516.969 751.686, 516.566 752.850 C 516.053 754.332, 516.129 754.328, 517.316 752.808 C 519.570 749.919, 525.902 748.358, 532.500 749.064 C 535.800 749.417, 537.986 749.772, 537.357 749.853 C 536.728 749.934, 535.953 750.681, 535.634 751.512 C 535.178 752.700, 535.588 752.891, 537.540 752.401 C 538.954 752.046, 540.667 752.309, 541.515 753.012 C 543.692 754.819, 553.689 753.807, 555.290 751.617 C 556.113 750.493, 558.556 749.695, 562.389 749.299 C 568.051 748.715, 568.199 748.760, 567.135 750.748 C 566.246 752.409, 566.361 752.925, 567.742 753.454 C 568.736 753.836, 569.888 753.506, 570.505 752.662 C 572.304 750.203, 579.008 749.011, 591.083 749.006 C 600.715 749.001, 602.667 749.253, 602.667 750.500 C 602.667 751.325, 602.179 752.007, 601.583 752.015 C 600.987 752.024, 601.175 752.467, 602 753 C 604.776 754.794, 613.685 753.917, 612.481 751.969 C 611.684 750.679, 621.659 749.037, 631 748.919 C 643.868 748.758, 645.713 748.896, 644.122 749.904 C 642.104 751.181, 643.636 752.902, 646.517 752.595 C 649.067 752.323, 651.264 751, 649.167 751 C 647.228 751, 647.858 749.270, 650 748.710 C 651.100 748.423, 652 748.574, 652 749.047 C 652 749.519, 654.303 749.633, 657.117 749.300 C 662.108 748.709, 662.206 748.746, 661.090 750.833 C 660.017 752.836, 660.104 752.911, 662.472 752.010 C 664.105 751.390, 665 751.395, 665 752.025 C 665 753.720, 667.494 753.087, 671 750.500 C 674.623 747.827, 676 747.409, 676 748.981 C 676 749.520, 674.875 750.244, 673.500 750.589 C 672.125 750.934, 671 751.618, 671 752.108 C 671 753.405, 671.447 753.269, 676.551 750.420 C 679.093 749, 681.458 748.125, 681.807 748.474 C 682.156 748.823, 681.780 749.527, 680.971 750.039 C 679.513 750.961, 680.096 751.100, 686.750 751.417 C 687.712 751.462, 688.820 751.948, 689.211 752.495 C 689.647 753.106, 690.419 752.863, 691.211 751.865 C 692.660 750.038, 696.896 748.722, 701.750 748.589 C 705.255 748.493, 705.937 749.376, 703.438 750.775 C 702.467 751.318, 705.016 751.579, 710.188 751.464 C 714.760 751.363, 718.898 751.506, 719.384 751.782 C 720.678 752.516, 726.988 752.791, 726.562 752.094 C 726.362 751.767, 727.718 751.467, 729.576 751.426 C 732.269 751.367, 732.730 751.620, 731.854 752.676 C 730.991 753.716, 731.306 754, 733.328 754 C 734.743 754, 736.359 753.212, 736.920 752.250 C 737.672 750.958, 737.947 750.877, 737.970 751.941 C 737.992 753.026, 738.324 752.939, 739.310 751.590 C 740.316 750.215, 742.699 749.627, 749.560 749.063 C 754.477 748.658, 758.676 748.467, 758.892 748.639 C 759.107 748.810, 758.423 749.749, 757.371 750.725 C 756.318 751.701, 755.895 752.163, 756.429 751.750 C 758.051 750.497, 760.201 750.904, 761.714 752.750 C 762.503 753.712, 762.873 753.954, 762.537 753.286 C 761.772 751.766, 770.872 751.722, 772.750 753.237 C 773.587 753.912, 774 753.912, 774 753.239 C 774 751.580, 777.839 751.101, 779.086 752.603 C 779.723 753.371, 780.752 753.993, 781.372 753.985 C 781.993 753.976, 781.825 753.524, 781 752.980 C 779.847 752.219, 780.194 752.011, 782.500 752.081 C 784.150 752.131, 786.507 751.857, 787.738 751.473 C 789.330 750.975, 790.154 751.238, 790.595 752.387 C 791.256 754.110, 793.613 754.587, 794.167 753.109 C 794.358 752.599, 796.634 752.573, 799.500 753.050 C 808.025 754.467, 812.782 754.203, 813.920 752.250 C 814.672 750.958, 814.947 750.877, 814.970 751.941 C 814.992 753.005, 815.354 752.899, 816.351 751.534 C 817.417 750.077, 819.446 749.586, 825.958 749.209 C 834.113 748.736, 834.201 748.757, 833.084 750.843 C 832.104 752.674, 832.189 752.869, 833.727 752.307 C 834.702 751.951, 836.573 750.836, 837.885 749.830 C 840.533 747.798, 842 747.496, 842 748.981 C 842 749.520, 840.875 750.244, 839.500 750.589 C 838.125 750.934, 837 751.618, 837 752.108 C 837 753.401, 837.451 753.267, 842.407 750.500 C 847.343 747.744, 848 747.560, 848 748.933 C 848 749.446, 847.100 750.151, 846 750.500 C 844.900 750.849, 844 751.644, 844 752.267 C 844 753.073, 844.346 753.054, 845.200 752.200 C 846.701 750.699, 850 750.627, 850 752.095 C 850 752.697, 851.993 752.022, 854.428 750.595 C 859.211 747.792, 860 747.545, 860 748.847 C 860 749.313, 858.987 750.177, 857.750 750.767 C 855.866 751.664, 856.135 751.745, 859.405 751.263 C 861.637 750.934, 863.071 751.076, 862.751 751.594 C 862.443 752.092, 863.455 752.500, 865 752.500 C 866.545 752.500, 867.600 752.163, 867.345 751.750 C 867.091 751.337, 867.359 751, 867.941 751 C 868.523 751, 869 751.450, 869 752 C 869 752.550, 870.152 753, 871.559 753 C 872.966 753, 873.860 752.583, 873.546 752.074 C 872.707 750.716, 882.235 749.097, 892 748.938 C 905.529 748.718, 905.248 748.667, 903.949 751.095 C 902.931 752.998, 903.042 753.128, 905.164 752.515 C 910.377 751.011, 911.535 750.844, 910.167 751.795 C 909.241 752.438, 910.452 752.935, 914.134 753.423 C 918.457 753.997, 919.657 753.822, 920.642 752.475 C 921.306 751.567, 923.561 750.437, 925.652 749.966 C 930.237 748.932, 947.808 748.475, 948.700 749.366 C 949.048 749.715, 948.894 750, 948.358 750 C 947.821 750, 946.509 750.682, 945.441 751.516 C 943.653 752.913, 943.725 752.936, 946.360 751.806 C 948.768 750.773, 949.401 750.828, 950.372 752.156 C 951.365 753.514, 951.709 753.536, 952.849 752.316 C 953.842 751.253, 954.511 751.179, 955.523 752.019 C 956.493 752.824, 957.435 752.838, 958.875 752.067 C 960.141 751.389, 961.098 751.350, 961.475 751.960 C 961.847 752.562, 963.062 752.473, 964.706 751.724 C 966.773 750.782, 967.430 750.789, 967.751 751.754 C 968.056 752.667, 968.677 752.708, 970.159 751.915 C 971.257 751.327, 972.796 751.092, 973.579 751.392 C 974.757 751.844, 974.728 751.301, 973.408 748.219 C 971.668 744.157, 970.196 726.569, 971.786 728.834 C 972.532 729.898, 972.882 729.797, 973.512 728.334 C 974.751 725.458, 974.898 724, 973.950 724 C 973.470 724, 972.546 722.087, 971.898 719.750 C 970.561 714.933, 970.106 703.003, 971.259 703.001 C 971.676 703.001, 971.714 700.418, 971.343 697.263 C 970.679 691.615, 970.699 691.556, 972.580 693.437 C 974.461 695.318, 974.502 695.287, 975.188 691.424 C 976.184 685.814, 976.147 681, 975.107 681 C 974.616 681, 973.936 680.275, 973.596 679.389 C 973.153 678.236, 973.407 677.942, 974.489 678.357 C 976.352 679.072, 976.355 678.913, 974.541 675.417 C 973.542 673.491, 973.400 672.223, 974.090 671.392 C 974.769 670.573, 974.756 669.967, 974.049 669.530 C 973.472 669.174, 973 668.009, 973 666.941 C 973 665.873, 972.598 665, 972.107 665 C 970.998 665, 969.743 661.924, 970.531 661.136 C 970.849 660.818, 971.527 661.220, 972.039 662.029 C 972.748 663.150, 972.973 662.859, 972.985 660.809 C 972.993 659.329, 973.419 657.859, 973.930 657.543 C 975.164 656.781, 974.612 651.996, 973.189 651.117 C 972.572 650.735, 971.753 647.747, 971.368 644.475 C 970.687 638.676, 970.716 638.573, 972.528 640.386 C 974.341 642.198, 974.406 642.198, 975.124 640.373 C 976.288 637.410, 976.112 634.219, 974.750 633.583 C 973.750 633.117, 973.750 632.883, 974.750 632.417 C 975.437 632.096, 976 631.394, 976 630.858 C 976 630.321, 975.647 630.100, 975.215 630.367 C 974.784 630.634, 974.321 628.973, 974.188 626.676 C 973.423 613.476, 973.411 606, 974.154 606 C 974.619 606, 974.962 604.538, 974.917 602.750 C 974.872 600.962, 975.097 595.112, 975.417 589.750 C 975.788 583.534, 975.636 580, 974.999 580 C 974.450 580, 974 579.298, 974 578.441 C 974 577.584, 974.450 577.160, 975 577.500 C 975.628 577.888, 976 575.690, 976 571.598 C 976 566.484, 975.590 564.692, 974.098 563.289 C 972.049 561.361, 969.669 549.323, 971.155 548.404 C 971.620 548.117, 972 548.273, 972 548.750 C 972 549.227, 972.682 550.491, 973.516 551.559 C 974.913 553.347, 974.936 553.275, 973.806 550.640 C 972.730 548.133, 972.820 547.593, 974.540 546.256 C 975.659 545.385, 975.857 544.949, 975 545.238 C 973.885 545.615, 973.523 545.007, 973.589 542.867 C 973.638 541.284, 973.975 539.691, 974.339 539.328 C 975.321 538.346, 975.139 534.204, 974.085 533.553 C 973.582 533.242, 972.983 533.552, 972.753 534.241 C 972.493 535.020, 971.879 534.643, 971.132 533.247 C 970.450 531.973, 970.346 531, 970.893 531 C 971.462 531, 971.623 528.745, 971.285 525.477 C 970.765 520.434, 970.873 520.014, 972.531 520.650 C 973.948 521.194, 974.206 520.979, 973.705 519.674 C 973.322 518.675, 973.555 517.994, 974.281 517.985 C 975.132 517.974, 975.088 517.708, 974.137 517.106 C 972.986 516.377, 972.986 516.158, 974.137 515.700 C 975.081 515.324, 975.120 515.134, 974.263 515.079 C 972.125 514.942, 970.403 508.804, 970.804 502.748 C 971.014 499.585, 971.504 497.194, 971.894 497.434 C 972.283 497.675, 972.050 494.639, 971.374 490.686 C 970.699 486.734, 970.539 483.358, 971.018 483.185 C 971.498 483.012, 971.653 480.537, 971.363 477.685 C 970.954 473.656, 971.092 472.835, 971.984 474 C 972.905 475.204, 972.993 475.007, 972.431 473 C 972.046 471.625, 971.283 470.213, 970.737 469.862 C 970.191 469.511, 970.053 468.723, 970.431 468.112 C 970.823 467.478, 970.448 467, 969.559 467 C 968.702 467, 968 466.602, 968 466.115 C 968 465.629, 965.818 465.231, 963.151 465.231 C 960.484 465.231, 957.334 464.924, 956.151 464.548 C 954.867 464.140, 954 464.295, 954 464.933 C 954 465.520, 954.525 466, 955.167 466 C 955.808 466, 956.126 466.207, 955.873 466.460 C 955.620 466.714, 954.382 466.651, 953.122 466.322 C 951.407 465.873, 951.167 465.510, 952.165 464.877 C 953.040 464.322, 952.294 464.030, 950 464.029 C 945.104 464.027, 942 465.003, 942 466.545 C 942 467.386, 940.010 468.105, 936.454 468.549 C 930.253 469.324, 929.201 468.941, 931.423 466.720 C 932.780 465.363, 932.685 465.138, 930.523 464.595 C 929.193 464.261, 921.330 464.033, 913.049 464.088 C 901.837 464.163, 897.803 464.520, 897.247 465.487 C 896.031 467.602, 889.099 468.988, 879.715 468.994 C 871.192 469, 870.962 468.939, 872.017 466.968 C 873.015 465.104, 872.881 464.992, 870.403 465.614 C 868.496 466.092, 867.910 465.955, 868.410 465.146 C 868.854 464.426, 868.352 464, 867.059 464 C 865.927 464, 865 464.450, 865 465 C 865 465.550, 864.298 466, 863.441 466 C 862.584 466, 862.160 465.550, 862.500 465 C 862.840 464.450, 862.416 464, 861.559 464 C 860.702 464, 860 464.398, 860 464.883 C 860 465.369, 859.064 466.011, 857.921 466.310 C 856.411 466.705, 855.990 466.467, 856.384 465.441 C 856.817 464.314, 856.074 464.135, 852.721 464.556 C 850.408 464.847, 848.085 465.515, 847.558 466.042 C 846.080 467.520, 843.859 467.181, 842.379 465.250 C 841.319 463.867, 840.858 463.773, 840.177 464.803 C 839.704 465.519, 838.908 465.993, 838.408 465.855 C 837.909 465.717, 836.409 465.973, 835.076 466.424 C 833.242 467.046, 832.330 466.804, 831.326 465.431 C 830.597 464.434, 830 464.113, 830 464.719 C 830 466.168, 820.951 466.084, 819.063 464.617 C 817.935 463.741, 817.746 463.824, 818.187 465.004 C 818.602 466.115, 818.012 466.517, 815.925 466.545 C 813.904 466.572, 813.373 466.255, 814.058 465.430 C 815.601 463.571, 807.990 464.578, 806.107 466.482 C 804.630 467.977, 804.641 468.055, 806.250 467.447 C 807.212 467.083, 808 467.232, 808 467.776 C 808 468.321, 807.100 469.002, 806 469.290 C 804.900 469.577, 804 469.426, 804 468.953 C 804 468.481, 801.790 468.356, 799.090 468.676 C 794.710 469.194, 794.197 469.054, 794.340 467.379 C 794.553 464.885, 789.339 464.154, 787.665 466.443 C 786.992 467.362, 784.306 468.295, 781.309 468.650 C 776.474 469.222, 776.154 469.128, 776.640 467.270 C 777.395 464.382, 773.451 463.549, 770.936 466.064 C 769.729 467.271, 766.892 468.230, 763.273 468.656 C 757.816 469.297, 757.614 469.243, 759.263 467.594 C 761.428 465.429, 761.483 464.601, 759.410 465.396 C 758.535 465.732, 757.306 465.689, 756.677 465.301 C 754.670 464.060, 751.605 464.218, 747.685 465.765 C 744.936 466.849, 743.565 466.965, 742.782 466.182 C 742.062 465.462, 741.089 465.417, 739.907 466.050 C 738.750 466.669, 737.903 466.651, 737.500 466 C 737.128 465.398, 736.200 465.339, 735.189 465.851 C 733.219 466.850, 714.935 466.696, 713.269 465.666 C 712.647 465.282, 711.856 465.425, 711.510 465.984 C 711.165 466.543, 711.359 467, 711.941 467 C 713.609 467, 713.176 468.718, 711.330 469.427 C 710.411 469.779, 709.344 469.556, 708.957 468.931 C 708.466 468.136, 707.686 468.097, 706.367 468.804 C 705.328 469.360, 703.257 469.581, 701.764 469.295 C 699.553 468.872, 699.222 468.455, 699.978 467.041 C 700.781 465.541, 700.443 465.326, 697.486 465.454 C 695.604 465.535, 693.750 465.917, 693.366 466.301 C 692.315 467.351, 689 467.141, 689 466.025 C 689 465.398, 688.107 465.389, 686.500 466 C 684.893 466.611, 684 466.602, 684 465.975 C 684 464.592, 677.352 464.763, 675.042 466.206 C 673.448 467.201, 672.743 467.078, 670.995 465.495 C 669.297 463.959, 668.714 463.845, 668.051 464.918 C 667.565 465.703, 666.694 465.929, 665.942 465.464 C 665.031 464.901, 664.843 465.149, 665.293 466.321 C 665.701 467.384, 665.228 468.343, 663.963 469.020 C 661.882 470.133, 661.299 469.101, 663.031 467.369 C 663.740 466.660, 663.064 466.484, 660.872 466.805 C 658.211 467.196, 657.787 466.998, 658.318 465.614 C 658.853 464.220, 658.635 464.125, 656.957 465.023 C 655.858 465.611, 654.488 465.802, 653.913 465.446 C 653.338 465.091, 652.324 465.542, 651.661 466.449 C 650.888 467.506, 648.318 468.318, 644.492 468.713 C 638.636 469.317, 638.563 469.294, 640.426 467.431 C 642.290 465.568, 642.254 465.517, 638.461 464.620 C 635.723 463.972, 634.487 464.040, 634.216 464.853 C 634.005 465.484, 632.858 465.993, 631.667 465.985 C 629.901 465.972, 629.778 465.790, 631 465 C 632.213 464.216, 632.069 464.028, 630.250 464.015 C 629.013 464.007, 628 464.450, 628 465 C 628 465.550, 627.298 466, 626.441 466 C 625.584 466, 625.160 465.550, 625.500 465 C 625.840 464.450, 625.191 464, 624.059 464 C 622.927 464, 622 464.450, 622 465 C 622 465.550, 621.298 466, 620.441 466 C 619.584 466, 619.160 465.550, 619.500 465 C 619.840 464.450, 619.191 464, 618.059 464 C 616.927 464, 616 464.450, 616 465 C 616 465.550, 615.298 466, 614.441 466 C 613.584 466, 613.160 465.550, 613.500 465 C 613.888 464.372, 611.690 464, 607.598 464 C 602.402 464, 600.706 464.399, 599.245 465.967 C 598.027 467.274, 595.420 468.168, 591.469 468.633 C 585.826 469.296, 585.614 469.243, 587.263 467.594 C 589.534 465.323, 589.458 464.720, 587 465.500 C 585.853 465.864, 585 465.680, 585 465.067 C 585 464.480, 584.523 464, 583.941 464 C 583.359 464, 583.188 464.495, 583.562 465.100 C 584.051 465.891, 583.660 465.888, 582.167 465.089 C 580.563 464.231, 579.142 464.359, 575.904 465.655 C 571.910 467.253, 571.652 467.245, 570.358 465.474 C 569.509 464.314, 569 464.111, 569 464.934 C 569 465.868, 568.114 466.073, 565.950 465.640 C 564.273 465.305, 563.105 465.361, 563.355 465.765 C 563.605 466.169, 562.497 466.500, 560.893 466.500 C 558.821 466.500, 558.132 466.100, 558.509 465.116 C 559.261 463.155, 552.176 464.377, 550.644 466.472 C 549.985 467.372, 547.223 468.305, 544.133 468.671 C 538.953 469.284, 538.804 469.235, 539.861 467.260 C 540.853 465.405, 540.633 465.176, 537.507 464.811 C 535.291 464.552, 533.880 464.872, 533.560 465.704 C 532.886 467.461, 530.196 467.339, 528.323 465.465 C 527.167 464.309, 526.455 464.207, 525.438 465.052 C 524.695 465.668, 523.505 465.822, 522.794 465.394 C 521.762 464.774, 521.766 464.945, 522.815 466.238 C 523.935 467.621, 523.811 468.031, 521.979 469.011 C 519.530 470.322, 517.783 469.381, 520.029 467.961 C 521.115 467.274, 520.657 467.027, 518.281 467.015 C 515.835 467.004, 515.201 466.640, 515.638 465.500 C 516.328 463.702, 514.877 463.523, 513.200 465.200 C 512.540 465.860, 511.993 465.973, 511.985 465.450 C 511.976 464.928, 511.592 465.095, 511.131 465.822 C 510.008 467.593, 503.804 468.947, 496.679 468.976 C 491.208 468.999, 490.959 468.898, 492.551 467.306 C 494.143 465.714, 494.132 465.568, 492.373 464.876 C 491.343 464.472, 486.135 464.109, 480.800 464.070 C 472.570 464.011, 470.945 464.265, 470.080 465.750" stroke="none" fill="#fffcfc" fill-rule="evenodd"/><path d="" stroke="none" fill="#fcfcfc" fill-rule="evenodd"/></svg>