<svg xmlns="http://www.w3.org/2000/svg" width="123" height="128" viewBox="0 0 123 128" version="1.1"><path d="M 89.500 16.587 C 87.850 17.453, 81.622 19.961, 75.660 22.160 C 69.698 24.359, 62.679 27.420, 60.063 28.963 C 57.446 30.506, 49.949 34.584, 43.403 38.026 C 27.342 46.469, 21.501 50.456, 18.792 54.823 C 16.029 59.278, 15.798 65.516, 18.256 69.267 C 20.296 72.381, 30.865 79.710, 43 86.425 C 47.675 89.012, 54.297 93.012, 57.715 95.314 C 71.163 104.370, 84.421 112.379, 88.017 113.618 C 94.236 115.760, 101.528 112.747, 104.626 106.756 C 105.917 104.260, 106.448 99.341, 106.972 85.015 C 107.589 68.178, 107.884 65.956, 110.228 60.500 C 120.244 37.191, 117.949 26.195, 101.210 17.295 C 96.135 14.596, 93.586 14.442, 89.500 16.587 M 78 48.554 C 74.425 50.999, 67.997 55.077, 63.717 57.615 C 55.933 62.229, 55.933 62.229, 63.217 66.621 C 67.222 69.037, 72.188 72.142, 74.250 73.521 C 78 76.029, 78 76.029, 78.015 71.765 C 78.039 64.652, 81.822 51.316, 85.678 44.750 C 86.645 43.103, 84.191 44.318, 78 48.554" stroke="none" fill="#fffcfc" fill-rule="evenodd"/><path d="" stroke="none" fill="#fcfcfc" fill-rule="evenodd"/></svg>