<svg xmlns="http://www.w3.org/2000/svg" width="732" height="757" viewBox="0 0 732 757" version="1.1"><path d="M 206.272 391 C 206.272 393.475, 206.467 394.488, 206.706 393.250 C 206.944 392.012, 206.944 389.988, 206.706 388.750 C 206.467 387.512, 206.272 388.525, 206.272 391 M 493.272 391 C 493.272 393.475, 493.467 394.488, 493.706 393.250 C 493.944 392.012, 493.944 389.988, 493.706 388.750 C 493.467 387.512, 493.272 388.525, 493.272 391 M 206 397 C 206 397.733, 206.300 398.033, 206.667 397.667 C 207.033 397.300, 207.033 396.700, 206.667 396.333 C 206.300 395.967, 206 396.267, 206 397 M 493 397 C 493 397.733, 493.300 398.033, 493.667 397.667 C 494.033 397.300, 494.033 396.700, 493.667 396.333 C 493.300 395.967, 493 396.267, 493 397 M 207 413 C 207 413.733, 207.300 414.033, 207.667 413.667 C 208.033 413.300, 208.033 412.700, 207.667 412.333 C 207.300 411.967, 207 412.267, 207 413 M 492 413 C 492 413.733, 492.300 414.033, 492.667 413.667 C 493.033 413.300, 493.033 412.700, 492.667 412.333 C 492.300 411.967, 492 412.267, 492 413 M 208 420 C 208 420.733, 208.300 421.033, 208.667 420.667 C 209.033 420.300, 209.033 419.700, 208.667 419.333 C 208.300 418.967, 208 419.267, 208 420 M 491 420 C 491 420.733, 491.300 421.033, 491.667 420.667 C 492.033 420.300, 492.033 419.700, 491.667 419.333 C 491.300 418.967, 491 419.267, 491 420 M 209 427 C 209 427.733, 209.300 428.033, 209.667 427.667 C 210.033 427.300, 210.033 426.700, 209.667 426.333 C 209.300 425.967, 209 426.267, 209 427 M 490 427 C 490 427.733, 490.300 428.033, 490.667 427.667 C 491.033 427.300, 491.033 426.700, 490.667 426.333 C 490.300 425.967, 490 426.267, 490 427 M 210 432.500 C 210 432.775, 210.225 433, 210.500 433 C 210.775 433, 211 432.775, 211 432.500 C 211 432.225, 210.775 432, 210.500 432 C 210.225 432, 210 432.225, 210 432.500 M 489 432.500 C 489 432.775, 489.225 433, 489.500 433 C 489.775 433, 490 432.775, 490 432.500 C 490 432.225, 489.775 432, 489.500 432 C 489.225 432, 489 432.225, 489 432.500 M 211 435.500 C 211 435.775, 211.225 436, 211.500 436 C 211.775 436, 212 435.775, 212 435.500 C 212 435.225, 211.775 435, 211.500 435 C 211.225 435, 211 435.225, 211 435.500 M 488 435.500 C 488 435.775, 488.225 436, 488.500 436 C 488.775 436, 489 435.775, 489 435.500 C 489 435.225, 488.775 435, 488.500 435 C 488.225 435, 488 435.225, 488 435.500 M 212 439.500 C 212 439.775, 212.225 440, 212.500 440 C 212.775 440, 213 439.775, 213 439.500 C 213 439.225, 212.775 439, 212.500 439 C 212.225 439, 212 439.225, 212 439.500 M 487 439.500 C 487 439.775, 487.225 440, 487.500 440 C 487.775 440, 488 439.775, 488 439.500 C 488 439.225, 487.775 439, 487.500 439 C 487.225 439, 487 439.225, 487 439.500 M 213 443.500 C 213 443.775, 213.225 444, 213.500 444 C 213.775 444, 214 443.775, 214 443.500 C 214 443.225, 213.775 443, 213.500 443 C 213.225 443, 213 443.225, 213 443.500 M 486 443.500 C 486 443.775, 486.225 444, 486.500 444 C 486.775 444, 487 443.775, 487 443.500 C 487 443.225, 486.775 443, 486.500 443 C 486.225 443, 486 443.225, 486 443.500 M 214 447.500 C 214 447.775, 214.225 448, 214.500 448 C 214.775 448, 215 447.775, 215 447.500 C 215 447.225, 214.775 447, 214.500 447 C 214.225 447, 214 447.225, 214 447.500 M 485 447.500 C 485 447.775, 485.225 448, 485.500 448 C 485.775 448, 486 447.775, 486 447.500 C 486 447.225, 485.775 447, 485.500 447 C 485.225 447, 485 447.225, 485 447.500 M 215 450.500 C 215 450.775, 215.225 451, 215.500 451 C 215.775 451, 216 450.775, 216 450.500 C 216 450.225, 215.775 450, 215.500 450 C 215.225 450, 215 450.225, 215 450.500 M 484 450.500 C 484 450.775, 484.225 451, 484.500 451 C 484.775 451, 485 450.775, 485 450.500 C 485 450.225, 484.775 450, 484.500 450 C 484.225 450, 484 450.225, 484 450.500 M 216 452.500 C 216 452.775, 216.225 453, 216.500 453 C 216.775 453, 217 452.775, 217 452.500 C 217 452.225, 216.775 452, 216.500 452 C 216.225 452, 216 452.225, 216 452.500 M 483 452.500 C 483 452.775, 483.225 453, 483.500 453 C 483.775 453, 484 452.775, 484 452.500 C 484 452.225, 483.775 452, 483.500 452 C 483.225 452, 483 452.225, 483 452.500 M 217 455.500 C 217 455.775, 217.225 456, 217.500 456 C 217.775 456, 218 455.775, 218 455.500 C 218 455.225, 217.775 455, 217.500 455 C 217.225 455, 217 455.225, 217 455.500 M 482 455.500 C 482 455.775, 482.225 456, 482.500 456 C 482.775 456, 483 455.775, 483 455.500 C 483 455.225, 482.775 455, 482.500 455 C 482.225 455, 482 455.225, 482 455.500 M 218 458.500 C 218 458.775, 218.225 459, 218.500 459 C 218.775 459, 219 458.775, 219 458.500 C 219 458.225, 218.775 458, 218.500 458 C 218.225 458, 218 458.225, 218 458.500 M 481 458.500 C 481 458.775, 481.225 459, 481.500 459 C 481.775 459, 482 458.775, 482 458.500 C 482 458.225, 481.775 458, 481.500 458 C 481.225 458, 481 458.225, 481 458.500 M 219 460.500 C 219 460.775, 219.225 461, 219.500 461 C 219.775 461, 220 460.775, 220 460.500 C 220 460.225, 219.775 460, 219.500 460 C 219.225 460, 219 460.225, 219 460.500 M 480 460.500 C 480 460.775, 480.225 461, 480.500 461 C 480.775 461, 481 460.775, 481 460.500 C 481 460.225, 480.775 460, 480.500 460 C 480.225 460, 480 460.225, 480 460.500 M 220 463.500 C 220 463.775, 220.225 464, 220.500 464 C 220.775 464, 221 463.775, 221 463.500 C 221 463.225, 220.775 463, 220.500 463 C 220.225 463, 220 463.225, 220 463.500 M 479 463.500 C 479 463.775, 479.225 464, 479.500 464 C 479.775 464, 480 463.775, 480 463.500 C 480 463.225, 479.775 463, 479.500 463 C 479.225 463, 479 463.225, 479 463.500 M 221 465.500 C 221 465.775, 221.225 466, 221.500 466 C 221.775 466, 222 465.775, 222 465.500 C 222 465.225, 221.775 465, 221.500 465 C 221.225 465, 221 465.225, 221 465.500 M 478 465.500 C 478 465.775, 478.225 466, 478.500 466 C 478.775 466, 479 465.775, 479 465.500 C 479 465.225, 478.775 465, 478.500 465 C 478.225 465, 478 465.225, 478 465.500 M 223 469.500 C 223 469.775, 223.225 470, 223.500 470 C 223.775 470, 224 469.775, 224 469.500 C 224 469.225, 223.775 469, 223.500 469 C 223.225 469, 223 469.225, 223 469.500 M 476 469.500 C 476 469.775, 476.225 470, 476.500 470 C 476.775 470, 477 469.775, 477 469.500 C 477 469.225, 476.775 469, 476.500 469 C 476.225 469, 476 469.225, 476 469.500 M 224 471.500 C 224 471.775, 224.225 472, 224.500 472 C 224.775 472, 225 471.775, 225 471.500 C 225 471.225, 224.775 471, 224.500 471 C 224.225 471, 224 471.225, 224 471.500 M 475 471.500 C 475 471.775, 475.225 472, 475.500 472 C 475.775 472, 476 471.775, 476 471.500 C 476 471.225, 475.775 471, 475.500 471 C 475.225 471, 475 471.225, 475 471.500 M 225 473.500 C 225 473.775, 225.225 474, 225.500 474 C 225.775 474, 226 473.775, 226 473.500 C 226 473.225, 225.775 473, 225.500 473 C 225.225 473, 225 473.225, 225 473.500 M 474 473.500 C 474 473.775, 474.225 474, 474.500 474 C 474.775 474, 475 473.775, 475 473.500 C 475 473.225, 474.775 473, 474.500 473 C 474.225 473, 474 473.225, 474 473.500 M 226 475.500 C 226 475.775, 226.225 476, 226.500 476 C 226.775 476, 227 475.775, 227 475.500 C 227 475.225, 226.775 475, 226.500 475 C 226.225 475, 226 475.225, 226 475.500 M 473 475.500 C 473 475.775, 473.225 476, 473.500 476 C 473.775 476, 474 475.775, 474 475.500 C 474 475.225, 473.775 475, 473.500 475 C 473.225 475, 473 475.225, 473 475.500 M 227 477.500 C 227 477.775, 227.225 478, 227.500 478 C 227.775 478, 228 477.775, 228 477.500 C 228 477.225, 227.775 477, 227.500 477 C 227.225 477, 227 477.225, 227 477.500 M 472 477.500 C 472 477.775, 472.225 478, 472.500 478 C 472.775 478, 473 477.775, 473 477.500 C 473 477.225, 472.775 477, 472.500 477 C 472.225 477, 472 477.225, 472 477.500 M 230 482.500 C 230 482.775, 230.225 483, 230.500 483 C 230.775 483, 231 482.775, 231 482.500 C 231 482.225, 230.775 482, 230.500 482 C 230.225 482, 230 482.225, 230 482.500 M 469 482.500 C 469 482.775, 469.225 483, 469.500 483 C 469.775 483, 470 482.775, 470 482.500 C 470 482.225, 469.775 482, 469.500 482 C 469.225 482, 469 482.225, 469 482.500 M 231 484.500 C 231 484.775, 231.225 485, 231.500 485 C 231.775 485, 232 484.775, 232 484.500 C 232 484.225, 231.775 484, 231.500 484 C 231.225 484, 231 484.225, 231 484.500 M 468 484.500 C 468 484.775, 468.225 485, 468.500 485 C 468.775 485, 469 484.775, 469 484.500 C 469 484.225, 468.775 484, 468.500 484 C 468.225 484, 468 484.225, 468 484.500 M 233.500 488 C 233.840 488.550, 234.343 489, 234.618 489 C 234.893 489, 234.840 488.550, 234.500 488 C 234.160 487.450, 233.657 487, 233.382 487 C 233.107 487, 233.160 487.450, 233.500 488 M 465.405 488.155 C 464.962 488.870, 465.130 489.038, 465.845 488.595 C 466.998 487.883, 467.393 487, 466.559 487 C 466.316 487, 465.797 487.520, 465.405 488.155 M 236.500 492 C 236.840 492.550, 237.343 493, 237.618 493 C 237.893 493, 237.840 492.550, 237.500 492 C 237.160 491.450, 236.657 491, 236.382 491 C 236.107 491, 236.160 491.450, 236.500 492 M 462.405 492.155 C 461.962 492.870, 462.130 493.038, 462.845 492.595 C 463.480 492.203, 464 491.684, 464 491.441 C 464 490.607, 463.117 491.002, 462.405 492.155 M 239 495.500 C 239 495.775, 239.225 496, 239.500 496 C 239.775 496, 240 495.775, 240 495.500 C 240 495.225, 239.775 495, 239.500 495 C 239.225 495, 239 495.225, 239 495.500 M 460 495.500 C 460 495.775, 460.225 496, 460.500 496 C 460.775 496, 461 495.775, 461 495.500 C 461 495.225, 460.775 495, 460.500 495 C 460.225 495, 460 495.225, 460 495.500 M 242 499.500 C 242 499.775, 242.225 500, 242.500 500 C 242.775 500, 243 499.775, 243 499.500 C 243 499.225, 242.775 499, 242.500 499 C 242.225 499, 242 499.225, 242 499.500 M 457 499.500 C 457 499.775, 457.225 500, 457.500 500 C 457.775 500, 458 499.775, 458 499.500 C 458 499.225, 457.775 499, 457.500 499 C 457.225 499, 457 499.225, 457 499.500 M 254 512.500 C 254 512.775, 254.225 513, 254.500 513 C 254.775 513, 255 512.775, 255 512.500 C 255 512.225, 254.775 512, 254.500 512 C 254.225 512, 254 512.225, 254 512.500 M 445 512.500 C 445 512.775, 445.225 513, 445.500 513 C 445.775 513, 446 512.775, 446 512.500 C 446 512.225, 445.775 512, 445.500 512 C 445.225 512, 445 512.225, 445 512.500 M 256 514.500 C 256 514.775, 256.225 515, 256.500 515 C 256.775 515, 257 514.775, 257 514.500 C 257 514.225, 256.775 514, 256.500 514 C 256.225 514, 256 514.225, 256 514.500 M 443 514.500 C 443 514.775, 443.225 515, 443.500 515 C 443.775 515, 444 514.775, 444 514.500 C 444 514.225, 443.775 514, 443.500 514 C 443.225 514, 443 514.225, 443 514.500 M 260.500 518 C 260.840 518.550, 261.343 519, 261.618 519 C 261.893 519, 261.840 518.550, 261.500 518 C 261.160 517.450, 260.657 517, 260.382 517 C 260.107 517, 260.160 517.450, 260.500 518 M 438.405 518.155 C 437.962 518.870, 438.130 519.038, 438.845 518.595 C 439.998 517.883, 440.393 517, 439.559 517 C 439.316 517, 438.797 517.520, 438.405 518.155 M 264 520.500 C 264 520.775, 264.225 521, 264.500 521 C 264.775 521, 265 520.775, 265 520.500 C 265 520.225, 264.775 520, 264.500 520 C 264.225 520, 264 520.225, 264 520.500 M 435 520.500 C 435 520.775, 435.225 521, 435.500 521 C 435.775 521, 436 520.775, 436 520.500 C 436 520.225, 435.775 520, 435.500 520 C 435.225 520, 435 520.225, 435 520.500 M 268.500 524 C 268.840 524.550, 269.343 525, 269.618 525 C 269.893 525, 269.840 524.550, 269.500 524 C 269.160 523.450, 268.657 523, 268.382 523 C 268.107 523, 268.160 523.450, 268.500 524 M 430.405 524.155 C 429.962 524.870, 430.130 525.038, 430.845 524.595 C 431.998 523.883, 432.393 523, 431.559 523 C 431.316 523, 430.797 523.520, 430.405 524.155 M 272.500 527 C 272.840 527.550, 273.343 528, 273.618 528 C 273.893 528, 273.840 527.550, 273.500 527 C 273.160 526.450, 272.657 526, 272.382 526 C 272.107 526, 272.160 526.450, 272.500 527 M 426.405 527.155 C 425.962 527.870, 426.130 528.038, 426.845 527.595 C 427.998 526.883, 428.393 526, 427.559 526 C 427.316 526, 426.797 526.520, 426.405 527.155 M 275 528.500 C 275 528.775, 275.225 529, 275.500 529 C 275.775 529, 276 528.775, 276 528.500 C 276 528.225, 275.775 528, 275.500 528 C 275.225 528, 275 528.225, 275 528.500 M 424 528.500 C 424 528.775, 424.225 529, 424.500 529 C 424.775 529, 425 528.775, 425 528.500 C 425 528.225, 424.775 528, 424.500 528 C 424.225 528, 424 528.225, 424 528.500 M 278 530.500 C 278 530.775, 278.225 531, 278.500 531 C 278.775 531, 279 530.775, 279 530.500 C 279 530.225, 278.775 530, 278.500 530 C 278.225 530, 278 530.225, 278 530.500 M 421 530.500 C 421 530.775, 421.225 531, 421.500 531 C 421.775 531, 422 530.775, 422 530.500 C 422 530.225, 421.775 530, 421.500 530 C 421.225 530, 421 530.225, 421 530.500 M 280 531.500 C 280 531.775, 280.225 532, 280.500 532 C 280.775 532, 281 531.775, 281 531.500 C 281 531.225, 280.775 531, 280.500 531 C 280.225 531, 280 531.225, 280 531.500 M 419 531.500 C 419 531.775, 419.225 532, 419.500 532 C 419.775 532, 420 531.775, 420 531.500 C 420 531.225, 419.775 531, 419.500 531 C 419.225 531, 419 531.225, 419 531.500 M 292 537.500 C 292 537.775, 292.225 538, 292.500 538 C 292.775 538, 293 537.775, 293 537.500 C 293 537.225, 292.775 537, 292.500 537 C 292.225 537, 292 537.225, 292 537.500 M 407 537.500 C 407 537.775, 407.225 538, 407.500 538 C 407.775 538, 408 537.775, 408 537.500 C 408 537.225, 407.775 537, 407.500 537 C 407.225 537, 407 537.225, 407 537.500 M 294 538.500 C 294 538.775, 294.225 539, 294.500 539 C 294.775 539, 295 538.775, 295 538.500 C 295 538.225, 294.775 538, 294.500 538 C 294.225 538, 294 538.225, 294 538.500 M 405 538.500 C 405 538.775, 405.225 539, 405.500 539 C 405.775 539, 406 538.775, 406 538.500 C 406 538.225, 405.775 538, 405.500 538 C 405.225 538, 405 538.225, 405 538.500 M 297 539.500 C 297 539.775, 297.225 540, 297.500 540 C 297.775 540, 298 539.775, 298 539.500 C 298 539.225, 297.775 539, 297.500 539 C 297.225 539, 297 539.225, 297 539.500 M 402 539.500 C 402 539.775, 402.225 540, 402.500 540 C 402.775 540, 403 539.775, 403 539.500 C 403 539.225, 402.775 539, 402.500 539 C 402.225 539, 402 539.225, 402 539.500 M 299 540.500 C 299 540.775, 299.225 541, 299.500 541 C 299.775 541, 300 540.775, 300 540.500 C 300 540.225, 299.775 540, 299.500 540 C 299.225 540, 299 540.225, 299 540.500 M 400 540.500 C 400 540.775, 400.225 541, 400.500 541 C 400.775 541, 401 540.775, 401 540.500 C 401 540.225, 400.775 540, 400.500 540 C 400.225 540, 400 540.225, 400 540.500 M 302 541.500 C 302 541.775, 302.225 542, 302.500 542 C 302.775 542, 303 541.775, 303 541.500 C 303 541.225, 302.775 541, 302.500 541 C 302.225 541, 302 541.225, 302 541.500 M 397 541.500 C 397 541.775, 397.225 542, 397.500 542 C 397.775 542, 398 541.775, 398 541.500 C 398 541.225, 397.775 541, 397.500 541 C 397.225 541, 397 541.225, 397 541.500 M 305 542.500 C 305 542.775, 305.225 543, 305.500 543 C 305.775 543, 306 542.775, 306 542.500 C 306 542.225, 305.775 542, 305.500 542 C 305.225 542, 305 542.225, 305 542.500 M 394 542.500 C 394 542.775, 394.225 543, 394.500 543 C 394.775 543, 395 542.775, 395 542.500 C 395 542.225, 394.775 542, 394.500 542 C 394.225 542, 394 542.225, 394 542.500 M 308 543.500 C 308 543.775, 308.225 544, 308.500 544 C 308.775 544, 309 543.775, 309 543.500 C 309 543.225, 308.775 543, 308.500 543 C 308.225 543, 308 543.225, 308 543.500 M 391 543.500 C 391 543.775, 391.225 544, 391.500 544 C 391.775 544, 392 543.775, 392 543.500 C 392 543.225, 391.775 543, 391.500 543 C 391.225 543, 391 543.225, 391 543.500 M 312 544.500 C 312 544.775, 312.225 545, 312.500 545 C 312.775 545, 313 544.775, 313 544.500 C 313 544.225, 312.775 544, 312.500 544 C 312.225 544, 312 544.225, 312 544.500 M 387 544.500 C 387 544.775, 387.225 545, 387.500 545 C 387.775 545, 388 544.775, 388 544.500 C 388 544.225, 387.775 544, 387.500 544 C 387.225 544, 387 544.225, 387 544.500 M 316.333 545.667 C 316.700 546.033, 317.300 546.033, 317.667 545.667 C 318.033 545.300, 317.733 545, 317 545 C 316.267 545, 315.967 545.300, 316.333 545.667 M 382.333 545.667 C 382.700 546.033, 383.300 546.033, 383.667 545.667 C 384.033 545.300, 383.733 545, 383 545 C 382.267 545, 381.967 545.300, 382.333 545.667 M 322.269 546.693 C 323.242 546.947, 324.592 546.930, 325.269 546.656 C 325.946 546.382, 325.150 546.175, 323.500 546.195 C 321.850 546.215, 321.296 546.439, 322.269 546.693 M 375.269 546.693 C 376.242 546.947, 377.592 546.930, 378.269 546.656 C 378.946 546.382, 378.150 546.175, 376.500 546.195 C 374.850 546.215, 374.296 546.439, 375.269 546.693 M 338 547.500 C 338 547.775, 338.225 548, 338.500 548 C 338.775 548, 339 547.775, 339 547.500 C 339 547.225, 338.775 547, 338.500 547 C 338.225 547, 338 547.225, 338 547.500 M 361 547.500 C 361 547.775, 361.225 548, 361.500 548 C 361.775 548, 362 547.775, 362 547.500 C 362 547.225, 361.775 547, 361.500 547 C 361.225 547, 361 547.225, 361 547.500 M 347.250 548.716 C 348.762 548.945, 351.238 548.945, 352.750 548.716 C 354.262 548.487, 353.025 548.300, 350 548.300 C 346.975 548.300, 345.738 548.487, 347.250 548.716 M 608 585.068 C 602.225 590.231, 588.275 602.974, 577 613.385 C 546.699 641.365, 535.897 649.710, 519.896 657.498 C 512.210 661.238, 509.673 662, 504.899 662 C 494.117 662, 490.217 655.443, 491.375 639.264 C 492.722 620.466, 493.115 595.495, 492.087 594 C 489.370 590.045, 484.475 598.430, 477.075 619.712 C 471.027 637.106, 464.894 649.188, 457.244 658.781 C 450.371 667.401, 444.934 671.254, 436.382 673.569 C 425.270 676.577, 416.806 673.454, 402.504 661.065 C 398.112 657.261, 394.402 654.265, 394.260 654.407 C 394.118 654.549, 395.631 660.478, 397.622 667.583 C 404.745 693.001, 406.088 699.262, 405.454 704.105 C 404.748 709.504, 404.893 709.693, 416.085 717.998 C 430.659 728.813, 449.280 736.827, 468.730 740.654 C 475.035 741.894, 482.279 742.365, 494.500 742.329 C 509.869 742.283, 513.803 741.874, 535.500 738.072 C 576.339 730.916, 597.474 728.004, 608.595 728.001 C 613.690 728, 613.690 728, 611.668 722.250 C 610.108 717.813, 609.548 713.163, 609.217 701.884 C 608.780 686.989, 611.014 663.744, 616.029 630.996 C 618.443 615.239, 620.246 587.049, 619.254 580.590 C 618.500 575.680, 618.500 575.680, 608 585.068 M 487 585.500 C 487 585.775, 487.225 586, 487.500 586 C 487.775 586, 488 585.775, 488 585.500 C 488 585.225, 487.775 585, 487.500 585 C 487.225 585, 487 585.225, 487 585.500 M 495.500 586 C 495.840 586.550, 496.343 587, 496.618 587 C 496.893 587, 496.840 586.550, 496.500 586 C 496.160 585.450, 495.657 585, 495.382 585 C 495.107 585, 495.160 585.450, 495.500 586 M 482.405 588.250 C 480.500 590.500, 480.500 590.500, 482.750 588.595 C 484.864 586.805, 485.455 586, 484.655 586 C 484.465 586, 483.453 587.013, 482.405 588.250 M 498.500 589 C 498.840 589.550, 499.343 590, 499.618 590 C 499.893 590, 499.840 589.550, 499.500 589 C 499.160 588.450, 498.657 588, 498.382 588 C 498.107 588, 498.160 588.450, 498.500 589 M 500 593 C 500 593.733, 500.300 594.033, 500.667 593.667 C 501.033 593.300, 501.033 592.700, 500.667 592.333 C 500.300 591.967, 500 592.267, 500 593 M 478 593.500 C 478 593.775, 478.225 594, 478.500 594 C 478.775 594, 479 593.775, 479 593.500 C 479 593.225, 478.775 593, 478.500 593 C 478.225 593, 478 593.225, 478 593.500 M 477 595.500 C 477 595.775, 477.225 596, 477.500 596 C 477.775 596, 478 595.775, 478 595.500 C 478 595.225, 477.775 595, 477.500 595 C 477.225 595, 477 595.225, 477 595.500 M 476 597.500 C 476 597.775, 476.225 598, 476.500 598 C 476.775 598, 477 597.775, 477 597.500 C 477 597.225, 476.775 597, 476.500 597 C 476.225 597, 476 597.225, 476 597.500 M 501.195 600.500 C 501.215 602.150, 501.439 602.704, 501.693 601.731 C 501.947 600.758, 501.930 599.408, 501.656 598.731 C 501.382 598.054, 501.175 598.850, 501.195 600.500 M 475 599.500 C 475 599.775, 475.225 600, 475.500 600 C 475.775 600, 476 599.775, 476 599.500 C 476 599.225, 475.775 599, 475.500 599 C 475.225 599, 475 599.225, 475 599.500 M 474 601.500 C 474 601.775, 474.225 602, 474.500 602 C 474.775 602, 475 601.775, 475 601.500 C 475 601.225, 474.775 601, 474.500 601 C 474.225 601, 474 601.225, 474 601.500 M 473 603.500 C 473 603.775, 473.225 604, 473.500 604 C 473.775 604, 474 603.775, 474 603.500 C 474 603.225, 473.775 603, 473.500 603 C 473.225 603, 473 603.225, 473 603.500 M 472 606 C 472 606.733, 472.300 607.033, 472.667 606.667 C 473.033 606.300, 473.033 605.700, 472.667 605.333 C 472.300 604.967, 472 605.267, 472 606 M 471 609.500 C 471 609.775, 471.225 610, 471.500 610 C 471.775 610, 472 609.775, 472 609.500 C 472 609.225, 471.775 609, 471.500 609 C 471.225 609, 471 609.225, 471 609.500 M 470 611.500 C 470 611.775, 470.225 612, 470.500 612 C 470.775 612, 471 611.775, 471 611.500 C 471 611.225, 470.775 611, 470.500 611 C 470.225 611, 470 611.225, 470 611.500 M 469 614.500 C 469 614.775, 469.225 615, 469.500 615 C 469.775 615, 470 614.775, 470 614.500 C 470 614.225, 469.775 614, 469.500 614 C 469.225 614, 469 614.225, 469 614.500 M 468 617.500 C 468 617.775, 468.225 618, 468.500 618 C 468.775 618, 469 617.775, 469 617.500 C 469 617.225, 468.775 617, 468.500 617 C 468.225 617, 468 617.225, 468 617.500 M 467 620.500 C 467 620.775, 467.225 621, 467.500 621 C 467.775 621, 468 620.775, 468 620.500 C 468 620.225, 467.775 620, 467.500 620 C 467.225 620, 467 620.225, 467 620.500 M 466 623.500 C 466 623.775, 466.225 624, 466.500 624 C 466.775 624, 467 623.775, 467 623.500 C 467 623.225, 466.775 623, 466.500 623 C 466.225 623, 466 623.225, 466 623.500 M 465 626.500 C 465 626.775, 465.225 627, 465.500 627 C 465.775 627, 466 626.775, 466 626.500 C 466 626.225, 465.775 626, 465.500 626 C 465.225 626, 465 626.225, 465 626.500 M 464 629.500 C 464 629.775, 464.225 630, 464.500 630 C 464.775 630, 465 629.775, 465 629.500 C 465 629.225, 464.775 629, 464.500 629 C 464.225 629, 464 629.225, 464 629.500 M 463 631.500 C 463 631.775, 463.225 632, 463.500 632 C 463.775 632, 464 631.775, 464 631.500 C 464 631.225, 463.775 631, 463.500 631 C 463.225 631, 463 631.225, 463 631.500 M 462 633.500 C 462 633.775, 462.225 634, 462.500 634 C 462.775 634, 463 633.775, 463 633.500 C 463 633.225, 462.775 633, 462.500 633 C 462.225 633, 462 633.225, 462 633.500 M 389.813 640.683 C 390.534 640.972, 391.397 640.936, 391.729 640.604 C 392.061 640.272, 391.471 640.036, 390.417 640.079 C 389.252 640.127, 389.015 640.364, 389.813 640.683 M 386.405 642.155 C 385.962 642.870, 386.130 643.038, 386.845 642.595 C 387.998 641.883, 388.393 641, 387.559 641 C 387.316 641, 386.797 641.520, 386.405 642.155 M 396 644.313 C 396 644.485, 397.462 645.948, 399.250 647.563 C 402.500 650.500, 402.500 650.500, 399.563 647.250 C 396.825 644.221, 396 643.540, 396 644.313 M 241.032 654.750 C 240.325 657.913, 237.598 665.450, 234.972 671.500 C 229.447 684.231, 227 691.975, 227 696.727 C 227 703.309, 233.723 706.984, 245.785 706.994 C 253.544 707.001, 255.817 705.633, 261.192 697.717 C 264.722 692.518, 279.940 662.646, 279.984 660.829 C 279.993 660.461, 278.538 659.852, 276.750 659.476 C 270.828 658.231, 252.570 652.718, 248.167 650.844 C 245.784 649.830, 243.493 649, 243.076 649 C 242.659 649, 241.739 651.587, 241.032 654.750 M 386.079 651.583 C 386.127 652.748, 386.364 652.985, 386.683 652.188 C 386.972 651.466, 386.936 650.603, 386.604 650.271 C 386.272 649.939, 386.036 650.529, 386.079 651.583 M 449.769 651.564 C 449.133 652.201, 428.244 658.435, 423.250 659.479 C 419.487 660.266, 419.222 661.222, 422 664 C 426.967 668.967, 441.290 664.931, 448.250 656.605 C 450.313 654.138, 452 651.867, 452 651.560 C 452 650.833, 450.497 650.837, 449.769 651.564" stroke="none" fill="#9dc9b5" fill-rule="evenodd"/><path d="M 0 378.501 C 0 757.003, 0 757.003, 366.250 756.751 C 732.500 756.500, 732.500 756.500, 732.751 378.250 C 733.003 0, 733.003 0, 366.501 0 C 0 0, 0 0, 0 378.501 M 0.495 379 C 0.495 587.175, 0.610 672.338, 0.750 568.250 C 0.890 464.163, 0.890 293.838, 0.750 189.750 C 0.610 85.663, 0.495 170.825, 0.495 379 M 256.500 50.022 C 248.982 51.531, 240.816 55.211, 235.656 59.415 C 220.024 72.153, 214.168 90.004, 215.291 121.496 C 216.235 147.963, 220.991 171.524, 236.587 227 C 245.472 258.602, 248.977 273.025, 248.980 278 C 248.982 280.774, 247.912 282.745, 243.825 287.500 C 229.141 304.584, 215.075 333.804, 210.888 355.924 C 209.671 362.347, 209.671 362.347, 194.052 377.924 C 183.405 388.541, 176.245 396.683, 171.562 403.500 C 158.057 423.154, 147.622 447.172, 142.884 469.500 C 140.235 481.989, 139.200 510.398, 140.923 523.347 C 147.577 573.349, 177.313 615.121, 224.242 640.389 C 232.678 644.931, 232.935 645.173, 231.590 647.298 C 230.823 648.509, 229.870 651.075, 229.471 653 C 229.071 654.925, 226.847 660.788, 224.527 666.030 C 217.826 681.171, 215.565 688.733, 215.566 696 C 215.569 710.069, 224.776 717.617, 243.267 718.707 C 257.160 719.526, 262.972 716.204, 272.115 702.216 C 276.552 695.428, 286.817 675.302, 288.424 670.239 C 288.815 669.008, 289.554 668, 290.067 668 C 290.580 668, 291.966 667.034, 293.148 665.852 C 295.276 663.724, 295.416 663.717, 308.398 665.102 C 321.917 666.544, 380.685 667.081, 386.500 665.815 C 389.500 665.162, 389.500 665.162, 394.928 682.078 C 399.300 695.704, 400.397 700.494, 400.571 706.711 C 400.808 715.199, 402.206 717.119, 404.381 711.945 C 405.128 710.169, 405.910 709.180, 406.119 709.746 C 406.916 711.900, 423.887 723.749, 432.657 728.274 C 452.352 738.435, 469.807 742.402, 494.500 742.329 C 509.869 742.283, 513.803 741.874, 535.500 738.072 C 586.538 729.129, 614 725.947, 614 728.977 C 614 729.514, 615.143 730.703, 616.541 731.619 C 618.576 732.952, 619.572 733.061, 621.541 732.163 C 624.599 730.770, 624.641 728.910, 621.861 717.940 C 619.976 710.504, 619.797 707.835, 620.355 695.500 C 620.704 687.800, 621.431 677.900, 621.972 673.500 C 626.339 637.983, 628.411 586.678, 625.943 575.170 C 624.653 569.154, 621.210 565.479, 617.692 566.362 C 613.851 567.326, 604.360 574.121, 593 584.040 C 582.779 592.964, 579.048 596.352, 564.476 609.947 C 537.319 635.282, 527.869 642.717, 514.786 649.044 C 501.387 655.524, 499.995 654.771, 500.011 641.050 C 500.029 625.637, 500.309 624.824, 507.816 618.415 C 532.498 597.346, 550.165 567.480, 556.936 535.381 C 559.825 521.685, 560.639 509.882, 559.827 493.500 C 558.624 469.252, 552.763 447.655, 541.284 425.181 C 531.682 406.380, 522.929 394.698, 505.526 377.455 C 490.341 362.411, 490.341 362.411, 489.119 355.955 C 484.944 333.906, 472.056 306.953, 456.823 288.413 C 452.236 282.829, 451.002 280.601, 451.009 277.913 C 451.021 273.384, 454.730 257.850, 461.494 234 C 477.859 176.298, 483.745 147.875, 484.709 121.892 C 485.821 91.965, 480.388 73.727, 466.696 61.417 C 459.493 54.941, 451.122 51.160, 440.271 49.484 C 430.662 48, 423.172 54.461, 415.099 71.199 C 402.830 96.635, 386.047 159.958, 370.758 238.500 C 368.422 250.500, 368.422 250.500, 359.211 251.354 C 354.120 251.826, 345.886 251.826, 340.802 251.354 C 331.604 250.500, 331.604 250.500, 326.819 226.500 C 307.925 131.717, 289.919 71.751, 275.708 56.285 C 269.438 49.461, 265.574 48.201, 256.500 50.022 M 207 411.500 C 207 411.775, 207.225 412, 207.500 412 C 207.775 412, 208 411.775, 208 411.500 C 208 411.225, 207.775 411, 207.500 411 C 207.225 411, 207 411.225, 207 411.500 M 492 411.500 C 492 411.775, 492.225 412, 492.500 412 C 492.775 412, 493 411.775, 493 411.500 C 493 411.225, 492.775 411, 492.500 411 C 492.225 411, 492 411.225, 492 411.500 M 208 418.500 C 208 418.775, 208.225 419, 208.500 419 C 208.775 419, 209 418.775, 209 418.500 C 209 418.225, 208.775 418, 208.500 418 C 208.225 418, 208 418.225, 208 418.500 M 491 418.500 C 491 418.775, 491.225 419, 491.500 419 C 491.775 419, 492 418.775, 492 418.500 C 492 418.225, 491.775 418, 491.500 418 C 491.225 418, 491 418.225, 491 418.500 M 209 425.500 C 209 425.775, 209.225 426, 209.500 426 C 209.775 426, 210 425.775, 210 425.500 C 210 425.225, 209.775 425, 209.500 425 C 209.225 425, 209 425.225, 209 425.500 M 490 425.500 C 490 425.775, 490.225 426, 490.500 426 C 490.775 426, 491 425.775, 491 425.500 C 491 425.225, 490.775 425, 490.500 425 C 490.225 425, 490 425.225, 490 425.500 M 210 431.500 C 210 431.775, 210.225 432, 210.500 432 C 210.775 432, 211 431.775, 211 431.500 C 211 431.225, 210.775 431, 210.500 431 C 210.225 431, 210 431.225, 210 431.500 M 489 431.500 C 489 431.775, 489.225 432, 489.500 432 C 489.775 432, 490 431.775, 490 431.500 C 490 431.225, 489.775 431, 489.500 431 C 489.225 431, 489 431.225, 489 431.500 M 212 438.500 C 212 438.775, 212.225 439, 212.500 439 C 212.775 439, 213 438.775, 213 438.500 C 213 438.225, 212.775 438, 212.500 438 C 212.225 438, 212 438.225, 212 438.500 M 487 438.500 C 487 438.775, 487.225 439, 487.500 439 C 487.775 439, 488 438.775, 488 438.500 C 488 438.225, 487.775 438, 487.500 438 C 487.225 438, 487 438.225, 487 438.500 M 213 442.500 C 213 442.775, 213.225 443, 213.500 443 C 213.775 443, 214 442.775, 214 442.500 C 214 442.225, 213.775 442, 213.500 442 C 213.225 442, 213 442.225, 213 442.500 M 486 442.500 C 486 442.775, 486.225 443, 486.500 443 C 486.775 443, 487 442.775, 487 442.500 C 487 442.225, 486.775 442, 486.500 442 C 486.225 442, 486 442.225, 486 442.500 M 214 446.500 C 214 446.775, 214.225 447, 214.500 447 C 214.775 447, 215 446.775, 215 446.500 C 215 446.225, 214.775 446, 214.500 446 C 214.225 446, 214 446.225, 214 446.500 M 485 446.500 C 485 446.775, 485.225 447, 485.500 447 C 485.775 447, 486 446.775, 486 446.500 C 486 446.225, 485.775 446, 485.500 446 C 485.225 446, 485 446.225, 485 446.500 M 215 449.500 C 215 449.775, 215.225 450, 215.500 450 C 215.775 450, 216 449.775, 216 449.500 C 216 449.225, 215.775 449, 215.500 449 C 215.225 449, 215 449.225, 215 449.500 M 484 449.500 C 484 449.775, 484.225 450, 484.500 450 C 484.775 450, 485 449.775, 485 449.500 C 485 449.225, 484.775 449, 484.500 449 C 484.225 449, 484 449.225, 484 449.500 M 218 457.500 C 218 457.775, 218.225 458, 218.500 458 C 218.775 458, 219 457.775, 219 457.500 C 219 457.225, 218.775 457, 218.500 457 C 218.225 457, 218 457.225, 218 457.500 M 481 457.500 C 481 457.775, 481.225 458, 481.500 458 C 481.775 458, 482 457.775, 482 457.500 C 482 457.225, 481.775 457, 481.500 457 C 481.225 457, 481 457.225, 481 457.500 M 220 462.500 C 220 462.775, 220.225 463, 220.500 463 C 220.775 463, 221 462.775, 221 462.500 C 221 462.225, 220.775 462, 220.500 462 C 220.225 462, 220 462.225, 220 462.500 M 479 462.500 C 479 462.775, 479.225 463, 479.500 463 C 479.775 463, 480 462.775, 480 462.500 C 480 462.225, 479.775 462, 479.500 462 C 479.225 462, 479 462.225, 479 462.500 M 222 467.500 C 222 467.775, 222.225 468, 222.500 468 C 222.775 468, 223 467.775, 223 467.500 C 223 467.225, 222.775 467, 222.500 467 C 222.225 467, 222 467.225, 222 467.500 M 477 467.500 C 477 467.775, 477.225 468, 477.500 468 C 477.775 468, 478 467.775, 478 467.500 C 478 467.225, 477.775 467, 477.500 467 C 477.225 467, 477 467.225, 477 467.500 M 227 476.500 C 227 476.775, 227.225 477, 227.500 477 C 227.775 477, 228 476.775, 228 476.500 C 228 476.225, 227.775 476, 227.500 476 C 227.225 476, 227 476.225, 227 476.500 M 472 476.500 C 472 476.775, 472.225 477, 472.500 477 C 472.775 477, 473 476.775, 473 476.500 C 473 476.225, 472.775 476, 472.500 476 C 472.225 476, 472 476.225, 472 476.500 M 228 478.500 C 228 478.775, 228.225 479, 228.500 479 C 228.775 479, 229 478.775, 229 478.500 C 229 478.225, 228.775 478, 228.500 478 C 228.225 478, 228 478.225, 228 478.500 M 471 478.500 C 471 478.775, 471.225 479, 471.500 479 C 471.775 479, 472 478.775, 472 478.500 C 472 478.225, 471.775 478, 471.500 478 C 471.225 478, 471 478.225, 471 478.500 M 229 480.500 C 229 480.775, 229.225 481, 229.500 481 C 229.775 481, 230 480.775, 230 480.500 C 230 480.225, 229.775 480, 229.500 480 C 229.225 480, 229 480.225, 229 480.500 M 470 480.500 C 470 480.775, 470.225 481, 470.500 481 C 470.775 481, 471 480.775, 471 480.500 C 471 480.225, 470.775 480, 470.500 480 C 470.225 480, 470 480.225, 470 480.500 M 232 485.500 C 232 485.775, 232.225 486, 232.500 486 C 232.775 486, 233 485.775, 233 485.500 C 233 485.225, 232.775 485, 232.500 485 C 232.225 485, 232 485.225, 232 485.500 M 467 485.500 C 467 485.775, 467.225 486, 467.500 486 C 467.775 486, 468 485.775, 468 485.500 C 468 485.225, 467.775 485, 467.500 485 C 467.225 485, 467 485.225, 467 485.500 M 235 489.500 C 235 489.775, 235.225 490, 235.500 490 C 235.775 490, 236 489.775, 236 489.500 C 236 489.225, 235.775 489, 235.500 489 C 235.225 489, 235 489.225, 235 489.500 M 464 489.500 C 464 489.775, 464.225 490, 464.500 490 C 464.775 490, 465 489.775, 465 489.500 C 465 489.225, 464.775 489, 464.500 489 C 464.225 489, 464 489.225, 464 489.500 M 240 496.500 C 240 496.775, 240.225 497, 240.500 497 C 240.775 497, 241 496.775, 241 496.500 C 241 496.225, 240.775 496, 240.500 496 C 240.225 496, 240 496.225, 240 496.500 M 459 496.500 C 459 496.775, 459.225 497, 459.500 497 C 459.775 497, 460 496.775, 460 496.500 C 460 496.225, 459.775 496, 459.500 496 C 459.225 496, 459 496.225, 459 496.500 M 243.500 501 C 243.840 501.550, 244.343 502, 244.618 502 C 244.893 502, 244.840 501.550, 244.500 501 C 244.160 500.450, 243.657 500, 243.382 500 C 243.107 500, 243.160 500.450, 243.500 501 M 455.405 501.155 C 454.962 501.870, 455.130 502.038, 455.845 501.595 C 456.480 501.203, 457 500.684, 457 500.441 C 457 499.607, 456.117 500.002, 455.405 501.155 M 259 516.500 C 259 516.775, 259.225 517, 259.500 517 C 259.775 517, 260 516.775, 260 516.500 C 260 516.225, 259.775 516, 259.500 516 C 259.225 516, 259 516.225, 259 516.500 M 440 516.500 C 440 516.775, 440.225 517, 440.500 517 C 440.775 517, 441 516.775, 441 516.500 C 441 516.225, 440.775 516, 440.500 516 C 440.225 516, 440 516.225, 440 516.500 M 263 519.500 C 263 519.775, 263.225 520, 263.500 520 C 263.775 520, 264 519.775, 264 519.500 C 264 519.225, 263.775 519, 263.500 519 C 263.225 519, 263 519.225, 263 519.500 M 436 519.500 C 436 519.775, 436.225 520, 436.500 520 C 436.775 520, 437 519.775, 437 519.500 C 437 519.225, 436.775 519, 436.500 519 C 436.225 519, 436 519.225, 436 519.500 M 271 525.500 C 271 525.775, 271.225 526, 271.500 526 C 271.775 526, 272 525.775, 272 525.500 C 272 525.225, 271.775 525, 271.500 525 C 271.225 525, 271 525.225, 271 525.500 M 428 525.500 C 428 525.775, 428.225 526, 428.500 526 C 428.775 526, 429 525.775, 429 525.500 C 429 525.225, 428.775 525, 428.500 525 C 428.225 525, 428 525.225, 428 525.500 M 277 529.500 C 277 529.775, 277.225 530, 277.500 530 C 277.775 530, 278 529.775, 278 529.500 C 278 529.225, 277.775 529, 277.500 529 C 277.225 529, 277 529.225, 277 529.500 M 422 529.500 C 422 529.775, 422.225 530, 422.500 530 C 422.775 530, 423 529.775, 423 529.500 C 423 529.225, 422.775 529, 422.500 529 C 422.225 529, 422 529.225, 422 529.500 M 282 532.500 C 282 532.775, 282.225 533, 282.500 533 C 282.775 533, 283 532.775, 283 532.500 C 283 532.225, 282.775 532, 282.500 532 C 282.225 532, 282 532.225, 282 532.500 M 417 532.500 C 417 532.775, 417.225 533, 417.500 533 C 417.775 533, 418 532.775, 418 532.500 C 418 532.225, 417.775 532, 417.500 532 C 417.225 532, 417 532.225, 417 532.500 M 284 533.500 C 284 533.775, 284.225 534, 284.500 534 C 284.775 534, 285 533.775, 285 533.500 C 285 533.225, 284.775 533, 284.500 533 C 284.225 533, 284 533.225, 284 533.500 M 415 533.500 C 415 533.775, 415.225 534, 415.500 534 C 415.775 534, 416 533.775, 416 533.500 C 416 533.225, 415.775 533, 415.500 533 C 415.225 533, 415 533.225, 415 533.500 M 286 534.500 C 286 534.775, 286.225 535, 286.500 535 C 286.775 535, 287 534.775, 287 534.500 C 287 534.225, 286.775 534, 286.500 534 C 286.225 534, 286 534.225, 286 534.500 M 413 534.500 C 413 534.775, 413.225 535, 413.500 535 C 413.775 535, 414 534.775, 414 534.500 C 414 534.225, 413.775 534, 413.500 534 C 413.225 534, 413 534.225, 413 534.500 M 288 535.500 C 288 535.775, 288.225 536, 288.500 536 C 288.775 536, 289 535.775, 289 535.500 C 289 535.225, 288.775 535, 288.500 535 C 288.225 535, 288 535.225, 288 535.500 M 411 535.500 C 411 535.775, 411.225 536, 411.500 536 C 411.775 536, 412 535.775, 412 535.500 C 412 535.225, 411.775 535, 411.500 535 C 411.225 535, 411 535.225, 411 535.500 M 290 536.500 C 290 536.775, 290.225 537, 290.500 537 C 290.775 537, 291 536.775, 291 536.500 C 291 536.225, 290.775 536, 290.500 536 C 290.225 536, 290 536.225, 290 536.500 M 409 536.500 C 409 536.775, 409.225 537, 409.500 537 C 409.775 537, 410 536.775, 410 536.500 C 410 536.225, 409.775 536, 409.500 536 C 409.225 536, 409 536.225, 409 536.500 M 295 538.500 C 295 538.775, 295.225 539, 295.500 539 C 295.775 539, 296 538.775, 296 538.500 C 296 538.225, 295.775 538, 295.500 538 C 295.225 538, 295 538.225, 295 538.500 M 404 538.500 C 404 538.775, 404.225 539, 404.500 539 C 404.775 539, 405 538.775, 405 538.500 C 405 538.225, 404.775 538, 404.500 538 C 404.225 538, 404 538.225, 404 538.500 M 300 540.500 C 300 540.775, 300.225 541, 300.500 541 C 300.775 541, 301 540.775, 301 540.500 C 301 540.225, 300.775 540, 300.500 540 C 300.225 540, 300 540.225, 300 540.500 M 399 540.500 C 399 540.775, 399.225 541, 399.500 541 C 399.775 541, 400 540.775, 400 540.500 C 400 540.225, 399.775 540, 399.500 540 C 399.225 540, 399 540.225, 399 540.500 M 303 541.500 C 303 541.775, 303.225 542, 303.500 542 C 303.775 542, 304 541.775, 304 541.500 C 304 541.225, 303.775 541, 303.500 541 C 303.225 541, 303 541.225, 303 541.500 M 396 541.500 C 396 541.775, 396.225 542, 396.500 542 C 396.775 542, 397 541.775, 397 541.500 C 397 541.225, 396.775 541, 396.500 541 C 396.225 541, 396 541.225, 396 541.500 M 306 542.500 C 306 542.775, 306.225 543, 306.500 543 C 306.775 543, 307 542.775, 307 542.500 C 307 542.225, 306.775 542, 306.500 542 C 306.225 542, 306 542.225, 306 542.500 M 393 542.500 C 393 542.775, 393.225 543, 393.500 543 C 393.775 543, 394 542.775, 394 542.500 C 394 542.225, 393.775 542, 393.500 542 C 393.225 542, 393 542.225, 393 542.500 M 309 543.500 C 309 543.775, 309.225 544, 309.500 544 C 309.775 544, 310 543.775, 310 543.500 C 310 543.225, 309.775 543, 309.500 543 C 309.225 543, 309 543.225, 309 543.500 M 390 543.500 C 390 543.775, 390.225 544, 390.500 544 C 390.775 544, 391 543.775, 391 543.500 C 391 543.225, 390.775 543, 390.500 543 C 390.225 543, 390 543.225, 390 543.500 M 318 545.500 C 318 545.775, 318.225 546, 318.500 546 C 318.775 546, 319 545.775, 319 545.500 C 319 545.225, 318.775 545, 318.500 545 C 318.225 545, 318 545.225, 318 545.500 M 381 545.500 C 381 545.775, 381.225 546, 381.500 546 C 381.775 546, 382 545.775, 382 545.500 C 382 545.225, 381.775 545, 381.500 545 C 381.225 545, 381 545.225, 381 545.500 M 327.269 546.693 C 328.242 546.947, 329.592 546.930, 330.269 546.656 C 330.946 546.382, 330.150 546.175, 328.500 546.195 C 326.850 546.215, 326.296 546.439, 327.269 546.693 M 335 546.500 C 335 546.775, 335.225 547, 335.500 547 C 335.775 547, 336 546.775, 336 546.500 C 336 546.225, 335.775 546, 335.500 546 C 335.225 546, 335 546.225, 335 546.500 M 364 546.500 C 364 546.775, 364.225 547, 364.500 547 C 364.775 547, 365 546.775, 365 546.500 C 365 546.225, 364.775 546, 364.500 546 C 364.225 546, 364 546.225, 364 546.500 M 370.269 546.693 C 371.242 546.947, 372.592 546.930, 373.269 546.656 C 373.946 546.382, 373.150 546.175, 371.500 546.195 C 369.850 546.215, 369.296 546.439, 370.269 546.693 M 339 547.500 C 339 547.775, 339.225 548, 339.500 548 C 339.775 548, 340 547.775, 340 547.500 C 340 547.225, 339.775 547, 339.500 547 C 339.225 547, 339 547.225, 339 547.500 M 360 547.500 C 360 547.775, 360.225 548, 360.500 548 C 360.775 548, 361 547.775, 361 547.500 C 361 547.225, 360.775 547, 360.500 547 C 360.225 547, 360 547.225, 360 547.500 M 494 585.500 C 494 585.775, 494.225 586, 494.500 586 C 494.775 586, 495 585.775, 495 585.500 C 495 585.225, 494.775 585, 494.500 585 C 494.225 585, 494 585.225, 494 585.500 M 485 586.500 C 485 586.775, 485.225 587, 485.500 587 C 485.775 587, 486 586.775, 486 586.500 C 486 586.225, 485.775 586, 485.500 586 C 485.225 586, 485 586.225, 485 586.500 M 497 587.500 C 497 587.775, 497.225 588, 497.500 588 C 497.775 588, 498 587.775, 498 587.500 C 498 587.225, 497.775 587, 497.500 587 C 497.225 587, 497 587.225, 497 587.500 M 499 590.500 C 499 590.775, 499.225 591, 499.500 591 C 499.775 591, 500 590.775, 500 590.500 C 500 590.225, 499.775 590, 499.500 590 C 499.225 590, 499 590.225, 499 590.500 M 479 592.500 C 479 592.775, 479.225 593, 479.500 593 C 479.775 593, 480 592.775, 480 592.500 C 480 592.225, 479.775 592, 479.500 592 C 479.225 592, 479 592.225, 479 592.500 M 500 594.500 C 500 594.775, 500.225 595, 500.500 595 C 500.775 595, 501 594.775, 501 594.500 C 501 594.225, 500.775 594, 500.500 594 C 500.225 594, 500 594.225, 500 594.500 M 501.232 606 C 501.232 607.925, 501.438 608.712, 501.689 607.750 C 501.941 606.788, 501.941 605.212, 501.689 604.250 C 501.438 603.288, 501.232 604.075, 501.232 606 M 473 604.500 C 473 604.775, 473.225 605, 473.500 605 C 473.775 605, 474 604.775, 474 604.500 C 474 604.225, 473.775 604, 473.500 604 C 473.225 604, 473 604.225, 473 604.500 M 470 612.500 C 470 612.775, 470.225 613, 470.500 613 C 470.775 613, 471 612.775, 471 612.500 C 471 612.225, 470.775 612, 470.500 612 C 470.225 612, 470 612.225, 470 612.500 M 469 615.500 C 469 615.775, 469.225 616, 469.500 616 C 469.775 616, 470 615.775, 470 615.500 C 470 615.225, 469.775 615, 469.500 615 C 469.225 615, 469 615.225, 469 615.500 M 468 618.500 C 468 618.775, 468.225 619, 468.500 619 C 468.775 619, 469 618.775, 469 618.500 C 469 618.225, 468.775 618, 468.500 618 C 468.225 618, 468 618.225, 468 618.500 M 467 621.500 C 467 621.775, 467.225 622, 467.500 622 C 467.775 622, 468 621.775, 468 621.500 C 468 621.225, 467.775 621, 467.500 621 C 467.225 621, 467 621.225, 467 621.500 M 466 624.500 C 466 624.775, 466.225 625, 466.500 625 C 466.775 625, 467 624.775, 467 624.500 C 467 624.225, 466.775 624, 466.500 624 C 466.225 624, 466 624.225, 466 624.500 M 465 627.500 C 465 627.775, 465.225 628, 465.500 628 C 465.775 628, 466 627.775, 466 627.500 C 466 627.225, 465.775 627, 465.500 627 C 465.225 627, 465 627.225, 465 627.500 M 392 641.500 C 392 641.775, 392.225 642, 392.500 642 C 392.775 642, 393 641.775, 393 641.500 C 393 641.225, 392.775 641, 392.500 641 C 392.225 641, 392 641.225, 392 641.500 M 386 649 C 386 649.733, 386.300 650.033, 386.667 649.667 C 387.033 649.300, 387.033 648.700, 386.667 648.333 C 386.300 647.967, 386 648.267, 386 649 M 402.500 651 C 402.840 651.550, 403.343 652, 403.618 652 C 403.893 652, 403.840 651.550, 403.500 651 C 403.160 650.450, 402.657 650, 402.382 650 C 402.107 650, 402.160 650.450, 402.500 651 M 447.405 657.155 C 446.962 657.870, 447.130 658.038, 447.845 657.595 C 448.998 656.883, 449.393 656, 448.559 656 C 448.316 656, 447.797 656.520, 447.405 657.155 M 443 661.500 C 443 661.775, 443.225 662, 443.500 662 C 443.775 662, 444 661.775, 444 661.500 C 444 661.225, 443.775 661, 443.500 661 C 443.225 661, 443 661.225, 443 661.500 M 437 664.500 C 437 664.775, 437.225 665, 437.500 665 C 437.775 665, 438 664.775, 438 664.500 C 438 664.225, 437.775 664, 437.500 664 C 437.225 664, 437 664.225, 437 664.500" stroke="none" fill="#58c87e" fill-rule="evenodd"/><path d="M 256.500 50.022 C 248.982 51.531, 240.816 55.211, 235.656 59.415 C 220.024 72.153, 214.168 90.004, 215.291 121.496 C 216.235 147.963, 220.991 171.524, 236.587 227 C 245.472 258.602, 248.977 273.025, 248.980 278 C 248.982 280.774, 247.912 282.745, 243.825 287.500 C 229.141 304.584, 215.075 333.804, 210.888 355.924 C 209.671 362.347, 209.671 362.347, 194.052 377.924 C 183.405 388.541, 176.245 396.683, 171.562 403.500 C 158.057 423.154, 147.622 447.172, 142.884 469.500 C 140.235 481.989, 139.200 510.398, 140.923 523.347 C 147.577 573.349, 177.313 615.121, 224.242 640.389 C 232.678 644.931, 232.935 645.173, 231.590 647.298 C 230.823 648.509, 229.870 651.075, 229.471 653 C 229.071 654.925, 226.847 660.788, 224.527 666.030 C 217.826 681.171, 215.565 688.733, 215.566 696 C 215.569 710.069, 224.776 717.617, 243.267 718.707 C 257.160 719.526, 262.972 716.204, 272.115 702.216 C 276.552 695.428, 286.817 675.302, 288.424 670.239 C 288.815 669.008, 289.554 668, 290.067 668 C 290.580 668, 291.966 667.034, 293.148 665.852 C 295.276 663.724, 295.416 663.717, 308.398 665.102 C 321.917 666.544, 380.685 667.081, 386.500 665.815 C 389.500 665.162, 389.500 665.162, 394.928 682.078 C 399.300 695.704, 400.397 700.494, 400.571 706.711 C 400.895 718.305, 404.097 717.499, 405.377 705.500 C 406.062 699.087, 405.012 693.953, 397.622 667.583 C 395.631 660.478, 394.118 654.549, 394.260 654.407 C 394.402 654.265, 398.112 657.261, 402.504 661.065 C 416.806 673.454, 425.270 676.577, 436.382 673.569 C 444.934 671.254, 450.371 667.401, 457.244 658.781 C 464.894 649.188, 471.027 637.106, 477.075 619.712 C 484.475 598.430, 489.370 590.045, 492.087 594 C 493.115 595.495, 492.722 620.466, 491.375 639.264 C 490.217 655.443, 494.117 662, 504.899 662 C 509.673 662, 512.210 661.238, 519.896 657.498 C 535.897 649.710, 546.699 641.365, 577 613.385 C 588.275 602.974, 602.225 590.231, 608 585.068 C 618.500 575.680, 618.500 575.680, 619.254 580.590 C 620.246 587.049, 618.443 615.239, 616.029 630.996 C 608.404 680.787, 607.166 709.181, 612.003 723.338 C 614.730 731.321, 617.587 733.965, 621.541 732.163 C 624.599 730.770, 624.641 728.910, 621.861 717.940 C 619.976 710.504, 619.797 707.835, 620.355 695.500 C 620.704 687.800, 621.431 677.900, 621.972 673.500 C 626.339 637.983, 628.411 586.678, 625.943 575.170 C 624.653 569.154, 621.210 565.479, 617.692 566.362 C 613.851 567.326, 604.360 574.121, 593 584.040 C 582.779 592.964, 579.048 596.352, 564.476 609.947 C 537.319 635.282, 527.869 642.717, 514.786 649.044 C 501.387 655.524, 499.995 654.771, 500.011 641.050 C 500.029 625.637, 500.309 624.824, 507.816 618.415 C 532.498 597.346, 550.165 567.480, 556.936 535.381 C 559.825 521.685, 560.639 509.882, 559.827 493.500 C 558.624 469.252, 552.763 447.655, 541.284 425.181 C 531.682 406.380, 522.929 394.698, 505.526 377.455 C 490.341 362.411, 490.341 362.411, 489.119 355.955 C 484.944 333.906, 472.056 306.953, 456.823 288.413 C 452.236 282.829, 451.002 280.601, 451.009 277.913 C 451.021 273.384, 454.730 257.850, 461.494 234 C 477.859 176.298, 483.745 147.875, 484.709 121.892 C 485.821 91.965, 480.388 73.727, 466.696 61.417 C 459.493 54.941, 451.122 51.160, 440.271 49.484 C 430.662 48, 423.172 54.461, 415.099 71.199 C 402.830 96.635, 386.047 159.958, 370.758 238.500 C 368.422 250.500, 368.422 250.500, 359.211 251.354 C 354.120 251.826, 345.886 251.826, 340.802 251.354 C 331.604 250.500, 331.604 250.500, 326.819 226.500 C 307.925 131.717, 289.919 71.751, 275.708 56.285 C 269.438 49.461, 265.574 48.201, 256.500 50.022 M 253.909 62.873 C 233.612 69.451, 226.168 85.855, 227.305 121.500 C 228.053 144.975, 232.064 166.875, 242.533 204.645 C 260.050 267.843, 260.976 271.658, 260.992 280.698 C 260.999 284.364, 260.234 285.823, 254.966 292.198 C 228.642 324.053, 216.466 361.984, 219.077 404 C 220.054 419.732, 220.982 425.680, 224.436 438.358 C 235.029 477.240, 260.126 508.562, 293.612 524.693 C 299.724 527.637, 309.174 531.239, 314.612 532.697 C 324.088 535.239, 325.563 535.349, 350 535.349 C 374.437 535.349, 375.912 535.239, 385.388 532.697 C 390.826 531.239, 400.276 527.637, 406.388 524.693 C 439.874 508.562, 464.971 477.240, 475.564 438.358 C 479.018 425.680, 479.946 419.732, 480.923 404 C 483.534 361.984, 471.358 324.053, 445.034 292.198 C 435.762 280.978, 435.187 285.025, 457.467 204.645 C 467.936 166.875, 471.947 144.975, 472.695 121.500 C 473.653 91.467, 468.847 76.219, 455.674 67.492 C 450.158 63.838, 438.496 60.212, 435.704 61.283 C 433.356 62.184, 427.216 72.064, 423.450 81 C 414.990 101.074, 404.568 137.599, 394.633 182 C 389.849 203.377, 381.259 245.580, 379.555 256.076 C 378.348 263.511, 379.404 263.254, 350 263.254 C 320.596 263.254, 321.652 263.511, 320.445 256.076 C 318.741 245.580, 310.151 203.377, 305.367 182 C 292.102 122.719, 279.251 81.836, 269.219 67 C 264.875 60.575, 262.759 60.005, 253.909 62.873 M 295.572 370.337 C 291.665 374.244, 288.557 395.994, 291.205 400.896 C 293.161 404.515, 296.368 405.285, 299.436 402.872 C 301.753 401.049, 302.004 400.164, 302.044 393.677 C 302.068 389.730, 302.545 384.475, 303.105 382 C 305.268 372.439, 305.282 371.969, 303.464 369.961 C 301.108 367.357, 298.424 367.485, 295.572 370.337 M 396.536 369.961 C 394.718 371.969, 394.732 372.439, 396.895 382 C 397.455 384.475, 397.932 389.730, 397.956 393.677 C 397.996 400.164, 398.247 401.049, 400.564 402.872 C 403.632 405.285, 406.839 404.515, 408.795 400.896 C 410.206 398.285, 409.708 386.578, 407.805 377.587 C 406.079 369.439, 400.453 365.631, 396.536 369.961 M 199.941 387.718 C 186.229 401.895, 175.110 417.587, 167.500 433.500 C 145.947 478.567, 145.996 527.856, 167.634 569 C 192.678 616.619, 242.091 645.737, 311 653.480 C 324.969 655.050, 369.011 655.595, 380.962 654.346 C 387.217 653.692, 387.217 653.692, 386.562 648.755 C 385.316 639.365, 389.528 638.501, 397.850 646.438 C 403.551 651.876, 403.551 651.876, 415.264 649.404 C 438.739 644.449, 461.329 636.129, 463.725 631.555 C 464.494 630.087, 467.156 622.950, 469.640 615.693 C 478.037 591.162, 485.008 582.477, 493.788 585.606 C 498.503 587.287, 500.314 591.145, 500.808 600.567 C 501.260 609.180, 501.260 609.180, 507.199 603.340 C 515.993 594.693, 526.123 580.871, 532.366 569 C 554.004 527.856, 554.053 478.567, 532.500 433.500 C 524.878 417.563, 510.326 397.353, 497.606 385.042 C 493 380.584, 493 380.584, 493 394.262 C 493 437.372, 477.524 478.206, 450.213 507.157 C 441.911 515.958, 427.118 527.043, 415.682 533.032 C 405.084 538.582, 388.750 544.475, 381.500 545.363 C 358.822 548.142, 341.178 548.142, 318.500 545.363 C 315.750 545.026, 309 543.196, 303.500 541.296 C 258.927 525.896, 226.587 489.746, 213.061 440.202 C 208.931 425.075, 207.779 416.868, 207.097 397.718 C 206.500 380.936, 206.500 380.936, 199.941 387.718 M 241.032 654.750 C 240.325 657.913, 237.598 665.450, 234.972 671.500 C 229.447 684.231, 227 691.975, 227 696.727 C 227 703.309, 233.723 706.984, 245.785 706.994 C 253.544 707.001, 255.817 705.633, 261.192 697.717 C 264.722 692.518, 279.940 662.646, 279.984 660.829 C 279.993 660.461, 278.538 659.852, 276.750 659.476 C 270.828 658.231, 252.570 652.718, 248.167 650.844 C 245.784 649.830, 243.493 649, 243.076 649 C 242.659 649, 241.739 651.587, 241.032 654.750 M 449.769 651.564 C 449.133 652.201, 428.244 658.435, 423.250 659.479 C 419.487 660.266, 419.222 661.222, 422 664 C 424.870 666.870, 432.972 666.692, 439.581 663.614 C 445.431 660.891, 454.515 651, 451.167 651 C 450.708 651, 450.079 651.254, 449.769 651.564" stroke="none" fill="#000000" fill-rule="evenodd"/><path d="M 253.909 62.873 C 233.612 69.451, 226.168 85.855, 227.305 121.500 C 228.053 144.975, 232.064 166.875, 242.533 204.645 C 260.050 267.843, 260.976 271.658, 260.992 280.698 C 260.999 284.364, 260.234 285.823, 254.966 292.198 C 228.642 324.053, 216.466 361.984, 219.077 404 C 220.054 419.732, 220.982 425.680, 224.436 438.358 C 235.029 477.240, 260.126 508.562, 293.612 524.693 C 299.724 527.637, 309.174 531.239, 314.612 532.697 C 324.088 535.239, 325.563 535.349, 350 535.349 C 374.437 535.349, 375.912 535.239, 385.388 532.697 C 390.826 531.239, 400.276 527.637, 406.388 524.693 C 439.874 508.562, 464.971 477.240, 475.564 438.358 C 479.018 425.680, 479.946 419.732, 480.923 404 C 483.534 361.984, 471.358 324.053, 445.034 292.198 C 435.762 280.978, 435.187 285.025, 457.467 204.645 C 467.936 166.875, 471.947 144.975, 472.695 121.500 C 473.653 91.467, 468.847 76.219, 455.674 67.492 C 450.158 63.838, 438.496 60.212, 435.704 61.283 C 433.356 62.184, 427.216 72.064, 423.450 81 C 414.990 101.074, 404.568 137.599, 394.633 182 C 389.849 203.377, 381.259 245.580, 379.555 256.076 C 378.348 263.511, 379.404 263.254, 350 263.254 C 320.596 263.254, 321.652 263.511, 320.445 256.076 C 318.741 245.580, 310.151 203.377, 305.367 182 C 292.102 122.719, 279.251 81.836, 269.219 67 C 264.875 60.575, 262.759 60.005, 253.909 62.873 M 295.572 370.337 C 291.665 374.244, 288.557 395.994, 291.205 400.896 C 293.161 404.515, 296.368 405.285, 299.436 402.872 C 301.753 401.049, 302.004 400.164, 302.044 393.677 C 302.068 389.730, 302.545 384.475, 303.105 382 C 305.268 372.439, 305.282 371.969, 303.464 369.961 C 301.108 367.357, 298.424 367.485, 295.572 370.337 M 396.536 369.961 C 394.718 371.969, 394.732 372.439, 396.895 382 C 397.455 384.475, 397.932 389.730, 397.956 393.677 C 397.996 400.164, 398.247 401.049, 400.564 402.872 C 403.632 405.285, 406.839 404.515, 408.795 400.896 C 410.206 398.285, 409.708 386.578, 407.805 377.587 C 406.079 369.439, 400.453 365.631, 396.536 369.961" stroke="none" fill="#ffffff" fill-rule="evenodd"/><path d="M 199.914 387.750 C 186.243 401.876, 175.107 417.594, 167.500 433.500 C 145.947 478.567, 145.996 527.856, 167.634 569 C 192.678 616.619, 242.091 645.737, 311 653.480 C 324.761 655.027, 368.933 655.601, 380.603 654.386 C 386.500 653.772, 386.500 653.772, 386.162 647.904 C 385.848 642.444, 386 641.957, 388.360 640.882 C 390.646 639.840, 391.369 640.123, 395.698 643.752 C 398.339 645.966, 401.310 648.675, 402.299 649.772 C 404.095 651.762, 404.119 651.761, 415.299 649.408 C 438.055 644.617, 461.078 636.226, 463.061 632 C 463.706 630.625, 466.196 623.770, 468.594 616.767 C 473.474 602.516, 477.448 594.146, 481.731 589.098 C 484.219 586.165, 485.366 585.635, 490.058 585.252 C 494.825 584.863, 495.778 585.106, 497.738 587.206 C 500.094 589.730, 502 597.397, 502 604.352 C 502 608.432, 502 608.432, 507.571 602.966 C 515.998 594.697, 526.205 580.715, 532.366 569 C 560.658 515.205, 551.510 448.062, 509.009 397.574 C 505.271 393.134, 500.252 387.605, 497.856 385.288 C 493.500 381.076, 493.500 381.076, 493.299 395.788 C 492.574 448.712, 471.688 492.993, 433.707 522.133 C 422.857 530.458, 404.466 539.785, 391.500 543.539 C 382.788 546.062, 362.964 548.369, 350 548.369 C 337.036 548.369, 317.212 546.062, 308.500 543.539 C 295.534 539.785, 277.143 530.458, 266.293 522.133 C 228.300 492.985, 207.425 448.711, 206.701 395.751 C 206.591 387.638, 206.488 381.001, 206.473 381.001 C 206.458 381, 203.507 384.038, 199.914 387.750" stroke="none" fill="#f8f8f8" fill-rule="evenodd"/></svg>