<svg xmlns="http://www.w3.org/2000/svg" width="575" height="220" viewBox="0 0 575 220" version="1.1"><path d="M 534.635 6.859 C 533.128 8.432, 530.534 13.223, 528.871 17.507 C 522.610 33.630, 519.550 55.497, 520.145 79.862 C 520.487 93.909, 520.659 95.033, 522.756 96.987 C 524.098 98.237, 525 100.259, 525 102.016 C 525 105.954, 528.797 108.568, 532.652 107.283 C 536.900 105.867, 539.176 100.320, 539.768 89.940 C 540.048 85.023, 540.661 81, 541.130 81 C 541.599 81, 547.329 83.483, 553.863 86.518 C 560.865 89.770, 566.416 91.778, 567.380 91.407 C 568.281 91.062, 569.297 89.663, 569.640 88.299 C 570.390 85.309, 569.372 84.222, 558.718 76.641 C 550.935 71.104, 550.935 71.104, 558.218 66.167 C 562.223 63.452, 566.587 60.057, 567.917 58.623 C 572.861 53.290, 569.771 46, 562.567 46 C 560.800 46, 555.223 48.011, 550.170 50.470 C 540.986 54.940, 540.986 54.940, 541.492 51.220 C 545.122 24.544, 545.825 7.968, 543.429 5.571 C 541.045 3.188, 537.680 3.681, 534.635 6.859 M 65.225 14.464 C 61.437 17.652, 60.492 20.490, 58.601 34.356 C 57.787 40.327, 56.935 45.398, 56.708 45.625 C 56.292 46.041, 36.285 50, 34.598 50 C 34.061 50, 34.031 45.011, 34.524 37.750 C 35.774 19.336, 35.693 17.423, 33.571 15.078 C 30.772 11.985, 24.746 12.236, 22.136 15.554 C 19.511 18.892, 16.453 28.394, 14.592 39 C 10.055 64.851, 12.583 91.340, 20.725 103.268 C 23.556 107.416, 26.905 108.771, 30.873 107.376 C 34.696 106.031, 35.605 102.294, 34.187 93.746 C 33.526 89.761, 32.703 83.081, 32.359 78.902 C 31.732 71.303, 31.732 71.303, 41.116 69.597 C 46.277 68.659, 51.513 67.642, 52.750 67.337 C 54.959 66.793, 55 66.950, 55 75.842 C 55 87.929, 56.475 94.332, 60.249 98.630 C 62.803 101.540, 63.866 102.054, 66.799 101.801 C 73.020 101.266, 73.787 99.032, 74.976 78 C 75.552 67.825, 76.471 56.125, 77.019 52 C 80.330 27.080, 80.085 19.598, 75.820 15.404 C 72.091 11.737, 68.811 11.446, 65.225 14.464 M 361.272 15.406 C 349.371 18.360, 336.454 26.957, 328.989 36.892 C 318.752 50.517, 323.658 60.059, 347.026 71.973 C 358.125 77.631, 361.272 80.062, 359.628 81.705 C 359.287 82.046, 355.294 81.293, 350.754 80.032 C 338.544 76.641, 337.730 76.581, 334.962 78.884 C 332.598 80.852, 332.584 80.935, 334.595 80.967 C 337.956 81.020, 338.789 82.370, 345.949 99.381 C 348.004 104.263, 348.004 104.263, 355.468 103.784 C 371.178 102.776, 381.914 92.016, 379.587 79.612 C 378.273 72.610, 375.317 69.930, 360.729 62.514 C 352.194 58.177, 346.759 54.815, 346.387 53.644 C 344.954 49.128, 354.577 42.377, 369.400 37.501 C 379.093 34.312, 382 31.954, 382 27.276 C 382 17.567, 373.100 12.470, 361.272 15.406 M 163.662 19.051 C 161.848 20.478, 160.428 23.293, 158.996 28.301 C 151.089 55.959, 136.902 78.977, 127.750 78.996 C 123.277 79.006, 127.963 67.161, 135.708 58.881 C 138.204 56.212, 142.661 52.887, 145.610 51.491 C 151.238 48.829, 152.844 46.233, 151.494 41.981 C 150.535 38.960, 144.686 36.708, 139.899 37.517 C 134.692 38.397, 125.526 44.498, 119.749 50.929 C 112.881 58.575, 108.780 67.743, 108.203 76.740 C 107.704 84.507, 108.583 85.812, 111.408 81.500 C 113.202 78.761, 118.011 78.039, 119.722 80.250 C 120.951 81.838, 122.893 89.437, 123.236 94 C 123.493 97.405, 123.606 97.494, 127.411 97.261 C 135.779 96.750, 145.957 89.058, 153.705 77.389 C 155.673 74.425, 157.413 72, 157.571 72 C 157.729 72, 158.370 74.467, 158.996 77.483 C 159.622 80.498, 160.551 83.223, 161.061 83.538 C 161.571 83.853, 165.625 81.498, 170.070 78.305 C 178.152 72.500, 178.152 72.500, 177.602 68 C 177.300 65.525, 176.744 54.070, 176.366 42.544 C 175.709 22.484, 175.582 21.491, 173.385 19.294 C 170.544 16.453, 167.076 16.366, 163.662 19.051 M 282.920 19.026 C 263.981 22.167, 251.820 41.985, 259.051 57.923 C 261.057 62.346, 261.057 62.346, 258.085 65.423 C 251.989 71.734, 248.707 84.217, 252.750 85.708 C 255.274 86.640, 255.967 88.026, 255.985 92.177 C 256.028 102.684, 277.165 106.624, 292.632 99.010 C 299.230 95.761, 299.533 95.710, 305.191 96.879 C 311.565 98.195, 313.777 97.584, 316.449 93.770 C 318.671 90.597, 318.421 89.472, 314.540 85.176 C 311.080 81.346, 311.080 81.346, 313.580 74.158 C 314.955 70.205, 316.174 64.687, 316.290 61.897 C 316.467 57.630, 316.125 56.521, 314.139 54.913 C 312.841 53.861, 311.109 53, 310.290 53 C 307.559 53, 303.404 58.732, 300.984 65.839 C 298.590 72.871, 298.590 72.871, 295.765 71.202 C 294.211 70.284, 291.491 68.015, 289.720 66.160 C 286.693 62.989, 286.612 62.718, 288.361 61.643 C 302.010 53.256, 309.055 46.224, 310.983 39.064 C 314.320 26.669, 299.716 16.240, 282.920 19.026 M 87.455 31.455 C 82.282 36.627, 86.020 45, 93.500 45 C 101.147 45, 105.109 35.591, 99.365 31.073 C 95.707 28.195, 90.548 28.361, 87.455 31.455 M 283.121 34.710 C 277.579 37.440, 274.334 44.822, 276.897 48.868 C 277.581 49.947, 279.035 49.371, 283.801 46.135 C 290.386 41.663, 294.508 36.766, 293.625 34.465 C 292.867 32.491, 287.364 32.620, 283.121 34.710 M 210.665 35.547 C 201.024 39.084, 191.968 48.948, 188.009 60.225 C 185.238 68.121, 185.338 69.214, 188.750 68.309 C 197.404 66.017, 199.066 68.019, 200.228 82.141 C 201.203 93.987, 202.841 98.180, 207.009 99.503 C 212.243 101.164, 232.505 92.828, 240.641 85.667 C 244.110 82.613, 245 81.165, 245 78.570 C 245 74.712, 242.421 72, 238.752 72 C 237.328 72, 232.638 73.815, 228.331 76.032 C 224.024 78.250, 217.960 80.583, 214.856 81.216 C 209.871 82.234, 208.887 82.156, 206.439 80.552 C 203.667 78.736, 203.667 78.736, 208.176 77.024 C 222.522 71.579, 235.379 56.166, 233.580 46.573 C 232.813 42.484, 228.975 37.556, 224.931 35.464 C 221.434 33.656, 215.731 33.690, 210.665 35.547 M 412.665 35.547 C 402.959 39.108, 394.034 48.876, 389.869 60.500 C 387.512 67.078, 386.306 80.148, 387.715 83.837 C 388.583 86.108, 388.861 85.964, 397.554 78.736 C 402.474 74.645, 407.405 70.823, 408.511 70.242 C 411.338 68.757, 415.609 69.808, 416.701 72.257 C 417.552 74.163, 418.208 73.750, 425.194 66.911 C 436.507 55.837, 438.705 47.557, 432.341 39.994 C 427.356 34.069, 420.760 32.579, 412.665 35.547 M 478.665 35.547 C 469.006 39.090, 460.156 48.745, 455.791 60.500 C 454.067 65.145, 453.557 68.690, 453.532 76.200 C 453.493 87.943, 454.156 88.981, 459.841 86.081 C 464.983 83.458, 469.169 83.424, 471.489 85.988 C 472.976 87.630, 473.179 89.018, 472.659 93.988 C 472.031 100, 472.031 100, 474.805 100 C 483.203 100, 500.851 92.524, 508.641 85.667 C 512.110 82.613, 513 81.165, 513 78.570 C 513 74.712, 510.421 72, 506.752 72 C 505.328 72, 500.638 73.815, 496.331 76.032 C 492.024 78.250, 485.960 80.583, 482.856 81.216 C 477.871 82.234, 476.887 82.156, 474.439 80.552 C 471.667 78.736, 471.667 78.736, 476.176 77.024 C 490.522 71.579, 503.379 56.166, 501.580 46.573 C 500.813 42.484, 496.975 37.556, 492.931 35.464 C 489.434 33.656, 483.731 33.690, 478.665 35.547 M 88.700 50.779 C 86.514 53.195, 84.269 62.234, 82.485 75.801 C 80.494 90.950, 80.573 95.251, 82.893 98.116 C 84.314 99.871, 85.798 100.455, 88.837 100.455 C 97.127 100.455, 100.795 93.052, 101.714 74.469 C 102.303 62.569, 101.044 53.811, 98.311 50.791 C 96.217 48.477, 90.789 48.471, 88.700 50.779 M 214.057 55.605 C 210.911 58.253, 205.372 66.705, 206.224 67.557 C 206.481 67.814, 208.801 66.167, 211.379 63.898 C 219.483 56.764, 222.022 48.904, 214.057 55.605 M 416.057 55.605 C 412.911 58.253, 407.372 66.705, 408.224 67.557 C 408.481 67.814, 410.801 66.167, 413.379 63.898 C 421.483 56.764, 424.022 48.904, 416.057 55.605 M 482.057 55.605 C 478.911 58.253, 473.372 66.705, 474.224 67.557 C 474.481 67.814, 476.801 66.167, 479.379 63.898 C 487.483 56.764, 490.022 48.904, 482.057 55.605 M 432.500 75 C 429.750 76.632, 425.363 78.685, 422.750 79.564 C 418 81.161, 418 81.161, 418 89.689 C 418 98.217, 418 98.217, 420.750 97.543 C 425.770 96.314, 438.218 89.560, 442.641 85.667 C 446.110 82.613, 447 81.165, 447 78.570 C 447 71.667, 440.723 70.122, 432.500 75 M 269.568 76.869 C 267.631 80.615, 267.604 82.333, 269.425 85.855 C 271.850 90.544, 278.839 92.397, 284.453 89.839 C 287.685 88.367, 287.652 87.657, 284.250 85.431 C 282.738 84.442, 279.168 81.429, 276.318 78.735 C 271.135 73.838, 271.135 73.838, 269.568 76.869" stroke="none" fill="#008080" fill-rule="evenodd"/><path d="M 187.994 68.434 C 180.740 70.421, 179.636 71.132, 144.789 96.235 C 135.830 102.689, 127.552 107.977, 126.393 107.985 C 124.451 107.999, 124.233 107.278, 123.598 98.750 C 122.905 89.443, 121.457 82.565, 119.702 80.250 C 117.887 77.855, 113.870 78.894, 110.038 82.750 C 107.988 84.813, 101.009 92.575, 94.529 100 C 83.201 112.979, 81.549 114.335, 72 118.488 C 68.622 119.958, 68.604 119.992, 71.500 119.475 C 73.734 119.076, 74.117 119.198, 73 119.954 C 69.192 122.531, 67.881 121.274, 61.584 109 C 55.977 98.070, 54.113 96.296, 50.020 97.992 C 45.664 99.796, 41.746 105.702, 28.457 130.500 C 5.848 172.686, 5.324 173.846, 8.084 175.552 C 10.537 177.068, 19.168 163.625, 37.007 130.500 C 50.411 105.610, 52.136 103.254, 53.654 107.750 C 53.979 108.713, 55.957 113.119, 58.050 117.543 C 62.272 126.463, 64.766 128.525, 71.135 128.358 C 78.983 128.152, 94.230 115.041, 107.523 97.067 C 114.342 87.848, 114.514 87.701, 115.132 90.567 C 115.479 92.180, 115.817 97.697, 115.882 102.827 C 115.995 111.793, 116.116 112.270, 119.009 115.163 C 121.725 117.879, 122.433 118.106, 126.259 117.490 C 133.215 116.371, 142.901 110.247, 163.928 93.673 C 176.985 83.381, 187.113 77, 190.390 77 C 191.731 77, 192.002 78.296, 192.010 84.750 C 192.017 90.783, 192.540 93.608, 194.368 97.500 C 198.323 105.920, 203.723 109, 214.531 109 C 222.476 109, 229.062 106.134, 237.484 99.014 C 243.846 93.634, 247.689 91.355, 248.697 92.363 C 249.081 92.748, 248.857 96.207, 248.198 100.050 C 246.598 109.379, 246.688 115.495, 248.474 118.949 C 250.725 123.304, 259.646 130.590, 268.133 135.007 C 279.523 140.935, 290.948 141.163, 289.846 135.440 C 289.582 134.066, 286.890 132.474, 280.487 129.905 C 269.483 125.490, 259.856 119.898, 256.961 116.240 C 255.011 113.776, 254.873 112.844, 255.592 107 C 256.425 100.229, 256.398 92.023, 255.530 88.375 C 255.174 86.877, 253.790 85.936, 250.841 85.188 C 245.912 83.936, 245.322 84.180, 230.420 93.617 C 220.594 99.840, 220.170 100, 213.571 100 C 207.334 100, 206.581 99.763, 203.990 96.989 C 201.496 94.319, 201.107 92.991, 200.550 85.239 C 200.205 80.433, 199.703 75.083, 199.435 73.350 C 198.614 68.049, 195.027 66.507, 187.994 68.434 M 408.500 70.187 C 407.400 70.810, 402.924 74.286, 398.554 77.910 C 394.184 81.535, 388.910 85.625, 386.833 87 C 384.756 88.375, 377.929 93.438, 371.662 98.250 C 361.259 106.238, 359.879 107, 355.808 107 C 350.297 107, 347.961 104.792, 344.631 96.433 C 339.219 82.853, 337.953 80.998, 334.095 81.004 C 330.119 81.009, 326.496 83.721, 313.924 96.101 C 301.213 108.618, 295.952 116.032, 298.016 118.519 C 299.925 120.819, 301.803 120.282, 303.530 116.943 C 305.788 112.575, 331.514 86.671, 333.075 87.192 C 333.792 87.431, 335.356 90.827, 336.551 94.738 C 339.528 104.490, 343.011 110.076, 347.788 112.761 C 359.327 119.246, 372.818 112.222, 401.595 84.750 C 406.060 80.487, 410.002 77, 410.356 77 C 410.710 77, 411 83.279, 411 90.953 C 411 106.241, 411.766 109.310, 416.145 111.575 C 422.296 114.756, 429.753 112.309, 446.086 101.751 C 456.400 95.083, 464.966 90.633, 465.828 91.495 C 466.175 91.841, 465.220 96.934, 463.707 102.812 C 460.363 115.804, 460.353 116.530, 463.496 118.589 C 468.121 121.620, 476.665 118.423, 492.882 107.596 C 497.493 104.518, 502.123 102, 503.173 102 C 504.222 102, 506.384 102.964, 507.977 104.141 C 510.153 105.750, 511.742 106.141, 514.365 105.716 C 517.858 105.149, 517.858 105.149, 517.293 121.324 C 516.690 138.594, 517.621 149.014, 521.153 164.500 C 523.672 175.550, 525.196 178.232, 528.712 177.810 C 533.375 177.251, 533.673 175.130, 530.752 163.305 C 527.144 148.697, 525.992 138.851, 526.153 124 C 526.429 98.440, 524.376 93.169, 515.859 97.573 C 513.039 99.031, 512.672 99.013, 510.802 97.323 C 509.372 96.030, 507.291 95.521, 503.643 95.572 C 499.066 95.636, 496.961 96.547, 484.511 103.854 C 476.817 108.370, 470.380 111.639, 470.206 111.118 C 470.032 110.597, 470.590 106.483, 471.445 101.975 C 473.478 91.260, 473.418 87.688, 471.171 85.655 C 467.261 82.116, 461.498 84.163, 438.790 97.156 C 431.250 101.470, 423.927 105, 422.516 105 C 418.807 105, 418 101.868, 418 87.482 C 418 75.149, 416.946 70, 414.421 70 C 413.730 70, 412.564 69.787, 411.832 69.527 C 411.099 69.267, 409.600 69.564, 408.500 70.187 M 270 107.500 C 270 108.325, 270.661 109, 271.469 109 C 272.363 109, 272.712 108.414, 272.362 107.500 C 272.045 106.675, 271.384 106, 270.893 106 C 270.402 106, 270 106.675, 270 107.500" stroke="none" fill="#040605" fill-rule="evenodd"/><path d="M 182.902 80.091 C 179.823 81.762, 171.273 87.883, 163.902 93.693 C 142.902 110.246, 133.212 116.371, 126.259 117.490 C 122.433 118.106, 121.725 117.879, 119.009 115.163 C 116.116 112.270, 115.995 111.793, 115.882 102.827 C 115.817 97.697, 115.479 92.180, 115.132 90.567 C 114.514 87.701, 114.342 87.848, 107.523 97.067 C 94.230 115.041, 78.983 128.152, 71.135 128.358 C 64.766 128.525, 62.272 126.463, 58.050 117.543 C 55.957 113.119, 53.979 108.713, 53.654 107.750 C 52.136 103.256, 50.419 105.601, 36.997 130.500 C 24.333 153.993, 16.857 166.829, 13.541 170.768 C 12.144 172.430, 11 174.199, 11 174.700 C 11 176.722, 22.149 188.945, 28.124 193.472 C 45.516 206.651, 68.110 213, 97.612 213 C 142.106 213, 187.813 199.225, 237 170.993 C 250.558 163.211, 284 141.242, 284 140.118 C 284 139.737, 282.202 139.353, 280.005 139.266 C 271.913 138.943, 252.267 126.284, 248.474 118.949 C 246.688 115.495, 246.598 109.379, 248.198 100.050 C 248.857 96.207, 249.081 92.748, 248.697 92.363 C 247.689 91.355, 243.846 93.634, 237.484 99.014 C 229.062 106.134, 222.476 109, 214.531 109 C 203.723 109, 198.323 105.920, 194.368 97.500 C 192.540 93.608, 192.017 90.783, 192.010 84.750 C 191.998 75.595, 191.580 75.382, 182.902 80.091 M 406.924 79.638 C 405.591 81.089, 399.550 86.764, 393.500 92.250 C 370.342 113.247, 358.282 118.659, 347.788 112.761 C 343.011 110.076, 339.528 104.490, 336.551 94.738 C 335.356 90.827, 333.792 87.431, 333.075 87.192 C 331.750 86.750, 306.060 112.151, 304.068 115.872 C 303.157 117.574, 304.043 119.999, 309.486 130.704 C 319.872 151.130, 331.576 164.933, 347.487 175.520 C 361.142 184.606, 375.911 189.829, 394.456 192.132 C 404.580 193.389, 439.924 192.740, 459.500 190.937 C 481.493 188.912, 518.131 181.627, 523.732 178.166 C 524.632 177.610, 524.575 176.446, 523.497 173.317 C 522.717 171.052, 521.059 164.542, 519.813 158.850 C 517.853 149.898, 517.544 145.577, 517.524 126.853 C 517.500 105.207, 517.500 105.207, 514.187 105.745 C 511.763 106.138, 510.095 105.707, 507.977 104.141 C 506.384 102.964, 504.222 102, 503.173 102 C 502.123 102, 497.493 104.518, 492.882 107.596 C 476.665 118.423, 468.121 121.620, 463.496 118.589 C 460.353 116.530, 460.363 115.804, 463.707 102.812 C 465.220 96.934, 466.175 91.841, 465.828 91.495 C 464.966 90.633, 456.400 95.083, 446.086 101.751 C 429.753 112.309, 422.296 114.756, 416.145 111.575 C 411.766 109.310, 411 106.241, 411 90.953 C 411 83.279, 410.628 77, 410.174 77 C 409.720 77, 408.258 78.187, 406.924 79.638" stroke="none" fill="#64b1a2" fill-rule="evenodd"/></svg>