<svg xmlns="http://www.w3.org/2000/svg" width="800" height="600" viewBox="0 0 800 600" version="1.1"><path d="M 336.625 220.125 C 335.546 225.518, 335.772 226, 339.375 226 C 342.355 226, 342.823 225.634, 343.375 222.875 C 344.454 217.482, 344.228 217, 340.625 217 C 337.645 217, 337.177 217.366, 336.625 220.125 M 332.013 238.250 C 332.020 238.938, 334.390 241.574, 337.281 244.108 C 343.181 249.282, 345.252 249.322, 348.712 244.328 C 351.891 239.741, 352.058 239.236, 350.584 238.670 C 349.709 238.335, 348.179 239.642, 346.529 242.136 C 343.879 246.140, 343.879 246.140, 338.530 241.570 C 332.834 236.703, 331.993 236.275, 332.013 238.250" stroke="none" fill="#745f5a" fill-rule="evenodd"/><path d="M 316.643 518.028 C 312.523 519.263, 310.290 521.641, 309.551 525.580 C 308.613 530.580, 311.245 534.429, 317.417 537.084 C 321.941 539.030, 323.737 539.203, 335.174 538.790 C 349.227 538.282, 351.009 537.588, 350.985 532.628 C 350.961 527.862, 349.656 526.529, 345.307 526.832 C 340.186 527.189, 328.054 522.716, 325.462 519.516 C 323.343 516.899, 321.467 516.582, 316.643 518.028 M 459 518.449 C 459 522.214, 447.779 527.310, 436 528.894 C 432.049 529.426, 431.280 529.950, 429.694 533.194 C 425.891 540.975, 430.492 547.988, 439.404 547.996 C 444.981 548.002, 454.726 542.249, 460.927 535.292 C 467.346 528.090, 468.089 523.350, 463.440 519.250 C 460.496 516.654, 459 516.384, 459 518.449" stroke="none" fill="#073560" fill-rule="evenodd"/><path d="M 311.759 190.514 C 308.003 194.270, 306.832 203.254, 309.055 211.259 C 311.002 218.268, 318.338 220.145, 322.401 214.673 C 324.162 212.301, 324.500 210.421, 324.500 202.988 C 324.500 194.550, 324.361 193.984, 321.563 191.065 C 317.996 187.342, 315.093 187.179, 311.759 190.514 M 378.005 190.752 C 370.440 194.537, 367.237 206.793, 371.858 214.270 C 380.372 228.046, 399.429 221.987, 399.429 205.505 C 399.429 193.249, 388.314 185.594, 378.005 190.752 M 334.703 488.250 C 326.281 505.692, 325.530 508.486, 328.285 512.104 C 331.228 515.967, 344.961 520.729, 349.717 519.535 C 352.898 518.736, 359.743 504.847, 361.512 495.601 C 362.266 491.663, 363.359 487.187, 363.941 485.655 C 364.523 484.123, 365 482.733, 365 482.565 C 365 482.397, 362.188 481.712, 358.750 481.041 C 355.313 480.371, 350.043 479.187, 347.040 478.411 C 344.037 477.635, 341.255 477, 340.857 477 C 340.460 477, 337.691 482.063, 334.703 488.250 M 438.500 486.046 C 435.750 486.474, 429.788 486.864, 425.250 486.912 C 420.712 486.961, 417 487.252, 417 487.559 C 417 489.217, 423.658 507.515, 426.530 513.750 C 429.827 520.906, 429.919 521, 433.685 520.986 C 438.828 520.968, 442.117 519.998, 441.334 518.732 C 440.959 518.125, 441.176 517.991, 441.854 518.410 C 443.490 519.421, 447.170 518.084, 446.360 516.773 C 445.953 516.114, 446.160 515.981, 446.889 516.432 C 448.447 517.394, 452.807 514.517, 454.104 511.670 C 454.876 509.977, 454.536 507.614, 452.678 501.765 C 450.244 494.100, 445.549 484.881, 444.208 485.134 C 443.819 485.207, 441.250 485.618, 438.500 486.046" stroke="none" fill="#000000" fill-rule="evenodd"/><path d="M 308.898 173.250 C 306.800 174.639, 304.352 177.796, 302.500 181.500 C 299.709 187.083, 299.500 188.270, 299.500 198.571 C 299.500 208.916, 299.698 210.028, 302.518 215.543 C 309.978 230.130, 323.188 229.210, 330.154 213.618 C 332.042 209.391, 332.440 206.759, 332.440 198.500 C 332.440 186.615, 330.138 180.164, 323.878 174.508 C 319.130 170.220, 314.111 169.798, 308.898 173.250 M 379.344 178.013 C 355.855 182.823, 347.844 210.250, 365.411 225.713 C 380.304 238.822, 405.364 233.742, 413.328 216 C 417.692 206.276, 414.620 192.086, 406.699 185.386 C 399.522 179.315, 388.064 176.227, 379.344 178.013 M 311.241 189.250 C 308.248 192.445, 307 196.326, 307 202.440 C 307 210.184, 307.929 213.657, 310.759 216.486 C 318.707 224.434, 328.679 212.964, 325.963 199 C 325.481 196.525, 325.068 194.197, 325.044 193.827 C 325.020 193.456, 323.835 191.769, 322.411 190.077 C 319.175 186.230, 314.401 185.877, 311.241 189.250 M 377.411 189.891 C 371.081 193.751, 367.180 201.868, 368.548 208.334 C 371.910 224.230, 389.995 228.418, 398.194 215.200 C 401.606 209.698, 401.389 200.910, 397.706 195.428 C 392.996 188.418, 383.897 185.936, 377.411 189.891 M 324.214 512.817 C 322.756 516.997, 326.094 520.487, 334.448 523.517 C 342.806 526.549, 347.311 526.689, 350 524 C 351.100 522.900, 351.997 521.663, 351.994 521.250 C 351.991 520.837, 349.404 520.463, 346.244 520.419 C 339.319 520.320, 330.990 516.966, 327.565 512.895 C 325.176 510.056, 325.176 510.056, 324.214 512.817 M 454.067 513.875 C 452.282 517.210, 436.970 523.328, 433.005 522.291 C 431.196 521.818, 431.117 522.036, 432.082 524.806 C 433.522 528.936, 434.968 529.246, 442.116 526.963 C 445.495 525.883, 448.772 525, 449.398 525 C 450.024 525, 452.215 523.859, 454.268 522.464 C 457.969 519.949, 458.862 517.410, 457.393 513.582 C 456.583 511.470, 455.293 511.584, 454.067 513.875" stroke="none" fill="#fefefe" fill-rule="evenodd"/><path d="M 330.250 286.716 C 331.762 286.945, 334.238 286.945, 335.750 286.716 C 337.262 286.487, 336.025 286.300, 333 286.300 C 329.975 286.300, 328.738 286.487, 330.250 286.716 M 400.473 368.250 C 393.500 375.500, 393.500 375.500, 400.750 368.527 C 407.484 362.050, 408.457 361, 407.723 361 C 407.571 361, 404.308 364.262, 400.473 368.250 M 384.971 379.750 C 378.500 386.500, 378.500 386.500, 385.250 380.029 C 388.962 376.470, 392 373.432, 392 373.279 C 392 372.543, 390.982 373.480, 384.971 379.750 M 431.116 378.478 C 431.052 379.566, 427.516 384.066, 423.258 388.478 C 415.516 396.500, 415.516 396.500, 423.859 388.392 C 429.943 382.478, 432.070 379.772, 431.717 378.392 C 431.259 376.605, 431.226 376.609, 431.116 378.478 M 406.966 408.750 C 401.500 414.500, 401.500 414.500, 407.250 409.034 C 412.592 403.956, 413.458 403, 412.716 403 C 412.560 403, 409.972 405.587, 406.966 408.750" stroke="none" fill="#d7ae95" fill-rule="evenodd"/><path d="M 428.630 259.250 C 428.299 260.488, 428.015 263.525, 427.999 266 C 427.972 270.310, 427.729 270.677, 422.235 274.706 C 411.098 282.873, 388.149 288.178, 379.531 284.578 C 373.426 282.027, 372 280.278, 372 275.345 C 372 271.771, 371.669 271, 370.135 271 C 369.109 271, 367.084 271.933, 365.635 273.073 C 362.575 275.480, 362.143 279.833, 364.514 284.379 C 366.015 287.258, 366.015 287.258, 354.757 286.787 C 348.566 286.528, 336.300 286.659, 327.500 287.080 C 303.823 288.210, 292.577 292.265, 281.586 303.638 C 276.556 308.842, 271.146 319.059, 268.687 328 C 266.425 336.227, 264.386 355.002, 264.915 362.750 C 264.975 363.630, 267.196 364, 272.418 364 C 282.503 364, 282.996 363.727, 283.017 358.143 C 283.065 345.277, 288.863 331.005, 297.023 323.670 C 306.930 314.762, 325.684 308.329, 351.500 304.984 C 360.300 303.843, 368.175 302.734, 369 302.519 C 369.825 302.304, 373.875 301.828, 378 301.461 C 391.573 300.253, 402.842 297.764, 413.950 293.519 C 426.655 288.664, 438 275.740, 438 266.122 C 438 262.945, 437.401 261.674, 434.923 259.589 C 431.143 256.408, 429.417 256.315, 428.630 259.250" stroke="none" fill="#ee7176" fill-rule="evenodd"/><path d="M 420 265.611 C 416.425 267.436, 412.075 268.945, 410.333 268.965 C 408.592 268.984, 407.017 269.420, 406.833 269.933 C 405.907 272.524, 377.297 275.119, 374.413 272.873 C 372.865 271.666, 372.755 279.071, 374.292 281.075 C 375.658 282.855, 381.803 285.240, 383.046 284.472 C 383.495 284.194, 384.118 284.382, 384.431 284.889 C 385.036 285.868, 393.155 285.152, 394 284.045 C 394.275 283.685, 396.337 283.329, 398.582 283.255 C 400.827 283.180, 405.102 282.193, 408.082 281.060 C 411.062 279.928, 414.006 279.001, 414.624 279.001 C 415.243 279, 417.043 277.884, 418.624 276.520 C 420.206 275.157, 422.771 273.013, 424.325 271.758 C 426.642 269.885, 427.091 268.830, 426.825 265.884 C 426.500 262.292, 426.500 262.292, 420 265.611 M 438 272.521 C 438 274.834, 430.072 284.597, 425.206 288.277 C 422.458 290.355, 417.351 293.224, 413.855 294.652 C 406.998 297.455, 384.016 301.685, 357.500 305.024 C 339.445 307.298, 331.009 308.824, 330.980 309.821 C 330.969 310.194, 330.527 313.425, 329.999 317 C 329.470 320.575, 328.575 332.725, 328.009 344 C 326.268 378.708, 324.328 385.986, 312.494 402.208 C 307.904 408.500, 307.904 408.500, 312.202 409.423 C 316.609 410.369, 318.313 411.684, 317.286 413.346 C 316.966 413.864, 316.518 415.685, 316.290 417.394 C 315.803 421.039, 315.364 423.392, 314.403 427.500 C 314.017 429.150, 313.657 435.225, 313.603 441 C 313.515 450.581, 313.751 452, 316.306 457.208 C 319.543 463.807, 324.029 467.715, 333.403 472.102 C 337.278 473.915, 339.731 475.627, 339.346 476.249 C 338.958 476.877, 339.168 477.014, 339.862 476.585 C 340.506 476.187, 340.800 475.485, 340.515 475.024 C 340.230 474.563, 341.556 474.665, 343.461 475.249 C 345.366 475.834, 346.679 476.710, 346.379 477.196 C 346.076 477.686, 347.050 477.774, 348.565 477.394 C 350.479 476.914, 351.089 477.047, 350.599 477.839 C 350.113 478.627, 350.902 478.817, 353.200 478.466 C 355.792 478.070, 356.071 478.165, 354.500 478.911 C 352.625 479.800, 352.656 479.873, 355 480.075 C 356.375 480.194, 359.750 480.388, 362.500 480.506 C 371.696 480.901, 389.477 483.270, 391.500 484.371 C 392.777 485.065, 401.999 485.466, 417 485.479 C 429.925 485.491, 438.925 485.185, 437 484.799 C 434.663 484.331, 435.488 484.232, 439.481 484.501 C 443.831 484.793, 445.058 484.618, 443.981 483.857 C 442.765 482.999, 442.824 482.916, 444.306 483.396 C 447.167 484.322, 452.169 481.673, 456.388 476.998 C 463.876 468.699, 470.218 451.523, 473.572 430.456 C 476.820 410.057, 476.466 360.242, 472.911 337.167 C 472.374 333.684, 471.728 328.734, 471.476 326.167 C 470.861 319.928, 466.678 301.188, 463.960 292.500 C 460.689 282.044, 456.638 274.623, 453.337 273.040 C 449.720 271.305, 438 270.909, 438 272.521 M 358.250 272.706 C 356.527 273.038, 356 273.826, 356 276.070 C 356 278.435, 355.566 279.004, 353.750 279.022 C 350.817 279.051, 343.878 282.226, 342.128 284.342 C 340.863 285.870, 341.675 286, 352.485 286 C 363.296 286, 364.151 285.863, 363.407 284.250 C 362.963 283.288, 362.600 280.925, 362.600 279 C 362.600 277.075, 362.963 274.712, 363.407 273.750 C 364.251 271.920, 363.313 271.731, 358.250 272.706 M 405.548 357.250 C 405.334 357.938, 405.010 359.018, 404.829 359.650 C 404.648 360.283, 398.367 366.686, 390.871 373.880 C 377.711 386.510, 377.074 386.975, 372.371 387.380 C 369.692 387.610, 367.387 387.900, 367.250 388.024 C 367.113 388.148, 366.588 388.306, 366.083 388.375 C 365.579 388.444, 364.829 388.837, 364.417 389.250 C 364.004 389.663, 362.842 390, 361.833 390 C 360.825 390, 360 390.450, 360 391 C 360 391.550, 359.515 392, 358.923 392 C 356.644 392, 351.792 398.091, 351.492 401.330 C 351.243 404.002, 351.717 404.966, 354.052 406.535 C 356.720 408.328, 357.254 410.075, 355.873 412.500 C 355.559 413.050, 355.347 416.053, 355.402 419.173 C 355.482 423.825, 356.036 425.559, 358.478 428.805 C 361.078 432.261, 367.039 435.801, 369.250 435.203 C 369.663 435.091, 370 435.382, 370 435.849 C 370 437.005, 380.487 435.358, 385.904 433.350 C 391.898 431.128, 397.532 425.792, 399.598 420.381 C 400.850 417.104, 401.567 416.242, 402.251 417.195 C 402.924 418.131, 403.021 417.982, 402.594 416.668 C 402.144 415.281, 405.936 410.724, 418.190 397.923 C 427.095 388.621, 434.471 380.446, 434.582 379.755 C 434.692 379.065, 435.115 376.768, 435.521 374.652 C 436.178 371.227, 436.053 370.843, 434.384 371.165 C 433.070 371.418, 432.208 372.902, 431.504 376.125 C 430.619 380.177, 428.760 382.521, 415.844 395.860 C 407.783 404.185, 401.395 410.207, 401.647 409.243 C 401.899 408.279, 401.181 406.499, 400.053 405.287 C 398.924 404.075, 398 402.826, 398 402.512 C 398 401.449, 388.526 392.445, 384.846 390.010 C 381.191 387.592, 381.191 387.592, 395.119 374.046 C 404.975 364.460, 409.039 359.842, 409.023 358.250 C 408.999 355.854, 406.231 355.058, 405.548 357.250" stroke="none" fill="#f6d8b5" fill-rule="evenodd"/><path d="M 347.313 56.939 C 335.939 61.034, 329.558 65.613, 319.942 76.582 C 318.536 78.187, 315.083 81.407, 312.271 83.738 C 307.137 87.992, 298.704 100.200, 297.489 105.136 C 297.026 107.016, 296.337 107.639, 295.084 107.312 C 292.951 106.754, 290.183 110.620, 289.399 115.254 C 289.097 117.039, 287.783 122.775, 286.479 128 C 285.175 133.225, 283.805 140.717, 283.435 144.650 C 282.826 151.109, 283.015 152.315, 285.394 157.150 C 288.801 164.074, 292.115 168.807, 294 169.437 C 294.825 169.713, 297.300 169.513, 299.500 168.993 C 301.700 168.473, 304.850 168.030, 306.500 168.009 C 310.751 167.953, 312.715 166.566, 311.173 164.709 C 310.223 163.563, 310.327 162.980, 311.680 161.883 C 312.617 161.122, 313.071 161.021, 312.689 161.659 C 311.274 164.020, 321.195 169.967, 326.595 169.994 C 327.197 169.997, 328.505 170.900, 329.500 172 C 331.752 174.489, 334 174.587, 334 172.196 C 334 169.635, 328.057 164.325, 324.500 163.709 C 316.598 162.340, 312.538 159.129, 315.263 156.404 C 315.668 155.998, 316 154.647, 316 153.401 C 316 152.043, 316.771 150.890, 317.924 150.524 C 318.983 150.188, 321.458 148.821, 323.424 147.487 C 326.136 145.646, 327 145.415, 327 146.530 C 327 147.339, 327.450 148, 328 148 C 328.550 148, 329 147.321, 329 146.491 C 329 145.260, 329.967 145.095, 334.250 145.593 C 338.662 146.106, 339.928 145.865, 342.183 144.082 C 343.659 142.915, 345.009 140.964, 345.183 139.747 C 345.493 137.585, 345.562 137.601, 348.159 140.408 C 349.902 142.293, 351.389 143.065, 352.473 142.649 C 353.382 142.300, 353.847 141.561, 353.504 141.007 C 353.162 140.453, 353.421 140, 354.081 140 C 354.740 140, 355.899 139.213, 356.656 138.250 C 357.853 136.728, 357.879 136.859, 356.854 139.254 C 355.355 142.756, 356.399 143.854, 358.994 141.506 C 360.097 140.507, 361 140.179, 361 140.778 C 361 141.376, 361.986 142.178, 363.192 142.561 C 364.872 143.094, 365.948 142.585, 367.802 140.378 C 369.131 138.795, 369.922 138.057, 369.558 138.738 C 368.711 140.324, 373.425 145.473, 374.893 144.566 C 375.502 144.190, 376 143.084, 376 142.108 C 376 139.848, 376.848 139.004, 378.487 139.633 C 379.220 139.915, 379.578 141.075, 379.315 142.315 C 378.890 144.320, 378.967 144.360, 380.255 142.793 C 381.531 141.240, 381.799 141.228, 383.233 142.661 C 384.178 143.606, 385.328 143.915, 386.109 143.433 C 386.824 142.991, 388.757 142.481, 390.404 142.301 C 392.051 142.121, 393.654 141.642, 393.965 141.237 C 394.277 140.831, 396.079 139.150, 397.971 137.500 C 401.410 134.500, 401.410 134.500, 398.059 138.451 C 394.294 142.890, 395.198 144.083, 400.439 141.596 C 404.440 139.698, 405.851 139.549, 404.200 141.200 C 402.778 142.622, 402.608 145, 403.929 145 C 404.439 145, 405.564 144.293, 406.429 143.429 C 407.293 142.564, 408 142.339, 408 142.929 C 408 144.709, 409.935 144.141, 412.745 141.535 C 416.350 138.193, 417.042 139.303, 413.595 142.901 C 410.271 146.370, 411.741 148.049, 415.794 145.412 C 418.089 143.918, 418.297 143.899, 417.164 145.282 C 415.093 147.809, 416.693 149.248, 419.516 147.398 C 421.715 145.957, 422.209 145.958, 425.117 147.409 C 426.872 148.284, 429.813 149, 431.654 149 C 435.484 149, 436.008 150.390, 432.820 152.096 C 430.695 153.234, 430.688 153.299, 432.548 154.659 C 433.864 155.621, 435.782 155.855, 438.728 155.414 C 441.583 154.985, 443 155.142, 443 155.886 C 443 156.499, 443.633 157, 444.406 157 C 445.255 157, 445.631 157.696, 445.354 158.756 C 444.904 160.475, 450.258 167, 452.119 167 C 452.603 167, 453 167.480, 453 168.067 C 453 168.664, 452.155 168.867, 451.084 168.527 C 448.599 167.738, 447.451 169.634, 449.164 171.697 C 449.899 172.583, 450.377 174.035, 450.226 174.924 C 450.070 175.846, 451.251 177.308, 452.976 178.327 C 454.639 179.309, 456 180.522, 456 181.022 C 456 181.522, 457.279 183.409, 458.842 185.215 C 462.388 189.314, 463.868 193.542, 463.243 197.795 C 462.727 201.315, 464.700 204.453, 468.112 205.536 C 469.129 205.858, 472.537 207.674, 475.686 209.570 C 478.834 211.466, 484.580 214.001, 488.455 215.204 C 492.330 216.406, 496.090 218.090, 496.812 218.945 C 497.987 220.339, 498.273 220.298, 499.562 218.559 C 500.353 217.491, 501 216.040, 501 215.334 C 501 214.454, 501.902 214.230, 503.862 214.622 C 507.852 215.420, 513 212.628, 513 209.665 C 513 208.410, 513.641 206.509, 514.424 205.441 C 515.665 203.749, 515.645 203.276, 514.269 201.750 C 512.785 200.105, 513.004 200, 517.911 200 C 520.782 200, 524.002 199.534, 525.066 198.965 C 527.089 197.882, 527.689 194.544, 526.044 193.527 C 525.518 193.202, 525.310 192.356, 525.582 191.646 C 526.076 190.360, 522.161 188, 519.534 188 C 518.779 188, 516.888 187.349, 515.331 186.554 C 513.774 185.759, 510.475 184.655, 508 184.101 C 504.337 183.280, 505.871 183.149, 516.250 183.393 C 523.263 183.558, 529 183.421, 529 183.089 C 529 182.757, 530.938 182.640, 533.307 182.828 C 536.419 183.076, 537.998 182.708, 538.999 181.502 C 540.847 179.274, 539.201 176.666, 535.526 176 C 532.767 175.500, 532.767 175.500, 536.373 172 C 538.356 170.075, 539.983 167.986, 539.989 167.357 C 540.003 165.894, 537.654 165, 533.796 165 C 531.217 165, 530.943 164.774, 531.990 163.512 C 534.287 160.744, 530.100 160.567, 521.105 163.051 C 512.287 165.486, 498 166.859, 498 165.271 C 498 164.784, 502.613 163.109, 508.250 161.550 C 522.246 157.678, 528.092 155.729, 537.771 151.705 C 553.851 145.020, 557.226 139.248, 542.588 143.466 C 539.790 144.273, 532.100 146.116, 525.500 147.563 C 518.900 149.010, 510.800 150.833, 507.500 151.614 C 497.746 153.921, 494.381 154.380, 495.500 153.251 C 496.050 152.696, 498.300 151.676, 500.500 150.984 C 506.529 149.089, 514.023 145.105, 514.654 143.459 C 514.962 142.656, 517.153 141.141, 519.522 140.093 C 523.628 138.277, 526.621 134.955, 525.322 133.656 C 524.988 133.322, 525.279 132.368, 525.969 131.537 C 527.938 129.165, 526.449 127.009, 522.781 126.922 C 520.346 126.864, 522.398 125.864, 530.739 123.044 C 543.522 118.723, 547 116.788, 547 113.996 C 547 110.237, 541.744 110.412, 529.176 114.589 C 526.798 115.380, 524.436 115.769, 523.927 115.455 C 523.419 115.141, 520.266 115.585, 516.921 116.442 C 509.559 118.328, 510 118.320, 510 116.559 C 510 113.900, 508.059 113.881, 503.595 116.497 C 499.329 118.997, 499.183 119.016, 499.711 116.996 C 500.051 115.697, 501.344 114.681, 503.108 114.328 C 506.961 113.558, 508.126 111.880, 507.385 108.173 C 506.779 105.143, 504.050 103.233, 502.074 104.455 C 501.554 104.776, 500.035 103.945, 498.699 102.608 C 495.543 99.452, 488.319 98.528, 474.036 99.453 C 466.099 99.968, 463.018 99.838, 462.479 98.966 C 461.455 97.309, 463.316 96.388, 470.395 95.046 C 473.753 94.409, 482.800 92.375, 490.500 90.527 C 498.200 88.678, 505.625 87.016, 507 86.833 C 508.408 86.645, 509.500 85.845, 509.500 85 C 509.500 83.830, 508.181 83.507, 503.500 83.532 C 500.200 83.549, 495.747 83.949, 493.605 84.420 C 490.994 84.995, 489.920 84.939, 490.344 84.252 C 490.693 83.688, 490.355 82.710, 489.594 82.078 C 488.532 81.197, 486.959 81.404, 482.855 82.964 C 476.466 85.392, 470 85.691, 470 83.559 C 470 81.116, 468.583 81.012, 460.750 82.879 C 454.776 84.302, 453.293 84.399, 453.700 83.340 C 454.358 81.625, 452.989 81.628, 450.473 83.348 C 449.388 84.090, 446.965 84.993, 445.088 85.356 C 441.711 86.008, 441.695 85.994, 443.515 83.984 C 444.924 82.427, 445.078 81.678, 444.176 80.776 C 442.255 78.855, 442.816 78, 446 78 C 447.650 78, 449 77.622, 449 77.161 C 449 76.699, 450.233 75.759, 451.740 75.073 C 454.424 73.850, 454.439 73.794, 452.490 72.326 C 450.518 70.842, 443.820 70.964, 438.228 72.586 C 436.156 73.187, 436.038 73.029, 436.890 70.789 C 438.610 66.267, 436.751 65.306, 431.259 67.879 C 428.579 69.134, 424.416 71.388, 422.007 72.888 C 417.627 75.614, 417.627 75.614, 414.999 72.672 C 412.370 69.731, 412.370 69.731, 412.794 73.365 C 413.275 77.482, 413.225 77.517, 409.518 75.594 C 407.170 74.376, 406.210 74.391, 402.349 75.706 C 399.898 76.541, 397.616 76.949, 397.279 76.612 C 396.942 76.276, 397.129 76, 397.693 76 C 398.258 76, 400.370 74.444, 402.386 72.543 C 407.133 68.066, 415.845 65.153, 419.503 66.819 C 421.883 67.904, 421.989 67.847, 421.008 66.016 C 419.664 63.503, 416.509 61.810, 413.695 62.090 C 412.488 62.210, 410.268 61.966, 408.761 61.549 C 406.764 60.994, 405.070 61.351, 402.500 62.867 C 400.060 64.307, 398.060 64.762, 395.989 64.348 C 392.485 63.647, 392.261 62.942, 395 61.232 C 396.100 60.545, 397 59.082, 397 57.980 C 397 56.188, 396.552 56.045, 392.750 56.625 C 387.721 57.393, 385.377 58.455, 382 61.495 C 380.625 62.732, 377.475 64.049, 375 64.420 C 372.525 64.792, 369.375 65.330, 368 65.616 C 365.705 66.094, 365.644 66.019, 367.250 64.708 C 369.550 62.831, 369.461 62, 366.960 62 C 364.285 62, 357.890 65.301, 353.778 68.806 C 351.975 70.342, 346 74.569, 340.500 78.199 C 335 81.830, 329.150 86.182, 327.500 87.872 C 325.850 89.562, 324.105 90.957, 323.622 90.972 C 321.873 91.028, 324.149 82.559, 327.224 77.574 C 331.262 71.027, 337.305 66.102, 348.250 60.436 C 353.063 57.944, 357 55.702, 357 55.453 C 357 54.444, 352.197 55.181, 347.313 56.939 M 385.576 69.922 C 381.747 73.844, 381.747 73.844, 386.123 73.296 C 390.502 72.748, 396.484 68.592, 395.405 66.847 C 394.047 64.649, 389.264 66.146, 385.576 69.922 M 371 68.707 C 370.175 68.969, 368.218 70.717, 366.652 72.591 C 363.803 76, 363.803 76, 366.817 76 C 369.140 76, 370.559 75.081, 373 72 C 376.210 67.947, 375.756 67.200, 371 68.707 M 381.500 80.526 C 379.202 81.941, 378.221 82.992, 379.194 82.995 C 380.126 82.998, 382.151 81.889, 383.694 80.532 C 387.252 77.402, 386.575 77.400, 381.500 80.526 M 310.951 92.181 C 308.699 95.030, 305.994 99.051, 304.941 101.116 C 303.026 104.870, 303.026 104.870, 306.763 104.269 C 308.818 103.939, 311.057 102.955, 311.738 102.084 C 312.736 100.807, 317 88.904, 317 87.395 C 317 85.762, 314.397 87.822, 310.951 92.181 M 291.015 142.191 C 291.007 144.771, 291.450 147.160, 292 147.500 C 293.300 148.303, 293.300 141.011, 292 139 C 291.298 137.914, 291.026 138.794, 291.015 142.191 M 366.733 167.535 C 364.130 170.029, 362 172.504, 362 173.035 C 362 174.844, 366.603 174.006, 369.860 171.604 C 372.786 169.445, 373.375 169.340, 375.804 170.542 C 379.269 172.258, 400.079 173.615, 402.463 172.281 C 404.035 171.401, 403.867 171.042, 400.898 168.927 C 398.098 166.933, 395.947 166.469, 387.295 165.989 C 381.336 165.658, 376.510 164.910, 375.809 164.209 C 373.702 162.102, 371.597 162.874, 366.733 167.535" stroke="none" fill="#f9b05a" fill-rule="evenodd"/><path d="M 396.815 138.510 C 394.780 140.439, 391.851 142.143, 390.270 142.316 C 388.697 142.488, 386.824 142.991, 386.109 143.433 C 385.328 143.915, 384.178 143.606, 383.233 142.661 C 381.799 141.228, 381.531 141.240, 380.255 142.793 C 378.967 144.360, 378.890 144.320, 379.315 142.315 C 379.578 141.075, 379.220 139.915, 378.487 139.633 C 376.848 139.004, 376 139.848, 376 142.108 C 376 143.084, 375.502 144.190, 374.893 144.566 C 373.425 145.473, 368.711 140.324, 369.558 138.738 C 369.922 138.057, 369.131 138.795, 367.802 140.378 C 365.948 142.585, 364.872 143.094, 363.192 142.561 C 361.986 142.178, 361 141.376, 361 140.778 C 361 140.179, 360.097 140.507, 358.994 141.506 C 356.399 143.854, 355.355 142.756, 356.854 139.254 C 357.879 136.859, 357.853 136.728, 356.656 138.250 C 355.899 139.213, 354.740 140, 354.081 140 C 353.421 140, 353.162 140.453, 353.504 141.007 C 353.847 141.561, 353.382 142.300, 352.473 142.649 C 351.389 143.065, 349.902 142.293, 348.159 140.408 C 345.562 137.601, 345.493 137.585, 345.183 139.747 C 345.009 140.964, 343.659 142.915, 342.183 144.082 C 339.928 145.865, 338.662 146.106, 334.250 145.593 C 329.967 145.095, 329 145.260, 329 146.491 C 329 147.321, 328.550 148, 328 148 C 327.450 148, 327 147.339, 327 146.530 C 327 145.415, 326.136 145.646, 323.424 147.487 C 321.458 148.821, 318.983 150.188, 317.924 150.524 C 316.771 150.890, 316 152.043, 316 153.401 C 316 154.647, 315.668 155.998, 315.263 156.404 C 312.538 159.129, 316.598 162.340, 324.500 163.709 C 328.057 164.325, 334 169.635, 334 172.196 C 334 174.587, 331.752 174.489, 329.500 172 C 328.505 170.900, 327.197 169.997, 326.595 169.994 C 321.195 169.967, 311.274 164.020, 312.689 161.659 C 313.071 161.021, 312.617 161.122, 311.680 161.883 C 310.327 162.980, 310.223 163.563, 311.173 164.709 C 312.509 166.318, 310.876 167.956, 307.908 167.985 C 306.917 167.994, 305.853 169.547, 305.087 172.104 C 304.411 174.361, 303.619 176.829, 303.328 177.587 C 303.037 178.345, 304.592 177.173, 306.782 174.983 C 310.238 171.527, 311.356 171, 315.234 171 C 324.859 171, 331.730 180.282, 332.709 194.606 C 333.963 212.944, 326.642 225.976, 315.079 225.993 C 311.145 225.999, 310.185 225.507, 306.379 221.535 C 304.019 219.072, 301.555 215.246, 300.882 213 C 299.144 207.201, 297.929 209.841, 298.120 219 C 298.426 233.706, 305.473 247.144, 316.871 254.755 C 329.004 262.857, 344.329 267.514, 363.270 268.853 C 372.414 269.500, 372.414 269.500, 372.142 274.574 C 371.931 278.517, 372.275 279.955, 373.685 281.026 C 375.238 282.205, 375.320 282.201, 374.250 281.002 C 373.563 280.231, 373 277.957, 373 275.949 C 373 272.299, 373 272.299, 378.250 273.162 C 381.137 273.636, 385.300 273.780, 387.500 273.480 C 397.079 272.175, 404.065 270.704, 404.571 269.884 C 404.872 269.398, 406.761 269, 408.768 269 C 410.941 269, 415.560 267.482, 420.176 265.250 C 426.373 262.254, 428.142 260.896, 428.970 258.500 C 429.759 256.217, 431.739 254.566, 437.253 251.594 C 450.187 244.622, 454.267 241.329, 461.500 232.018 C 467.799 223.910, 468.830 223.007, 471.800 223.004 C 475.434 223, 480.035 220.941, 484.227 217.443 C 486.955 215.167, 486.955 215.167, 480.727 212.085 C 464.053 203.833, 462.690 202.739, 463.257 198.056 C 463.813 193.460, 462.388 189.314, 458.842 185.215 C 457.279 183.409, 456 181.522, 456 181.022 C 456 180.522, 454.639 179.309, 452.976 178.327 C 451.251 177.308, 450.070 175.846, 450.226 174.924 C 450.377 174.035, 449.899 172.583, 449.164 171.697 C 447.451 169.634, 448.599 167.738, 451.084 168.527 C 452.155 168.867, 453 168.664, 453 168.067 C 453 167.480, 452.603 167, 452.119 167 C 450.258 167, 444.904 160.475, 445.354 158.756 C 445.631 157.696, 445.255 157, 444.406 157 C 443.633 157, 443 156.499, 443 155.886 C 443 155.142, 441.583 154.985, 438.728 155.414 C 435.782 155.855, 433.864 155.621, 432.548 154.659 C 430.688 153.299, 430.695 153.234, 432.820 152.096 C 436.008 150.390, 435.484 149, 431.654 149 C 429.813 149, 426.872 148.284, 425.117 147.409 C 422.209 145.958, 421.715 145.957, 419.516 147.398 C 416.693 149.248, 415.093 147.809, 417.164 145.282 C 418.297 143.899, 418.089 143.918, 415.794 145.412 C 411.741 148.049, 410.271 146.370, 413.595 142.901 C 417.042 139.303, 416.350 138.193, 412.745 141.535 C 409.935 144.141, 408 144.709, 408 142.929 C 408 142.339, 407.293 142.564, 406.429 143.429 C 405.564 144.293, 404.439 145, 403.929 145 C 402.608 145, 402.778 142.622, 404.200 141.200 C 405.851 139.549, 404.440 139.698, 400.439 141.596 C 395.266 144.051, 394.275 142.895, 397.957 138.701 C 402.035 134.057, 401.592 133.982, 396.815 138.510 M 366.733 167.535 C 364.130 170.029, 362 172.504, 362 173.035 C 362 174.844, 366.603 174.006, 369.860 171.604 C 372.786 169.445, 373.375 169.340, 375.804 170.542 C 379.269 172.258, 400.079 173.615, 402.463 172.281 C 404.035 171.401, 403.867 171.042, 400.898 168.927 C 398.098 166.933, 395.947 166.469, 387.295 165.989 C 381.336 165.658, 376.510 164.910, 375.809 164.209 C 373.702 162.102, 371.597 162.874, 366.733 167.535 M 376.672 178.371 C 358.147 183.588, 349.789 204.770, 360.108 220.350 C 369.820 235.012, 392.480 237.643, 406.546 225.743 C 410.735 222.199, 414.970 214.050, 415.662 208.203 C 417.965 188.764, 396.926 172.667, 376.672 178.371 M 336.625 220.125 C 335.546 225.518, 335.772 226, 339.375 226 C 342.355 226, 342.823 225.634, 343.375 222.875 C 344.454 217.482, 344.228 217, 340.625 217 C 337.645 217, 337.177 217.366, 336.625 220.125 M 332.013 238.250 C 332.020 238.938, 334.390 241.574, 337.281 244.108 C 343.181 249.282, 345.252 249.322, 348.712 244.328 C 351.891 239.741, 352.058 239.236, 350.584 238.670 C 349.709 238.335, 348.179 239.642, 346.529 242.136 C 343.879 246.140, 343.879 246.140, 338.530 241.570 C 332.834 236.703, 331.993 236.275, 332.013 238.250 M 428.462 284.250 C 423.500 289.500, 423.500 289.500, 428.750 284.538 C 431.637 281.808, 434 279.446, 434 279.288 C 434 278.541, 433.074 279.372, 428.462 284.250 M 355.250 286.728 C 357.313 286.944, 360.688 286.944, 362.750 286.728 C 364.813 286.513, 363.125 286.336, 359 286.336 C 354.875 286.336, 353.188 286.513, 355.250 286.728 M 406 357.893 C 406 359, 400.377 365.320, 392.446 373.127 C 378.892 386.469, 378.892 386.469, 372.196 387.629 C 362.013 389.393, 356.424 392.292, 352.898 397.641 C 350.341 401.520, 350.496 402.650, 354.079 406.233 C 357.061 409.215, 357.123 409.456, 356.021 413.831 C 353.883 422.321, 357.052 429.907, 364.302 433.656 C 367.468 435.294, 376.612 435.943, 381 434.842 C 388.689 432.914, 396.179 427.639, 398.475 422.536 C 399.949 419.260, 401.460 414.500, 401.027 414.500 C 400.880 414.500, 405.131 410.225, 410.475 405 C 415.818 399.775, 423.254 392.113, 427 387.973 C 432.736 381.633, 433.922 379.700, 434.519 375.723 C 434.982 372.636, 434.863 371, 434.175 371 C 433.596 371, 432.819 373.137, 432.448 375.750 C 431.811 380.243, 430.941 381.344, 416.387 396.071 C 404.541 408.058, 401 411.132, 401 409.431 C 401 405.794, 392.750 395.646, 386.362 391.425 C 380.500 387.552, 380.500 387.552, 394.250 374.126 C 404.206 364.404, 408 360.051, 408 358.350 C 408 357.057, 407.550 356, 407 356 C 406.450 356, 406 356.852, 406 357.893 M 302.513 412.822 C 295.572 417.621, 292.232 424.091, 293.422 430.434 C 294.210 434.639, 302.159 443.751, 306.690 445.644 C 312.567 448.099, 313 447.730, 313.003 440.250 C 313.005 436.538, 313.919 428.799, 315.034 423.053 C 316.150 417.307, 316.838 412.019, 316.563 411.303 C 315.612 408.826, 306.937 409.764, 302.513 412.822" stroke="none" fill="#927872" fill-rule="evenodd"/><path d="M 415.998 486.750 C 415.997 487.163, 419.034 487.376, 422.748 487.224 C 434.613 486.739, 435.782 486.325, 425.750 486.160 C 420.387 486.072, 415.999 486.337, 415.998 486.750" stroke="none" fill="#0b1724" fill-rule="evenodd"/><path d="M 417 398.500 C 414.571 400.975, 412.809 403, 413.084 403 C 413.359 403, 415.571 400.975, 418 398.500 C 420.429 396.025, 422.191 394, 421.916 394 C 421.641 394, 419.429 396.025, 417 398.500 M 411 400.500 C 408.571 402.975, 406.809 405, 407.084 405 C 407.359 405, 409.571 402.975, 412 400.500 C 414.429 398.025, 416.191 396, 415.916 396 C 415.641 396, 413.429 398.025, 411 400.500" stroke="none" fill="#e0b58a" fill-rule="evenodd"/></svg>