<svg xmlns="http://www.w3.org/2000/svg" width="628" height="292" viewBox="0 0 628 292" version="1.1"><path d="M 236.491 11.865 C 228.120 15.668, 223.825 23.516, 219.451 43 C 212.973 71.863, 210.338 131.539, 214.107 164 C 215.340 174.618, 220.076 190.322, 224.813 199.500 C 229.841 209.242, 239.650 218.993, 247.288 221.841 C 255.470 224.893, 266.454 224.851, 271.010 221.750 C 276.444 218.052, 278.390 214.642, 278.431 208.747 C 278.462 204.225, 277.755 202.256, 273.312 194.500 C 270.477 189.550, 267.109 181.900, 265.828 177.500 C 263.500 169.500, 263.500 169.500, 263.500 100.500 C 263.500 37.214, 263.353 31.024, 261.723 25.754 C 257.727 12.830, 247.165 7.016, 236.491 11.865 M 115.768 17.487 C 109.866 18.237, 102.441 19.381, 99.268 20.029 C 90.949 21.728, 76.695 27.381, 67.855 32.488 C 60.209 36.905, 60.209 36.905, 54.757 31.453 C 49.864 26.559, 48.868 26, 45.053 26 C 36.264 26, 30.221 31.485, 27.977 41.500 C 19.498 79.334, 15.275 131.943, 17.214 175.573 C 18.608 206.931, 26.013 232.559, 35.143 237.622 C 38.499 239.483, 45.900 239.297, 49.995 237.248 C 52.139 236.176, 54.457 233.761, 55.995 231 C 58.500 226.500, 58.500 226.500, 58.162 199.339 C 57.823 172.178, 57.823 172.178, 66.162 174.035 C 96.602 180.814, 128.914 176.992, 155.614 163.454 C 187.465 147.304, 206.101 119.429, 208.360 84.556 C 209.007 74.570, 206.276 60.471, 202.087 52.172 C 196.195 40.501, 181.763 28.060, 168.207 22.968 C 152.330 17.003, 134.363 15.125, 115.768 17.487 M 583.150 57.533 C 578.058 59.744, 565.810 72.199, 557.673 83.442 C 553.669 88.974, 545.526 101.375, 539.576 111 C 523.955 136.273, 514.730 149.053, 506.388 156.976 C 496.426 166.440, 492.760 167.152, 488.807 160.394 C 486.064 155.706, 484.853 145.032, 484.111 119 C 483.537 98.884, 483.110 93.934, 481.726 91.338 C 476.517 81.570, 462.739 79.252, 454.058 86.683 C 449.343 90.718, 443.547 101.940, 441.328 111.326 C 439.225 120.221, 437.918 144.899, 439.065 154.049 C 441.952 177.073, 450.287 191.929, 464.484 199.354 C 470.169 202.327, 471.105 202.500, 481.500 202.500 C 492.080 202.500, 492.787 202.362, 500 198.894 C 504.125 196.911, 510.239 193.215, 513.586 190.682 C 524.678 182.288, 544.306 160.366, 559.311 139.611 C 562.314 135.457, 562.143 183.103, 559.099 198.646 C 555.660 216.205, 548.630 227.498, 538.312 232.034 C 531.518 235.022, 523.773 236.035, 500.645 236.962 C 480.521 237.769, 478.423 238.027, 474.154 240.224 C 467.162 243.822, 463.645 249.468, 463.210 257.793 C 462.730 266.974, 466.260 274.124, 473.428 278.495 C 478.356 281.500, 478.356 281.500, 498.428 281.318 C 557.527 280.781, 588.906 264.959, 598.221 231 C 601.508 219.018, 603.151 205.049, 607.513 152 C 609.890 123.101, 611.806 105.500, 613.500 97 C 616.517 81.866, 616.598 77.672, 614.002 70.736 C 611.737 64.681, 607.237 59.826, 601.782 57.551 C 597.145 55.616, 587.584 55.607, 583.150 57.533 M 117 60.538 C 89.173 64.937, 64.299 77.826, 61.105 89.500 C 60.504 91.700, 60.009 98.870, 60.006 105.434 C 60.001 115.557, 60.322 118.033, 62.120 121.747 C 67.151 132.140, 84.595 137.052, 105.308 133.909 C 133.666 129.605, 155.852 116.225, 164.196 98.396 C 166.902 92.611, 167.201 91.097, 166.749 85.462 C 165.662 71.920, 154.995 61.868, 140.229 60.470 C 127.279 59.245, 125.141 59.251, 117 60.538 M 357.670 77.166 C 349.120 79.508, 344.571 81.806, 334.500 88.870 C 308.988 106.766, 289.797 136.965, 287.362 163.046 C 285.332 184.784, 296.856 205.333, 314.434 211.323 C 321.540 213.744, 326.141 213.410, 334.820 209.843 C 341.385 207.144, 343.743 205.437, 351.058 198.090 C 358.959 190.154, 367.118 179.204, 375.508 165.276 C 378.536 160.251, 378.929 159.924, 379.349 162.089 C 379.607 163.415, 380.724 169.292, 381.832 175.150 C 385.949 196.916, 394.574 208.987, 406.016 208.996 C 412.321 209.001, 417.025 206.254, 419.832 200.926 C 422.019 196.776, 422.131 195.722, 421.625 184 C 421.327 177.125, 419.949 164.818, 418.561 156.650 C 417.174 148.483, 415.318 134.758, 414.439 126.150 C 411.502 97.412, 409.550 91.381, 402.193 88.307 C 399.702 87.266, 397.020 87.033, 392.957 87.505 C 387.278 88.164, 387.209 88.141, 384.532 84.631 C 378.418 76.615, 369.117 74.030, 357.670 77.166 M 365.222 118.002 C 352.363 126.160, 334.970 147.006, 330.452 159.676 C 328.623 164.803, 328.627 171.445, 330.459 172.966 C 336.454 177.942, 351.575 161.271, 363.535 136.500 C 367.649 127.979, 372.716 113.944, 371.655 114.010 C 371.570 114.015, 368.675 115.811, 365.222 118.002" stroke="none" fill="#fffcfc" fill-rule="evenodd"/><path d="" stroke="none" fill="#fcfcfc" fill-rule="evenodd"/></svg>