<svg xmlns="http://www.w3.org/2000/svg" width="121" height="102" viewBox="0 0 121 102" version="1.1"><path d="M 27.500 10.875 C 24.154 11.921, 22.664 13.263, 18.227 19.230 C 12.865 26.440, 11.997 28.754, 12.011 35.815 C 12.030 46.193, 14.892 68.743, 16.974 74.923 C 20.717 86.033, 23.232 90.370, 27 92.207 C 31.605 94.452, 31.518 94.475, 73.500 79.774 C 107.393 67.904, 111.273 65.566, 111.273 57 C 111.273 51.467, 108.727 48.207, 102.167 45.339 C 99.050 43.976, 92.225 40.375, 87 37.338 C 65.917 25.080, 59.043 21.548, 49.030 17.830 C 43.271 15.691, 37.646 13.351, 36.530 12.629 C 33.798 10.863, 29.937 10.112, 27.500 10.875 M 36.394 44.636 C 37.486 58.730, 38.175 65.471, 38.565 65.880 C 39.058 66.398, 70.928 55.925, 71.456 55.072 C 72.042 54.123, 43.119 38.016, 38.103 36.498 C 35.706 35.772, 35.706 35.772, 36.394 44.636" stroke="none" fill="#fffcfc" fill-rule="evenodd"/><path d="" stroke="none" fill="#fcfcfc" fill-rule="evenodd"/></svg>