<svg xmlns="http://www.w3.org/2000/svg" width="139" height="112" viewBox="0 0 139 112" version="1.1"><path d="M 69.682 10.031 C 66.922 12.207, 64.791 15.180, 49.997 37.500 C 44.468 45.841, 39.275 51.888, 28.511 62.519 C 20.704 70.230, 13.796 77.513, 13.159 78.704 C 10.045 84.521, 14.279 91.639, 20.309 90.727 C 22.132 90.451, 24.783 90.899, 26.493 91.773 C 29.112 93.111, 35.116 93.214, 74.415 92.593 C 121.272 91.853, 123.423 91.642, 128.218 87.303 C 131.122 84.675, 132.302 78.654, 130.672 74.787 C 128.141 68.781, 113.841 50.314, 95.609 29.506 C 91.269 24.553, 86.940 18.700, 85.989 16.500 C 83.714 11.240, 81.002 8.943, 76.328 8.320 C 73.369 7.925, 71.860 8.314, 69.682 10.031 M 72.251 42.160 C 70.617 44.547, 68.577 47.850, 67.717 49.500 C 66.856 51.150, 63.915 55.257, 61.180 58.626 C 56.207 64.753, 56.207 64.753, 75.166 65.480 C 85.594 65.881, 94.346 65.987, 94.616 65.718 C 95.199 65.134, 81.252 44.936, 75.932 38.660 C 75.540 38.198, 73.884 39.773, 72.251 42.160" stroke="none" fill="#fffcfc" fill-rule="evenodd"/><path d="" stroke="none" fill="#fcfcfc" fill-rule="evenodd"/></svg>